<svg width="1920" height="962" xmlns="http://www.w3.org/2000/svg"><g><path d="M-55,-85L-120,58L48,-65Z" fill="#fafbff" stroke="#fafbff"/><path d="M-55,-85L48,-65L393,-129Z" fill="#eff4fc" stroke="#eff4fc"/><path d="M48,-65L-120,58L105,59Z" fill="#f6f9ff" stroke="#f6f9ff"/><path d="M48,-65L105,59L196,-36Z" fill="#f0f5fc" stroke="#f0f5fc"/><path d="M48,-65L196,-36L393,-129Z" fill="#eaf1fa" stroke="#eaf1fa"/><path d="M196,-36L105,59L201,64Z" fill="#ebf3fb" stroke="#ebf3fb"/><path d="M196,-36L201,64L386,19Z" fill="#e6eff9" stroke="#e6eff9"/><path d="M196,-36L386,19L393,-129Z" fill="#e2edf7" stroke="#e2edf7"/><path d="M393,-129L386,19L514,-64Z" fill="#dceaf5" stroke="#dceaf5"/><path d="M393,-129L514,-64L684,-81Z" fill="#d6e8f3" stroke="#d6e8f3"/><path d="M393,-129L684,-81L985,-85Z" fill="#cbe3ef" stroke="#cbe3ef"/><path d="M393,-129L985,-85L1295,-119Z" fill="#bbdaec" stroke="#bbdaec"/><path d="M514,-64L386,19L580,60Z" fill="#d7e9f3" stroke="#d7e9f3"/><path d="M514,-64L580,60L684,-81Z" fill="#d2e6f1" stroke="#d2e6f1"/><path d="M684,-81L580,60L685,104Z" fill="#cce4f0" stroke="#cce4f0"/><path d="M684,-81L685,104L854,31Z" fill="#c6e0ef" stroke="#c6e0ef"/><path d="M684,-81L854,31L884,-71Z" fill="#c1dded" stroke="#c1dded"/><path d="M684,-81L884,-71L985,-85Z" fill="#bedced" stroke="#bedced"/><path d="M884,-71L854,31L972,32Z" fill="#bad9ec" stroke="#bad9ec"/><path d="M884,-71L972,32L985,-85Z" fill="#b6d7eb" stroke="#b6d7eb"/><path d="M985,-85L972,32L1160,-59Z" fill="#aed1e8" stroke="#aed1e8"/><path d="M985,-85L1160,-59L1295,-119Z" fill="#a4cae3" stroke="#a4cae3"/><path d="M1160,-59L972,32L1151,129Z" fill="#a7cee6" stroke="#a7cee6"/><path d="M1160,-59L1151,129L1319,41Z" fill="#9dc6e1" stroke="#9dc6e1"/><path d="M1160,-59L1319,41L1295,-119Z" fill="#9ac2df" stroke="#9ac2df"/><path d="M1295,-119L1319,41L1392,-58Z" fill="#95bddb" stroke="#95bddb"/><path d="M1295,-119L1392,-58L1519,-83Z" fill="#90b7d8" stroke="#90b7d8"/><path d="M1295,-119L1519,-83L1856,-98Z" fill="#87acd0" stroke="#87acd0"/><path d="M1392,-58L1319,41L1383,19Z" fill="#93bada" stroke="#93bada"/><path d="M1392,-58L1383,19L1519,-83Z" fill="#8fb5d6" stroke="#8fb5d6"/><path d="M1519,-83L1383,19L1597,24Z" fill="#8ab0d3" stroke="#8ab0d3"/><path d="M1519,-83L1597,24L1767,-23Z" fill="#82a6cc" stroke="#82a6cc"/><path d="M1519,-83L1767,-23L1856,-98Z" fill="#80a0c8" stroke="#80a0c8"/><path d="M1767,-23L1597,24L1778,78Z" fill="#7ea0c8" stroke="#7ea0c8"/><path d="M1767,-23L1778,78L1849,45Z" fill="#7e99c4" stroke="#7e99c4"/><path d="M1767,-23L1849,45L1856,-98Z" fill="#8097c2" stroke="#8097c2"/><path d="M1856,-98L1849,45L2007,-25Z" fill="#8091be" stroke="#8091be"/><path d="M2007,-25L1849,45L1990,40Z" fill="#7f8ebc" stroke="#7f8ebc"/><path d="M2007,-25L1990,40L2077,265Z" fill="#7a88b8" stroke="#7a88b8"/><path d="M-120,58L-105,643L-97,265Z" fill="#dcf6ff" stroke="#dcf6ff"/><path d="M-120,58L-97,265L105,59Z" fill="#f2fbff" stroke="#f2fbff"/><path d="M105,59L-97,265L103,280Z" fill="#e5f6fe" stroke="#e5f6fe"/><path d="M105,59L103,280L207,256Z" fill="#dff3fc" stroke="#dff3fc"/><path d="M105,59L207,256L201,64Z" fill="#e5f3fb" stroke="#e5f3fb"/><path d="M201,64L207,256L335,208Z" fill="#dbeff9" stroke="#dbeff9"/><path d="M201,64L335,208L386,19Z" fill="#deeef8" stroke="#deeef8"/><path d="M386,19L335,208L580,60Z" fill="#d6eaf5" stroke="#d6eaf5"/><path d="M580,60L335,208L582,254Z" fill="#cce8f3" stroke="#cce8f3"/><path d="M580,60L582,254L685,104Z" fill="#c8e5f1" stroke="#c8e5f1"/><path d="M685,104L582,254L706,213Z" fill="#bfe2f0" stroke="#bfe2f0"/><path d="M685,104L706,213L869,203Z" fill="#badfee" stroke="#badfee"/><path d="M685,104L869,203L854,31Z" fill="#bbdeed" stroke="#bbdeed"/><path d="M854,31L869,203L972,32Z" fill="#b5d9ec" stroke="#b5d9ec"/><path d="M972,32L869,203L923,231Z" fill="#afd8eb" stroke="#afd8eb"/><path d="M972,32L923,231L1151,129Z" fill="#a9d3e9" stroke="#a9d3e9"/><path d="M1151,129L923,231L1145,251Z" fill="#9bcde6" stroke="#9bcde6"/><path d="M1151,129L1145,251L1329,258Z" fill="#8dc3e1" stroke="#8dc3e1"/><path d="M1151,129L1329,258L1319,41Z" fill="#91c2df" stroke="#91c2df"/><path d="M1319,41L1329,258L1377,228Z" fill="#88bcdb" stroke="#88bcdb"/><path d="M1319,41L1377,228L1383,19Z" fill="#8ebbda" stroke="#8ebbda"/><path d="M1383,19L1377,228L1573,213Z" fill="#85b4d6" stroke="#85b4d6"/><path d="M1383,19L1573,213L1597,24Z" fill="#84afd2" stroke="#84afd2"/><path d="M1597,24L1573,213L1778,78Z" fill="#7ba4cb" stroke="#7ba4cb"/><path d="M1778,78L1573,213L1674,276Z" fill="#72a1ca" stroke="#72a1ca"/><path d="M1778,78L1674,276L1887,284Z" fill="#6e98c4" stroke="#6e98c4"/><path d="M1778,78L1887,284L1849,45Z" fill="#7896c1" stroke="#7896c1"/><path d="M1849,45L1887,284L1990,40Z" fill="#7891be" stroke="#7891be"/><path d="M1990,40L1887,284L2077,265Z" fill="#7189ba" stroke="#7189ba"/><path d="M-97,265L-105,643L-50,428Z" fill="#c4e8ff" stroke="#c4e8ff"/><path d="M-97,265L-50,428L18,324Z" fill="#d5f2ff" stroke="#d5f2ff"/><path d="M-97,265L18,324L103,280Z" fill="#daf3ff" stroke="#daf3ff"/><path d="M103,280L18,324L227,498Z" fill="#c5e9fc" stroke="#c5e9fc"/><path d="M103,280L227,498L284,339Z" fill="#bfe5fa" stroke="#bfe5fa"/><path d="M103,280L284,339L207,256Z" fill="#ceecfa" stroke="#ceecfa"/><path d="M207,256L284,339L335,208Z" fill="#cceaf8" stroke="#cceaf8"/><path d="M335,208L284,339L425,348Z" fill="#c3e7f7" stroke="#c3e7f7"/><path d="M335,208L425,348L508,326Z" fill="#bfe5f5" stroke="#bfe5f5"/><path d="M335,208L508,326L582,254Z" fill="#c0e5f4" stroke="#c0e5f4"/><path d="M582,254L508,326L658,396Z" fill="#b0dff2" stroke="#b0dff2"/><path d="M582,254L658,396L706,213Z" fill="#b2dff0" stroke="#b2dff0"/><path d="M706,213L658,396L789,392Z" fill="#a5d9ef" stroke="#a5d9ef"/><path d="M706,213L789,392L869,203Z" fill="#a9d9ee" stroke="#a9d9ee"/><path d="M869,203L789,392L923,231Z" fill="#a3d6ec" stroke="#a3d6ec"/><path d="M923,231L789,392L1032,416Z" fill="#92cfec" stroke="#92cfec"/><path d="M923,231L1032,416L1145,251Z" fill="#90cce8" stroke="#90cce8"/><path d="M1145,251L1032,416L1127,434Z" fill="#7ec1e5" stroke="#7ec1e5"/><path d="M1145,251L1127,434L1236,358Z" fill="#7cbee3" stroke="#7cbee3"/><path d="M1145,251L1236,358L1329,258Z" fill="#7fbee0" stroke="#7fbee0"/><path d="M1329,258L1236,358L1432,390Z" fill="#70b4dc" stroke="#70b4dc"/><path d="M1329,258L1432,390L1377,228Z" fill="#75b4d9" stroke="#75b4d9"/><path d="M1377,228L1432,390L1573,213Z" fill="#72aed5" stroke="#72aed5"/><path d="M1573,213L1432,390L1575,413Z" fill="#63a5d2" stroke="#63a5d2"/><path d="M1573,213L1575,413L1674,276Z" fill="#65a2cd" stroke="#65a2cd"/><path d="M1674,276L1575,413L1681,401Z" fill="#5799cc" stroke="#5799cc"/><path d="M1674,276L1681,401L1887,284Z" fill="#5e96c6" stroke="#5e96c6"/><path d="M1887,284L1681,401L1914,346Z" fill="#5a8dc2" stroke="#5a8dc2"/><path d="M1887,284L1914,346L2060,334Z" fill="#5e86bc" stroke="#5e86bc"/><path d="M1887,284L2060,334L2077,265Z" fill="#6283b9" stroke="#6283b9"/><path d="M2077,265L2060,334L2075,540Z" fill="#5377b5" stroke="#5377b5"/><path d="M-50,428L-105,643L-28,472Z" fill="#b4defc" stroke="#b4defc"/><path d="M-50,428L-28,472L18,324Z" fill="#c7eaff" stroke="#c7eaff"/><path d="M18,324L-28,472L87,561Z" fill="#bbe3ff" stroke="#bbe3ff"/><path d="M18,324L87,561L227,498Z" fill="#b4dffc" stroke="#b4dffc"/><path d="M284,339L227,498L328,472Z" fill="#aedbf8" stroke="#aedbf8"/><path d="M284,339L328,472L425,348Z" fill="#b3dff7" stroke="#b3dff7"/><path d="M425,348L328,472L574,479Z" fill="#a4d7f5" stroke="#a4d7f5"/><path d="M425,348L574,479L508,326Z" fill="#aadaf3" stroke="#aadaf3"/><path d="M508,326L574,479L658,396Z" fill="#a2d7f2" stroke="#a2d7f2"/><path d="M658,396L574,479L701,567Z" fill="#8ecdf0" stroke="#8ecdf0"/><path d="M658,396L701,567L813,518Z" fill="#86c7ee" stroke="#86c7ee"/><path d="M658,396L813,518L789,392Z" fill="#8ecdee" stroke="#8ecdee"/><path d="M789,392L813,518L1032,416Z" fill="#83c6ec" stroke="#83c6ec"/><path d="M1032,416L813,518L1025,564Z" fill="#72bce9" stroke="#72bce9"/><path d="M1032,416L1025,564L1127,434Z" fill="#6eb9e7" stroke="#6eb9e7"/><path d="M1127,434L1025,564L1134,576Z" fill="#5faee1" stroke="#5faee1"/><path d="M1127,434L1134,576L1219,551Z" fill="#5babdf" stroke="#5babdf"/><path d="M1127,434L1219,551L1236,358Z" fill="#67b2e2" stroke="#67b2e2"/><path d="M1236,358L1219,551L1432,390Z" fill="#60addd" stroke="#60addd"/><path d="M1432,390L1219,551L1419,569Z" fill="#4e9fd8" stroke="#4e9fd8"/><path d="M1432,390L1419,569L1575,413Z" fill="#509cd4" stroke="#509cd4"/><path d="M1575,413L1419,569L1631,547Z" fill="#4190ce" stroke="#4190ce"/><path d="M1575,413L1631,547L1681,401Z" fill="#4791cc" stroke="#4791cc"/><path d="M1681,401L1631,547L1698,547Z" fill="#3c88c9" stroke="#3c88c9"/><path d="M1681,401L1698,547L1904,557Z" fill="#3b80c3" stroke="#3b80c3"/><path d="M1681,401L1904,557L1914,346Z" fill="#4983c2" stroke="#4983c2"/><path d="M1914,346L1904,557L2075,540Z" fill="#4074bb" stroke="#4074bb"/><path d="M1914,346L2075,540L2060,334Z" fill="#4e78b8" stroke="#4e78b8"/><path d="M-28,472L-105,643L60,625Z" fill="#a3d2f6" stroke="#a3d2f6"/><path d="M-28,472L60,625L87,561Z" fill="#a5d4f8" stroke="#a5d4f8"/><path d="M87,561L60,625L187,630Z" fill="#95c9f1" stroke="#95c9f1"/><path d="M87,561L187,630L227,498Z" fill="#9bcdf4" stroke="#9bcdf4"/><path d="M227,498L187,630L328,472Z" fill="#9ccff4" stroke="#9ccff4"/><path d="M328,472L187,630L383,716Z" fill="#89c2ec" stroke="#89c2ec"/><path d="M328,472L383,716L581,649Z" fill="#7fbde8" stroke="#7fbde8"/><path d="M328,472L581,649L574,479Z" fill="#8cc8ee" stroke="#8cc8ee"/><path d="M574,479L581,649L701,567Z" fill="#7ec0e9" stroke="#7ec0e9"/><path d="M701,567L581,649L720,656Z" fill="#6eb5e2" stroke="#6eb5e2"/><path d="M701,567L720,656L813,518Z" fill="#71b8e5" stroke="#71b8e5"/><path d="M813,518L720,656L815,690Z" fill="#65b0e1" stroke="#65b0e1"/><path d="M813,518L815,690L962,643Z" fill="#5fade0" stroke="#5fade0"/><path d="M813,518L962,643L1025,564Z" fill="#63b1e2" stroke="#63b1e2"/><path d="M1025,564L962,643L1073,651Z" fill="#52a4db" stroke="#52a4db"/><path d="M1025,564L1073,651L1134,576Z" fill="#52a4db" stroke="#52a4db"/><path d="M1134,576L1073,651L1301,707Z" fill="#4096d3" stroke="#4096d3"/><path d="M1134,576L1301,707L1219,551Z" fill="#4298d5" stroke="#4298d5"/><path d="M1219,551L1301,707L1419,569Z" fill="#3b91d1" stroke="#3b91d1"/><path d="M1419,569L1301,707L1386,720Z" fill="#2f83c8" stroke="#2f83c8"/><path d="M1419,569L1386,720L1592,636Z" fill="#2a81c6" stroke="#2a81c6"/><path d="M1419,569L1592,636L1631,547Z" fill="#3184c7" stroke="#3184c7"/><path d="M1631,547L1592,636L1698,547Z" fill="#2d7ec3" stroke="#2d7ec3"/><path d="M1698,547L1592,636L1748,712Z" fill="#1f72bc" stroke="#1f72bc"/><path d="M1698,547L1748,712L1871,641Z" fill="#1f6bb6" stroke="#1f6bb6"/><path d="M1698,547L1871,641L1904,557Z" fill="#2a6fb9" stroke="#2a6fb9"/><path d="M1904,557L1871,641L2021,631Z" fill="#2462b1" stroke="#2462b1"/><path d="M1904,557L2021,631L2075,540Z" fill="#2b62b0" stroke="#2b62b0"/><path d="M2075,540L2021,631L2067,814Z" fill="#1c50a5" stroke="#1c50a5"/><path d="M-105,643L-58,940L-17,866Z" fill="#8caadb" stroke="#8caadb"/><path d="M-105,643L-17,866L60,625Z" fill="#91bbe8" stroke="#91bbe8"/><path d="M60,625L-17,866L129,798Z" fill="#89afe0" stroke="#89afe0"/><path d="M60,625L129,798L187,630Z" fill="#8abbe8" stroke="#8abbe8"/><path d="M187,630L129,798L259,878Z" fill="#7fa9dc" stroke="#7fa9dc"/><path d="M187,630L259,878L383,716Z" fill="#7caadd" stroke="#7caadd"/><path d="M383,716L259,878L406,791Z" fill="#739ed5" stroke="#739ed5"/><path d="M383,716L406,791L476,818Z" fill="#70a0d6" stroke="#70a0d6"/><path d="M383,716L476,818L581,649Z" fill="#70a7da" stroke="#70a7da"/><path d="M581,649L476,818L694,838Z" fill="#679dd3" stroke="#679dd3"/><path d="M581,649L694,838L720,656Z" fill="#65a4d8" stroke="#65a4d8"/><path d="M720,656L694,838L815,690Z" fill="#5e9ed5" stroke="#5e9ed5"/><path d="M815,690L694,838L838,784Z" fill="#5795cf" stroke="#5795cf"/><path d="M815,690L838,784L916,804Z" fill="#5394cf" stroke="#5394cf"/><path d="M815,690L916,804L962,643Z" fill="#539ad4" stroke="#539ad4"/><path d="M962,643L916,804L1073,651Z" fill="#4d99d4" stroke="#4d99d4"/><path d="M1073,651L916,804L1137,790Z" fill="#448ccc" stroke="#448ccc"/><path d="M1073,651L1137,790L1301,707Z" fill="#3a89cb" stroke="#3a89cb"/><path d="M1301,707L1137,790L1240,822Z" fill="#317ac1" stroke="#317ac1"/><path d="M1301,707L1240,822L1406,845Z" fill="#2871bb" stroke="#2871bb"/><path d="M1301,707L1406,845L1386,720Z" fill="#2873bd" stroke="#2873bd"/><path d="M1386,720L1406,845L1633,826Z" fill="#1e63b2" stroke="#1e63b2"/><path d="M1386,720L1633,826L1592,636Z" fill="#1f6bb7" stroke="#1f6bb7"/><path d="M1592,636L1633,826L1748,712Z" fill="#1862b2" stroke="#1862b2"/><path d="M1748,712L1633,826L1725,870Z" fill="#1251a6" stroke="#1251a6"/><path d="M1748,712L1725,870L1871,851Z" fill="#1149a1" stroke="#1149a1"/><path d="M1748,712L1871,851L1871,641Z" fill="#1754a7" stroke="#1754a7"/><path d="M1871,641L1871,851L2067,814Z" fill="#14459e" stroke="#14459e"/><path d="M1871,641L2067,814L2021,631Z" fill="#194fa4" stroke="#194fa4"/><path d="M-17,866L-58,940L35,950Z" fill="#8295cf" stroke="#8295cf"/><path d="M-17,866L35,950L129,798Z" fill="#819bd3" stroke="#819bd3"/><path d="M129,798L35,950L185,988Z" fill="#7a91cc" stroke="#7a91cc"/><path d="M129,798L185,988L259,878Z" fill="#7793cd" stroke="#7793cd"/><path d="M259,878L185,988L329,1014Z" fill="#6d83c3" stroke="#6d83c3"/><path d="M259,878L329,1014L406,791Z" fill="#6e8cc9" stroke="#6e8cc9"/><path d="M406,791L329,1014L490,994Z" fill="#6683c3" stroke="#6683c3"/><path d="M406,791L490,994L476,818Z" fill="#688eca" stroke="#688eca"/><path d="M476,818L490,994L674,956Z" fill="#5e81c1" stroke="#5e81c1"/><path d="M476,818L674,956L694,838Z" fill="#5d89c6" stroke="#5d89c6"/><path d="M694,838L674,956L807,1013Z" fill="#5079bc" stroke="#5079bc"/><path d="M694,838L807,1013L838,784Z" fill="#5081c2" stroke="#5081c2"/><path d="M838,784L807,1013L938,934Z" fill="#4778bd" stroke="#4778bd"/><path d="M838,784L938,934L916,804Z" fill="#4983c5" stroke="#4983c5"/><path d="M916,804L938,934L1089,925Z" fill="#3f76bd" stroke="#3f76bd"/><path d="M916,804L1089,925L1137,790Z" fill="#3d7ac0" stroke="#3d7ac0"/><path d="M1137,790L1089,925L1227,923Z" fill="#306cb7" stroke="#306cb7"/><path d="M1137,790L1227,923L1240,822Z" fill="#2e6fb9" stroke="#2e6fb9"/><path d="M1240,822L1227,923L1406,845Z" fill="#2565b4" stroke="#2565b4"/><path d="M1406,845L1227,923L1397,948Z" fill="#1f59ac" stroke="#1f59ac"/><path d="M1406,845L1397,948L1576,998Z" fill="#164ca3" stroke="#164ca3"/><path d="M1406,845L1576,998L1633,826Z" fill="#134da4" stroke="#134da4"/><path d="M1633,826L1576,998L1685,957Z" fill="#0b3f9b" stroke="#0b3f9b"/><path d="M1633,826L1685,957L1725,870Z" fill="#0c449d" stroke="#0c449d"/><path d="M1725,870L1685,957L1837,987Z" fill="#083493" stroke="#083493"/><path d="M1725,870L1837,987L1871,851Z" fill="#0b3694" stroke="#0b3694"/><path d="M1871,851L1837,987L1989,918Z" fill="#092c8e" stroke="#092c8e"/><path d="M1871,851L1989,918L2067,814Z" fill="#0d3191" stroke="#0d3191"/><path d="M2067,814L1989,918L1970,1167Z" fill="#061b82" stroke="#061b82"/><path d="M-58,940L-27,1076L35,950Z" fill="#7d88c6" stroke="#7d88c6"/><path d="M35,950L-27,1076L131,1116Z" fill="#757bbe" stroke="#757bbe"/><path d="M35,950L131,1116L185,988Z" fill="#727dbf" stroke="#727dbf"/><path d="M185,988L131,1116L189,1154Z" fill="#6d73b6" stroke="#6d73b6"/><path d="M185,988L189,1154L326,1088Z" fill="#6971b5" stroke="#6971b5"/><path d="M185,988L326,1088L329,1014Z" fill="#6775ba" stroke="#6775ba"/><path d="M329,1014L326,1088L490,994Z" fill="#6072b7" stroke="#6072b7"/><path d="M490,994L326,1088L553,1170Z" fill="#5b6aaf" stroke="#5b6aaf"/><path d="M490,994L553,1170L668,1091Z" fill="#5467ad" stroke="#5467ad"/><path d="M490,994L668,1091L674,956Z" fill="#546fb4" stroke="#546fb4"/><path d="M674,956L668,1091L807,1013Z" fill="#4b6ab2" stroke="#4b6ab2"/><path d="M807,1013L668,1091L828,1112Z" fill="#4560ab" stroke="#4560ab"/><path d="M807,1013L828,1112L992,1104Z" fill="#3c5ba8" stroke="#3c5ba8"/><path d="M807,1013L992,1104L938,934Z" fill="#3c62af" stroke="#3c62af"/><path d="M938,934L992,1104L1089,925Z" fill="#3662b0" stroke="#3662b0"/><path d="M1089,925L992,1104L1095,1141Z" fill="#2d51a5" stroke="#2d51a5"/><path d="M1089,925L1095,1141L1227,923Z" fill="#2957aa" stroke="#2957aa"/><path d="M1227,923L1095,1141L1325,1151Z" fill="#1f469d" stroke="#1f469d"/><path d="M1227,923L1325,1151L1397,948Z" fill="#1948a1" stroke="#1948a1"/><path d="M1397,948L1325,1151L1387,1151Z" fill="#133a95" stroke="#133a95"/><path d="M1397,948L1387,1151L1576,998Z" fill="#0f3997" stroke="#0f3997"/><path d="M1576,998L1387,1151L1599,1077Z" fill="#092f8e" stroke="#092f8e"/><path d="M1576,998L1599,1077L1685,957Z" fill="#053191" stroke="#053191"/><path d="M1685,957L1599,1077L1721,1102Z" fill="#00278a" stroke="#00278a"/><path d="M1685,957L1721,1102L1837,987Z" fill="#02268a" stroke="#02268a"/><path d="M1837,987L1721,1102L1850,1179Z" fill="#00197e" stroke="#00197e"/><path d="M1837,987L1850,1179L1970,1167Z" fill="#001377" stroke="#001377"/><path d="M1837,987L1970,1167L1989,918Z" fill="#02167f" stroke="#02167f"/><path d="M-27,1076L189,1154L131,1116Z" fill="#7176b4" stroke="#7176b4"/><path d="M189,1154L553,1170L326,1088Z" fill="#616dab" stroke="#616dab"/><path d="M553,1170L1850,1179L1325,1151Z" fill="#1c4491" stroke="#1c4491"/><path d="M553,1170L1325,1151L1095,1141Z" fill="#33559c" stroke="#33559c"/><path d="M553,1170L1095,1141L828,1112Z" fill="#405da1" stroke="#405da1"/><path d="M553,1170L828,1112L668,1091Z" fill="#4c63a6" stroke="#4c63a6"/><path d="M828,1112L1095,1141L992,1104Z" fill="#3556a1" stroke="#3556a1"/><path d="M1325,1151L1850,1179L1387,1151Z" fill="#092f84" stroke="#092f84"/><path d="M1387,1151L1850,1179L1721,1102Z" fill="#01257f" stroke="#01257f"/><path d="M1387,1151L1721,1102L1599,1077Z" fill="#062b87" stroke="#062b87"/></g></svg>