<?xml version="1.0" encoding="utf-8"?>
<!-- Generator: Adobe Illustrator 16.0.0, SVG Export Plug-In . SVG Version: 6.00 Build 0)  -->
<!DOCTYPE svg PUBLIC "-//W3C//DTD SVG 1.1//EN" "http://www.w3.org/Graphics/SVG/1.1/DTD/svg11.dtd">
<svg version="1.1" id="Layer_1" xmlns="http://www.w3.org/2000/svg" xmlns:xlink="http://www.w3.org/1999/xlink" x="0px" y="0px"
	 width="1920px" height="150.417px" viewBox="0 0 1920 150.417" enable-background="new 0 0 1920 150.417" xml:space="preserve">
<g>
	<path fill="#E3EAFA" stroke="#E3EAFA" d="M2045.746,1024.502l13.473-619.97l-14.942,396.965L2045.746,1024.502z"/>
	<path fill="#F0F0FA" stroke="#F0F0FA" d="M2045.746,1024.502l-1.471-223.005l-23.127,53.945L2045.746,1024.502z"/>
	<path fill="#F3F2F9" stroke="#F3F2F9" d="M2045.746,1024.502l-24.598-169.06l-14.228,94.966L2045.746,1024.502z"/>
	<path fill="#F6F4F9" stroke="#F6F4F9" d="M2045.746,1024.502l-38.824-74.094l-37.035,14.913L2045.746,1024.502z"/>
	<path fill="#F5F3F9" stroke="#F5F3F9" d="M2045.746,1024.502l-75.859-59.181l-63.251,105.851L2045.746,1024.502z"/>
	<path fill="#F2F1F7" stroke="#F2F1F7" d="M1906.636,1071.172l63.251-105.851l-123.964-15.294L1906.636,1071.172z"/>
	<path fill="#EFEFF7" stroke="#EFEFF7" d="M1906.636,1071.172l-60.713-121.145l-5.287,120.986L1906.636,1071.172z"/>
	<path fill="#E2E8F2" stroke="#E2E8F2" d="M1906.636,1071.172l-66-0.157l-702.001-0.666L1906.636,1071.172z"/>
	<path fill="#EDEEF6" stroke="#EDEEF6" d="M1840.636,1071.015l5.287-120.986l-83.062,26.803L1840.636,1071.015z"/>
	<path fill="#EBEDF5" stroke="#EBEDF5" d="M1840.636,1071.015l-77.775-94.185l-22.132,54.947L1840.636,1071.015z"/>
	<path fill="#E7EAF4" stroke="#E7EAF4" d="M1840.636,1071.015l-99.907-39.236l-173-0.41L1840.636,1071.015z"/>
	<path fill="#DCE4F0" stroke="#DCE4F0" d="M1840.636,1071.015l-272.907-39.646l-429.094,38.98L1840.636,1071.015z"/>
	<path fill="#E8EBF4" stroke="#E8EBF4" d="M1740.729,1031.777l22.132-54.947l-85.968-14.205L1740.729,1031.777z"/>
	<path fill="#E6EAF4" stroke="#E6EAF4" d="M1740.729,1031.777l-63.836-69.152l-3.12,50.994L1740.729,1031.777z"/>
	<path fill="#E4E9F3" stroke="#E4E9F3" d="M1740.729,1031.777l-66.957-18.158l-106.043,17.748L1740.729,1031.777z"/>
	<path fill="#E3E8F3" stroke="#E3E8F3" d="M1673.771,1013.619l3.12-50.994l-109.163,68.742L1673.771,1013.619z"/>
	<path fill="#E0E6F2" stroke="#E0E6F2" d="M1567.729,1031.367l109.164-68.742l-74.895-44.177L1567.729,1031.367z"/>
	<path fill="#DEE5F1" stroke="#DEE5F1" d="M1567.729,1031.367l34.271-112.919l-89.229,95.788L1567.729,1031.367z"/>
	<path fill="#DBE3F0" stroke="#DBE3F0" d="M1567.729,1031.367l-54.959-17.131l-100.981-7.24L1567.729,1031.367z"/>
	<path fill="#D4DFEE" stroke="#D4DFEE" d="M1567.729,1031.367l-155.94-24.371l-273.152,63.353L1567.729,1031.367z"/>
	<path fill="#DBE4F1" stroke="#DBE4F1" d="M1512.77,1014.236l89.229-95.788l-113.139,57.73L1512.77,1014.236z"/>
	<path fill="#DAE2F0" stroke="#DAE2F0" d="M1512.77,1014.236l-23.909-38.058l-77.072,30.816L1512.77,1014.236z"/>
	<path fill="#D6E1EF" stroke="#D6E1EF" d="M1411.787,1006.996l77.072-30.816l-55.896-43.133L1411.787,1006.996z"/>
	<path fill="#D1DDEE" stroke="#D1DDEE" d="M1411.787,1006.996l21.176-73.949l-149.975-11.354L1411.787,1006.996z"/>
	<path fill="#D0DDED" stroke="#D0DDED" d="M1411.787,1006.996l-128.799-85.305l-2.211,88.993L1411.787,1006.996z"/>
	<path fill="#CCDCEC" stroke="#CCDCEC" d="M1411.787,1006.996l-131.01,3.688l-142.144,59.663L1411.787,1006.996z"/>
	<path fill="#CBDBEC" stroke="#CBDBEC" d="M1280.777,1010.686l2.211-88.993l-33.201,84.92L1280.777,1010.686z"/>
	<path fill="#C7DAEB" stroke="#C7DAEB" d="M1280.777,1010.686l-30.99-4.073l-111.152,63.736L1280.777,1010.686z"/>
	<path fill="#C6D9EB" stroke="#C6D9EB" d="M1249.787,1006.611l33.201-84.92l-82.039,16.805L1249.787,1006.611z"/>
	<path fill="#C3D8EA" stroke="#C3D8EA" d="M1249.787,1006.611l-48.838-68.115l-51.082,33.879L1249.787,1006.611z"/>
	<path fill="#C3D8EA" stroke="#C3D8EA" d="M1249.787,1006.611l-99.92-34.236l-11.232,97.974L1249.787,1006.611z"/>
	<path fill="#BDD6E8" stroke="#BDD6E8" d="M1138.635,1070.349l11.232-97.974l-79.168,70.812L1138.635,1070.349z"/>
	<path fill="#B7D3E7" stroke="#B7D3E7" d="M1138.635,1070.349l-67.936-27.161l-104.987-5.25L1138.635,1070.349z"/>
	<path fill="#AFD0E5" stroke="#AFD0E5" d="M1138.635,1070.349l-172.923-32.411l-164.019,7.611L1138.635,1070.349z"/>
	<path fill="#A2CBE2" stroke="#A2CBE2" d="M1138.635,1070.349l-336.94-24.8l-240.025,10.43L1138.635,1070.349z"/>
	<path fill="#98C7E0" stroke="#98C7E0" d="M1138.635,1070.349l-576.967-14.37l-51.012,4.88L1138.635,1070.349z"/>
	<path fill="#84BFDB" stroke="#84BFDB" d="M1138.635,1070.349l-627.979-9.49l-575.018,6.636L1138.635,1070.349z"/>
	<path fill="#BAD4E7" stroke="#BAD4E7" d="M1070.699,1043.188l79.168-70.812l-116.949-21.277L1070.699,1043.188z"/>
	<path fill="#B4D2E6" stroke="#B4D2E6" d="M1070.699,1043.188l-37.781-92.09l-67.206,86.84L1070.699,1043.188z"/>
	<path fill="#AFD0E5" stroke="#AFD0E5" d="M965.712,1037.938l67.206-86.84l-52.926-31.126L965.712,1037.938z"/>
	<path fill="#A9CDE4" stroke="#A9CDE4" d="M965.712,1037.938l14.28-117.966l-134.018,6.683L965.712,1037.938z"/>
	<path fill="#A6CDE3" stroke="#A6CDE3" d="M965.712,1037.938L845.976,926.653l-13.221,92.969L965.712,1037.938z"/>
	<path fill="#A5CCE2" stroke="#A5CCE2" d="M965.712,1037.938l-132.957-18.314l-31.062,25.927L965.712,1037.938z"/>
	<path fill="#A0CAE2" stroke="#A0CAE2" d="M832.755,1019.622l13.221-92.969l-45.122,51.894L832.755,1019.622z"/>
	<path fill="#A0CAE1" stroke="#A0CAE1" d="M832.755,1019.622l-31.901-41.075l0.841,67.002L832.755,1019.622z"/>
	<path fill="#9AC8E0" stroke="#9AC8E0" d="M801.693,1045.549l-0.842-67.002l-132.085,35.686L801.693,1045.549z"/>
	<path fill="#93C5DE" stroke="#93C5DE" d="M801.693,1045.549l-132.927-31.315l-107.1,41.745L801.693,1045.549z"/>
	<path fill="#95C6DF" stroke="#95C6DF" d="M668.768,1014.232l132.086-35.687l-113.888-48.271L668.768,1014.232z"/>
	<path fill="#8EC2DE" stroke="#8EC2DE" d="M668.768,1014.232l18.198-83.956l-75.018,7.82L668.768,1014.232z"/>
	<path fill="#8DC2DD" stroke="#8DC2DD" d="M668.768,1014.232l-56.818-76.136l-50.28,117.882L668.768,1014.232z"/>
	<path fill="#86C0DB" stroke="#86C0DB" d="M561.668,1055.979l50.28-117.881l-122.993-3.291L561.668,1055.979z"/>
	<path fill="#84BFDB" stroke="#84BFDB" d="M561.668,1055.979l-72.713-121.172l21.701,126.052L561.668,1055.979z"/>
	<path fill="#7FBDD9" stroke="#7FBDD9" d="M510.656,1060.857l-21.701-126.052l-77.066,27.816L510.656,1060.857z"/>
	<path fill="#80BCD9" stroke="#80BCD9" d="M510.656,1060.857l-98.769-98.234l-13.176,73.969L510.656,1060.857z"/>
	<path fill="#80B9D7" stroke="#80B9D7" d="M510.656,1060.857l-111.943-24.267l-168.029,12.603L510.656,1060.857z"/>
	<path fill="#80B3D4" stroke="#80B3D4" d="M510.656,1060.857l-279.973-11.664l-295.045,18.3L510.656,1060.857z"/>
	<path fill="#80BAD8" stroke="#80BAD8" d="M398.713,1036.592l13.176-73.969l-64.135,56.848L398.713,1036.592z"/>
	<path fill="#80B7D6" stroke="#80B7D6" d="M398.713,1036.592l-50.959-17.121l-117.07,29.724L398.713,1036.592z"/>
	<path fill="#7FB8D7" stroke="#7FB8D7" d="M347.754,1019.471l64.135-56.848l-119.979-8.285L347.754,1019.471z"/>
	<path fill="#80B6D5" stroke="#80B6D5" d="M347.754,1019.471l-55.845-65.133l-61.226,94.855L347.754,1019.471z"/>
	<path fill="#7FB4D5" stroke="#7FB4D5" d="M230.684,1049.193l61.226-94.855l-56.93-30.135L230.684,1049.193z"/>
	<path fill="#80B3D3" stroke="#80B3D3" d="M230.684,1049.193l4.296-124.99l-88.221,92.791L230.684,1049.193z"/>
	<path fill="#80B1D2" stroke="#80B1D2" d="M230.684,1049.193l-83.925-32.199l-66.028,11.844L230.684,1049.193z"/>
	<path fill="#80AED1" stroke="#80AED1" d="M230.684,1049.193L80.73,1028.838l-145.092,38.655L230.684,1049.193z"/>
	<path fill="#7DB1D3" stroke="#7DB1D3" d="M146.759,1016.994l88.221-92.791l-89.062,25.789L146.759,1016.994z"/>
	<path fill="#7EAFD2" stroke="#7EAFD2" d="M146.759,1016.994l-0.841-67.002l-65.007,2.846L146.759,1016.994z"/>
	<path fill="#80AFD1" stroke="#80AFD1" d="M146.759,1016.994l-65.848-64.156l-0.181,76L146.759,1016.994z"/>
	<path fill="#7FACD0" stroke="#7FACD0" d="M80.73,1028.838l0.181-76l-118.047,19.719L80.73,1028.838z"/>
	<path fill="#80ABCF" stroke="#80ABCF" d="M80.73,1028.838l-117.866-56.281l-27.226,94.938L80.73,1028.838z"/>
	<path fill="#7BA6CE" stroke="#7BA6CE" d="M-64.361,1067.493l27.226-94.938l-10.506-208.023L-64.361,1067.493z"/>
	<path fill="#72A2CE" stroke="#72A2CE" d="M-64.361,1067.493l16.72-302.961l1.188-78.998L-64.361,1067.493z"/>
	<path fill="#5F98CD" stroke="#5F98CD" d="M-64.361,1067.493l17.907-381.959l-10.839-489.027L-64.361,1067.493z"/>
	<path fill="#2681C2" stroke="#2681C2" d="M-64.361,1067.493l7.068-870.986L-72.679-62.53L-64.361,1067.493z"/>
	<path fill="#EDEFF9" stroke="#EDEFF9" d="M2006.922,950.408l14.228-94.966l-58.983-7.141L2006.922,950.408z"/>
	<path fill="#EFF0F9" stroke="#EFF0F9" d="M2006.922,950.408l-44.757-102.105l7.722,117.02L2006.922,950.408z"/>
	<path fill="#ECEEF8" stroke="#ECEEF8" d="M1969.887,965.321l-7.722-117.02l-116.242,101.726L1969.887,965.321z"/>
	<path fill="#E8EBF7" stroke="#E8EBF7" d="M1845.923,950.027l116.242-101.726l-131.091,37.689L1845.923,950.027z"/>
	<path fill="#E7EBF6" stroke="#E7EBF6" d="M1845.923,950.027l-14.849-64.035l-68.215,90.838L1845.923,950.027z"/>
	<path fill="#E3E8F5" stroke="#E3E8F5" d="M1762.859,976.83l68.215-90.838l-91.944-23.219L1762.859,976.83z"/>
	<path fill="#E0E7F4" stroke="#E0E7F4" d="M1762.859,976.83l-23.729-114.057l-57.062,25.864L1762.859,976.83z"/>
	<path fill="#E2E8F4" stroke="#E2E8F4" d="M1762.859,976.83l-80.791-88.191l-5.177,73.986L1762.859,976.83z"/>
	<path fill="#DEE5F3" stroke="#DEE5F3" d="M1676.893,962.625l5.177-73.986l-80.07,29.811L1676.893,962.625z"/>
	<path fill="#D9E3F2" stroke="#D9E3F2" d="M1601.998,918.448l80.07-29.811l-116.992-3.277L1601.998,918.448z"/>
	<path fill="#D8E2F1" stroke="#D8E2F1" d="M1601.998,918.448l-36.922-33.088l-76.217,90.818L1601.998,918.448z"/>
	<path fill="#D5E0F0" stroke="#D5E0F0" d="M1488.859,976.18l76.217-90.818l-100.988-5.239L1488.859,976.18z"/>
	<path fill="#D4DFEF" stroke="#D4DFEF" d="M1488.859,976.18l-24.771-96.059l-31.125,52.926L1488.859,976.18z"/>
	<path fill="#CEDCEF" stroke="#CEDCEF" d="M1432.963,933.047l31.125-52.926l-90.939-25.217L1432.963,933.047z"/>
	<path fill="#CCDBEE" stroke="#CCDBEE" d="M1432.963,933.047l-59.814-78.143l-90.159,66.787L1432.963,933.047z"/>
	<path fill="#C6D8ED" stroke="#C6D8ED" d="M1282.988,921.691l90.158-66.787l-85.003,0.799L1282.988,921.691z"/>
	<path fill="#C1D5EC" stroke="#C1D5EC" d="M1282.988,921.691l5.156-65.988l-48.934-28.117L1282.988,921.691z"/>
	<path fill="#C0D6EB" stroke="#C0D6EB" d="M1282.988,921.691l-43.776-94.105l-38.263,110.91L1282.988,921.691z"/>
	<path fill="#BAD3EA" stroke="#BAD3EA" d="M1200.949,938.496l38.263-110.91l-98.073,30.768L1200.949,938.496z"/>
	<path fill="#BBD4E9" stroke="#BBD4E9" d="M1200.949,938.496l-59.812-80.144l8.729,114.021L1200.949,938.496z"/>
	<path fill="#B7D2E8" stroke="#B7D2E8" d="M1149.867,972.375l-8.729-114.021l-108.221,92.744L1149.867,972.375z"/>
	<path fill="#AFCFE7" stroke="#AFCFE7" d="M1032.918,951.098l108.221-92.744l-107.007,2.746L1032.918,951.098z"/>
	<path fill="#ACCEE6" stroke="#ACCEE6" d="M1032.918,951.098l1.214-89.998l-54.14,58.872L1032.918,951.098z"/>
	<path fill="#A6CBE5" stroke="#A6CBE5" d="M979.992,919.972l54.14-58.872l-94.942-24.225L979.992,919.972z"/>
	<path fill="#A1C9E4" stroke="#A1C9E4" d="M979.992,919.972l-40.803-83.097l-73.086,35.826L979.992,919.972z"/>
	<path fill="#A0C9E3" stroke="#A0C9E3" d="M979.992,919.972l-113.889-47.271l-20.129,53.952L979.992,919.972z"/>
	<path fill="#9AC6E2" stroke="#9AC6E2" d="M845.976,926.653l20.128-53.952l-66.014,5.844L845.976,926.653z"/>
	<path fill="#9AC7E1" stroke="#9AC7E1" d="M845.976,926.653l-45.886-48.108l0.764,100.002L845.976,926.653z"/>
	<path fill="#95C5E0" stroke="#95C5E0" d="M800.854,978.547l-0.764-100.002l-113.124,51.731L800.854,978.547z"/>
	<path fill="#8EC2DF" stroke="#8EC2DF" d="M686.966,930.276l113.124-51.731l-149.024,10.646L686.966,930.276z"/>
	<path fill="#8AC0DE" stroke="#8AC0DE" d="M686.966,930.276l-35.9-41.085l-39.116,48.905L686.966,930.276z"/>
	<path fill="#85BEDD" stroke="#85BEDD" d="M611.948,938.098l39.116-48.905l-39.937-27.097L611.948,938.098z"/>
	<path fill="#80BCDC" stroke="#80BCDC" d="M611.948,938.098l-0.819-76.002l-109.013,4.741L611.948,938.098z"/>
	<path fill="#7EBCDB" stroke="#7EBCDB" d="M611.948,938.098l-109.832-71.261l-13.161,67.97L611.948,938.098z"/>
	<path fill="#76B7DA" stroke="#76B7DA" d="M488.955,934.807l13.161-67.97l-75.914-36.181L488.955,934.807z"/>
	<path fill="#79B8D9" stroke="#79B8D9" d="M488.955,934.807l-62.753-104.149l-14.313,131.967L488.955,934.807z"/>
	<path fill="#76B4D7" stroke="#76B4D7" d="M411.889,962.623l14.313-131.967l-125.009,3.703L411.889,962.623z"/>
	<path fill="#79B4D6" stroke="#79B4D6" d="M411.889,962.623L301.193,834.359l-9.284,119.979L411.889,962.623z"/>
	<path fill="#77B1D5" stroke="#77B1D5" d="M291.909,954.338l9.284-119.979l-61.123,51.854L291.909,954.338z"/>
	<path fill="#7AB2D5" stroke="#7AB2D5" d="M291.909,954.338l-51.839-68.123l-5.091,37.988L291.909,954.338z"/>
	<path fill="#77AED4" stroke="#77AED4" d="M234.979,924.203l5.091-37.988l-86.96-17.206L234.979,924.203z"/>
	<path fill="#79AED3" stroke="#79AED3" d="M234.979,924.203l-81.869-55.194l-7.192,80.983L234.979,924.203z"/>
	<path fill="#7AADD2" stroke="#7AADD2" d="M145.918,949.992l7.192-80.983l-72.199,83.829L145.918,949.992z"/>
	<path fill="#77A9D1" stroke="#77A9D1" d="M80.911,952.838l72.199-83.829l-98.93-29.235L80.911,952.838z"/>
	<path fill="#7AA9D0" stroke="#7AA9D0" d="M80.911,952.838L54.18,839.773l-91.315,132.782L80.911,952.838z"/>
	<path fill="#76A6CF" stroke="#76A6CF" d="M-37.136,972.557L54.18,839.773l-77.959-17.187L-37.136,972.557z"/>
	<path fill="#74A3CE" stroke="#74A3CE" d="M-37.136,972.557l13.356-149.969l-23.862-58.056L-37.136,972.557z"/>
	<path fill="#E9EDF9" stroke="#E9EDF9" d="M2021.148,855.442l23.127-53.945l-82.11,46.806L2021.148,855.442z"/>
	<path fill="#E5EBF9" stroke="#E5EBF9" d="M1962.165,848.303l82.11-46.806l-89.941-24.214L1962.165,848.303z"/>
	<path fill="#E1E8F7" stroke="#E1E8F7" d="M1962.165,848.303l-7.831-71.02l-127.991-4.303L1962.165,848.303z"/>
	<path fill="#E2E8F7" stroke="#E2E8F7" d="M1962.165,848.303l-135.822-75.322l4.731,113.013L1962.165,848.303z"/>
	<path fill="#DCE5F6" stroke="#DCE5F6" d="M1831.074,885.992l-4.731-113.012l-69.044,18.836L1831.074,885.992z"/>
	<path fill="#DDE5F5" stroke="#DDE5F5" d="M1831.074,885.992l-73.775-94.176l-18.169,70.957L1831.074,885.992z"/>
	<path fill="#D7E2F4" stroke="#D7E2F4" d="M1739.13,862.773l18.169-70.957l-58.937-27.142L1739.13,862.773z"/>
	<path fill="#D9E3F4" stroke="#D9E3F4" d="M1739.13,862.773l-40.768-98.099l-16.294,123.963L1739.13,862.773z"/>
	<path fill="#D4E0F3" stroke="#D4E0F3" d="M1682.068,888.639l16.294-123.963l-110.035,14.739L1682.068,888.639z"/>
	<path fill="#D5E1F2" stroke="#D5E1F2" d="M1682.068,888.639l-93.741-109.224l-23.251,105.945L1682.068,888.639z"/>
	<path fill="#D0DEF1" stroke="#D0DEF1" d="M1565.076,885.36l23.251-105.945l-124.239,100.706L1565.076,885.36z"/>
	<path fill="#CBDBF0" stroke="#CBDBF0" d="M1464.088,880.121l124.239-100.706l-121.945-23.29L1464.088,880.121z"/>
	<path fill="#C9DAEF" stroke="#C9DAEF" d="M1464.088,880.121l2.294-123.996l-93.233,98.779L1464.088,880.121z"/>
	<path fill="#C4D7EE" stroke="#C4D7EE" d="M1373.146,854.904l93.234-98.779l-98.05,20.768L1373.146,854.904z"/>
	<path fill="#C3D6ED" stroke="#C3D6ED" d="M1373.146,854.904l-4.814-78.013l-55.023,9.869L1373.146,854.904z"/>
	<path fill="#C3D6ED" stroke="#C3D6ED" d="M1373.146,854.904l-59.839-68.144l-25.163,68.941L1373.146,854.904z"/>
	<path fill="#BED4EC" stroke="#BED4EC" d="M1288.145,855.703l25.164-68.941l-74.097,40.824L1288.145,855.703z"/>
	<path fill="#B8D1EB" stroke="#B8D1EB" d="M1239.212,827.586l74.097-40.824l-127.014,5.699L1239.212,827.586z"/>
	<path fill="#B5D1EA" stroke="#B5D1EA" d="M1239.212,827.586l-52.917-35.125l-45.156,65.893L1239.212,827.586z"/>
	<path fill="#AFCEE9" stroke="#AFCEE9" d="M1141.139,858.354l45.156-65.893l-70.952-20.169L1141.139,858.354z"/>
	<path fill="#ACCDE8" stroke="#ACCDE8" d="M1141.139,858.354l-25.796-86.062l-81.211,88.808L1141.139,858.354z"/>
	<path fill="#A7CBE7" stroke="#A7CBE7" d="M1034.132,861.1l81.211-88.808l-97.032,13.771L1034.132,861.1z"/>
	<path fill="#A3C9E5" stroke="#A3C9E5" d="M1034.132,861.1l-15.821-75.037l-79.121,50.812L1034.132,861.1z"/>
	<path fill="#9EC7E5" stroke="#9EC7E5" d="M939.189,836.875l79.121-50.812L950.349,769.9L939.189,836.875z"/>
	<path fill="#99C5E4" stroke="#99C5E4" d="M939.189,836.875l11.158-66.975l-86.035,14.796L939.189,836.875z"/>
	<path fill="#99C5E3" stroke="#99C5E3" d="M939.189,836.875l-74.877-52.179l1.791,88.005L939.189,836.875z"/>
	<path fill="#96C4E2" stroke="#96C4E2" d="M866.104,872.701l-1.791-88.005l-64.223,93.849L866.104,872.701z"/>
	<path fill="#90C2E1" stroke="#90C2E1" d="M800.09,878.545l64.224-93.849l-96.013,4.771L800.09,878.545z"/>
	<path fill="#8CC1E0" stroke="#8CC1E0" d="M800.09,878.545l-31.789-89.076l-117.235,99.724L800.09,878.545z"/>
	<path fill="#86BEDF" stroke="#86BEDF" d="M651.064,889.191L768.3,789.468l-107.021,8.746L651.064,889.191z"/>
	<path fill="#83BDDD" stroke="#83BDDD" d="M651.064,889.191l10.216-90.978l-50.151,63.881L651.064,889.191z"/>
	<path fill="#7DBADD" stroke="#7DBADD" d="M611.129,862.096l50.151-63.881L617.43,735.11L611.129,862.096z"/>
	<path fill="#76B7DC" stroke="#76B7DC" d="M611.129,862.096l6.301-126.984l-137.062,25.675L611.129,862.096z"/>
	<path fill="#77B8DB" stroke="#77B8DB" d="M611.129,862.096L480.368,760.785l21.748,106.052L611.129,862.096z"/>
	<path fill="#71B5D9" stroke="#71B5D9" d="M502.116,866.837l-21.748-106.052l-54.166,69.871L502.116,866.837z"/>
	<path fill="#6EB2D9" stroke="#6EB2D9" d="M426.202,830.656l54.166-69.871l-75.018,6.822L426.202,830.656z"/>
	<path fill="#6EB0D8" stroke="#6EB0D8" d="M426.202,830.656l-20.852-63.049l-77-0.185L426.202,830.656z"/>
	<path fill="#70B0D7" stroke="#70B0D7" d="M426.202,830.656l-97.852-63.232l-27.158,66.937L426.202,830.656z"/>
	<path fill="#6FADD5" stroke="#6FADD5" d="M301.193,834.359l27.158-66.937l-73.062,26.826L301.193,834.359z"/>
	<path fill="#72AED5" stroke="#72AED5" d="M301.193,834.359l-45.905-40.109l-15.218,91.965L301.193,834.359z"/>
	<path fill="#73ADD4" stroke="#73ADD4" d="M240.07,886.215l15.218-91.965L153.11,869.009L240.07,886.215z"/>
	<path fill="#6FA9D3" stroke="#6FA9D3" d="M153.11,869.009l102.178-74.759l-110.902-41.262L153.11,869.009z"/>
	<path fill="#71A7D1" stroke="#71A7D1" d="M153.11,869.009l-8.725-116.021L54.18,839.773L153.11,869.009z"/>
	<path fill="#6DA4D1" stroke="#6DA4D1" d="M54.18,839.773l90.206-86.785l-85.955-19.205L54.18,839.773z"/>
	<path fill="#6FA3CF" stroke="#6FA3CF" d="M54.18,839.773l4.251-105.99l-82.21,88.805L54.18,839.773z"/>
	<path fill="#6DA1CF" stroke="#6DA1CF" d="M-23.779,822.588l82.21-88.805l-106.072,30.749L-23.779,822.588z"/>
	<path fill="#C4DCF5" stroke="#C4DCF5" d="M2044.275,801.497l14.942-396.965l-24.198,83.941L2044.275,801.497z"/>
	<path fill="#D7E4F9" stroke="#D7E4F9" d="M2044.275,801.497l-9.256-313.022l-18.438,183.957L2044.275,801.497z"/>
	<path fill="#E1E8F9" stroke="#E1E8F9" d="M2044.275,801.497l-27.693-129.065l-62.248,104.853L2044.275,801.497z"/>
	<path fill="#DCE6F8" stroke="#DCE6F8" d="M1954.334,777.283l62.248-104.853l-98.045,18.769L1954.334,777.283z"/>
	<path fill="#DBE5F7" stroke="#DBE5F7" d="M1954.334,777.283l-35.797-86.084l-92.194,81.781L1954.334,777.283z"/>
	<path fill="#D6E2F7" stroke="#D6E2F7" d="M1826.343,772.98l92.194-81.781l-76.937-27.185L1826.343,772.98z"/>
	<path fill="#D3E0F6" stroke="#D3E0F6" d="M1826.343,772.98l15.259-108.966l-49.996-1.118L1826.343,772.98z"/>
	<path fill="#D5E1F5" stroke="#D5E1F5" d="M1826.343,772.98l-34.737-110.084l-34.307,128.92L1826.343,772.98z"/>
	<path fill="#D2E0F5" stroke="#D2E0F5" d="M1757.299,791.816l34.307-128.92l-93.242,101.778L1757.299,791.816z"/>
	<path fill="#CEDDF4" stroke="#CEDDF4" d="M1698.362,764.676l93.241-101.778l-102.065,27.759L1698.362,764.676z"/>
	<path fill="#CEDDF3" stroke="#CEDDF3" d="M1698.362,764.676l-8.824-74.021l-101.211,88.76L1698.362,764.676z"/>
	<path fill="#C9DBF2" stroke="#C9DBF2" d="M1588.327,779.415l101.211-88.76l-131.021,8.688L1588.327,779.415z"/>
	<path fill="#C7D9F1" stroke="#C7D9F1" d="M1588.327,779.415l-29.811-80.071l-92.136,56.781L1588.327,779.415z"/>
	<path fill="#C2D6F0" stroke="#C2D6F0" d="M1466.382,756.125l92.136-56.781l-53.882-50.128L1466.382,756.125z"/>
	<path fill="#BED4EF" stroke="#BED4EF" d="M1466.382,756.125l38.254-106.909l-136.097,40.677L1466.382,756.125z"/>
	<path fill="#BFD5EE" stroke="#BFD5EE" d="M1466.382,756.125l-97.843-66.232l-0.207,87L1466.382,756.125z"/>
	<path fill="#BBD1ED" stroke="#BBD1ED" d="M1368.332,776.893l0.207-87l-52.983-7.125L1368.332,776.893z"/>
	<path fill="#BCD2ED" stroke="#BCD2ED" d="M1368.332,776.893l-52.776-94.125l-2.247,103.994L1368.332,776.893z"/>
	<path fill="#B4CFEC" stroke="#B4CFEC" d="M1313.309,786.762l2.247-103.994l-72.926-31.174L1313.309,786.762z"/>
	<path fill="#B3CFEB" stroke="#B3CFEB" d="M1313.309,786.762l-70.679-135.168l-56.335,140.867L1313.309,786.762z"/>
	<path fill="#AACBEA" stroke="#AACBEA" d="M1186.295,792.461l56.335-140.867l-82.983-7.197L1186.295,792.461z"/>
	<path fill="#AACBE9" stroke="#AACBE9" d="M1186.295,792.461l-26.647-148.064l-44.305,127.896L1186.295,792.461z"/>
	<path fill="#A1C7E8" stroke="#A1C7E8" d="M1115.343,772.292l44.304-127.896l-126.043,17.7L1115.343,772.292z"/>
	<path fill="#A1C8E7" stroke="#A1C8E7" d="M1115.343,772.292l-81.739-110.194l-15.293,123.965L1115.343,772.292z"/>
	<path fill="#9AC4E6" stroke="#9AC4E6" d="M1018.311,786.062l15.293-123.966l-74.079,33.824L1018.311,786.062z"/>
	<path fill="#9AC5E5" stroke="#9AC5E5" d="M1018.311,786.062l-58.786-90.142l-9.176,73.979L1018.311,786.062z"/>
	<path fill="#92C1E4" stroke="#92C1E4" d="M950.349,769.9l9.176-73.979l-95.952-20.228L950.349,769.9z"/>
	<path fill="#91C1E3" stroke="#91C1E3" d="M950.349,769.9l-86.776-94.206l0.741,109.002L950.349,769.9z"/>
	<path fill="#89BEE2" stroke="#89BEE2" d="M864.312,784.696l-0.741-109.002l-94.011,3.775L864.312,784.696z"/>
	<path fill="#89BEE1" stroke="#89BEE1" d="M864.312,784.696L769.561,679.47L768.3,789.468L864.312,784.696z"/>
	<path fill="#81BBE0" stroke="#81BBE0" d="M768.301,789.469l1.262-109.998l-90.03,12.787L768.301,789.469z"/>
	<path fill="#81BBDF" stroke="#81BBDF" d="M768.301,789.469l-88.77-97.211L661.28,798.215L768.301,789.469z"/>
	<path fill="#7AB8DE" stroke="#7AB8DE" d="M661.28,798.215l18.251-105.957L617.43,735.11L661.28,798.215z"/>
	<path fill="#74B5DD" stroke="#74B5DD" d="M617.43,735.11l62.103-42.854l-81.891-46.195L617.43,735.11z"/>
	<path fill="#6FB4DC" stroke="#6FB4DC" d="M617.43,735.11l-19.788-89.048l-71.149,62.832L617.43,735.11z"/>
	<path fill="#6FB4DB" stroke="#6FB4DB" d="M617.43,735.11l-90.938-26.217l-46.123,51.892L617.43,735.11z"/>
	<path fill="#68B1DA" stroke="#68B1DA" d="M480.368,760.785l46.123-51.892l-84.987-5.2L480.368,760.785z"/>
	<path fill="#6AB0D9" stroke="#6AB0D9" d="M480.368,760.785l-38.864-57.092l-36.152,63.914L480.368,760.785z"/>
	<path fill="#67ADD8" stroke="#67ADD8" d="M405.352,767.607l36.152-63.914l-119.881-50.285L405.352,767.607z"/>
	<path fill="#69ACD7" stroke="#69ACD7" d="M405.352,767.607l-83.729-114.199l6.729,114.016L405.352,767.607z"/>
	<path fill="#66A9D6" stroke="#66A9D6" d="M328.352,767.424l-6.729-114.016l-73.098,40.826L328.352,767.424z"/>
	<path fill="#6BAAD5" stroke="#6BAAD5" d="M328.352,767.424l-79.826-73.188l6.763,100.016L328.352,767.424z"/>
	<path fill="#6AA8D4" stroke="#6AA8D4" d="M255.288,794.25l-6.763-100.016l-104.14,58.754L255.288,794.25z"/>
	<path fill="#67A4D3" stroke="#67A4D3" d="M144.386,752.988l104.14-58.754l-100.94-25.24L144.386,752.988z"/>
	<path fill="#68A3D1" stroke="#68A3D1" d="M144.386,752.988l3.199-83.994l-89.154,64.789L144.386,752.988z"/>
	<path fill="#65A0D1" stroke="#65A0D1" d="M58.431,733.783l89.154-64.789L26.59,666.707L58.431,733.783z"/>
	<path fill="#669ECF" stroke="#669ECF" d="M58.431,733.783L26.59,666.707l-73.044,18.827L58.431,733.783z"/>
	<path fill="#699ECF" stroke="#699ECF" d="M58.431,733.783l-104.885-48.249l-1.188,78.998L58.431,733.783z"/>
	<path fill="#C8DEF6" stroke="#C8DEF6" d="M2016.582,672.432l18.438-183.957l-24.267,111.942L2016.582,672.432z"/>
	<path fill="#CFE0F7" stroke="#CFE0F7" d="M2016.582,672.432l-5.829-72.015l-102.028,11.758L2016.582,672.432z"/>
	<path fill="#D4E2F8" stroke="#D4E2F8" d="M2016.582,672.432l-107.857-60.257l9.812,79.024L2016.582,672.432z"/>
	<path fill="#D0E0F7" stroke="#D0E0F7" d="M1918.537,691.199l-9.812-79.024l-67.123,51.841L1918.537,691.199z"/>
	<path fill="#C8DCF5" stroke="#C8DCF5" d="M1841.602,664.016l67.123-51.841l-38.964-15.092L1841.602,664.016z"/>
	<path fill="#CADCF5" stroke="#CADCF5" d="M1841.602,664.016l28.159-66.933l-78.155,65.813L1841.602,664.016z"/>
	<path fill="#C4DAF3" stroke="#C4DAF3" d="M1791.604,662.896l78.156-65.813l-139.044,18.669L1791.604,662.896z"/>
	<path fill="#C8DBF4" stroke="#C8DBF4" d="M1791.604,662.896l-60.888-47.146l-41.179,74.903L1791.604,662.896z"/>
	<path fill="#BED6F1" stroke="#BED6F1" d="M1689.538,690.655l41.179-74.903l-73.87-55.175L1689.538,690.655z"/>
	<path fill="#B9D4F0" stroke="#B9D4F0" d="M1689.538,690.655l-32.691-130.078l-57.05,20.864L1689.538,690.655z"/>
	<path fill="#C2D7F2" stroke="#C2D7F2" d="M1689.538,690.655l-89.741-109.214l-41.279,117.901L1689.538,690.655z"/>
	<path fill="#BBD4F0" stroke="#BBD4F0" d="M1558.518,699.344l41.279-117.901l-95.161,67.773L1558.518,699.344z"/>
	<path fill="#B3D0EE" stroke="#B3D0EE" d="M1504.636,649.216l95.161-67.773l-114.066,27.729L1504.636,649.216z"/>
	<path fill="#B7D1EE" stroke="#B7D1EE" d="M1504.636,649.216l-18.905-40.045l-117.19,80.722L1504.636,649.216z"/>
	<path fill="#B1CEED" stroke="#B1CEED" d="M1368.539,689.893l117.191-80.722l-106.977-10.254L1368.539,689.893z"/>
	<path fill="#B4CEED" stroke="#B4CEED" d="M1368.539,689.893l10.216-90.976l-63.199,83.851L1368.539,689.893z"/>
	<path fill="#AACAEB" stroke="#AACAEB" d="M1315.556,682.768l63.199-83.851l-36.929-30.087L1315.556,682.768z"/>
	<path fill="#A9CAEB" stroke="#A9CAEB" d="M1315.556,682.768l26.271-113.938l-99.196,82.764L1315.556,682.768z"/>
	<path fill="#9BC4E8" stroke="#9BC4E8" d="M1242.63,651.594l99.196-82.764l-93.879-51.224L1242.63,651.594z"/>
	<path fill="#98C3E7" stroke="#98C3E7" d="M1242.63,651.594l5.317-133.986l-53.189,79.874L1242.63,651.594z"/>
	<path fill="#9FC6E8" stroke="#9FC6E8" d="M1242.63,651.594l-47.872-54.112l-35.11,46.916L1242.63,651.594z"/>
	<path fill="#95C2E6" stroke="#95C2E6" d="M1159.646,644.396l35.11-46.916l-46.901-41.111L1159.646,644.396z"/>
	<path fill="#8FC0E5" stroke="#8FC0E5" d="M1159.646,644.396l-11.791-88.027l-84.053,21.801L1159.646,644.396z"/>
	<path fill="#94C1E5" stroke="#94C1E5" d="M1159.646,644.396l-95.844-66.228l-30.199,83.928L1159.646,644.396z"/>
	<path fill="#8ABEE4" stroke="#8ABEE4" d="M1033.604,662.098l30.2-83.928l-86.027,11.795L1033.604,662.098z"/>
	<path fill="#8FC0E4" stroke="#8FC0E4" d="M1033.604,662.098l-55.827-72.133l-18.252,105.957L1033.604,662.098z"/>
	<path fill="#8BBEE3" stroke="#8BBEE3" d="M959.523,695.922l18.252-105.957l-114.204,85.729L959.523,695.922z"/>
	<path fill="#80BAE1" stroke="#80BAE1" d="M863.571,675.694l114.204-85.729l-123.028,11.708L863.571,675.694z"/>
	<path fill="#81BAE1" stroke="#81BAE1" d="M863.571,675.694l-8.824-74.021l-85.187,77.798L863.571,675.694z"/>
	<path fill="#78B7DF" stroke="#78B7DF" d="M769.562,679.471l85.186-77.798l-66.972-12.158L769.562,679.471z"/>
	<path fill="#73B4DE" stroke="#73B4DE" d="M769.562,679.471l18.214-89.956l-105.051,20.75L769.562,679.471z"/>
	<path fill="#77B6DE" stroke="#77B6DE" d="M769.562,679.471l-86.837-69.206l-3.193,81.993L769.562,679.471z"/>
	<path fill="#6DB3DC" stroke="#6DB3DC" d="M679.531,692.258l3.193-81.993l-65.011,4.847L679.531,692.258z"/>
	<path fill="#6EB2DC" stroke="#6EB2DC" d="M679.531,692.258l-61.816-77.146l-20.073,30.951L679.531,692.258z"/>
	<path fill="#62AEDA" stroke="#62AEDA" d="M597.642,646.062l20.073-30.952l-105.984-6.251L597.642,646.062z"/>
	<path fill="#66AFDB" stroke="#66AFDB" d="M597.642,646.062l-85.911-37.203l14.762,100.035L597.642,646.062z"/>
	<path fill="#65AFDA" stroke="#65AFDA" d="M526.491,708.895L511.729,608.86l-70.227,94.834L526.491,708.895z"/>
	<path fill="#5CAAD7" stroke="#5CAAD7" d="M441.504,703.693l70.227-94.834l-131.966-15.313L441.504,703.693z"/>
	<path fill="#5CA8D6" stroke="#5CA8D6" d="M441.504,703.693l-61.739-110.147l-34.038,15.919L441.504,703.693z"/>
	<path fill="#60A9D7" stroke="#60A9D7" d="M441.504,703.693l-95.777-94.229l-24.104,43.943L441.504,703.693z"/>
	<path fill="#55A1D2" stroke="#55A1D2" d="M321.623,653.408l24.104-43.943l-133.857-59.316L321.623,653.408z"/>
	<path fill="#5BA2D3" stroke="#5BA2D3" d="M321.623,653.408L211.868,550.146l36.657,144.088L321.623,653.408z"/>
	<path fill="#5CA1D2" stroke="#5CA1D2" d="M248.525,694.234l-36.657-144.088l-64.283,118.848L248.525,694.234z"/>
	<path fill="#519BCF" stroke="#519BCF" d="M147.585,668.994l64.283-118.847l-83.005,1.803L147.585,668.994z"/>
	<path fill="#529ACE" stroke="#529ACE" d="M147.585,668.994L128.863,551.95l-73.029,11.827L147.585,668.994z"/>
	<path fill="#5B9CCF" stroke="#5B9CCF" d="M147.585,668.994L55.834,563.777L26.59,666.707L147.585,668.994z"/>
	<path fill="#5798CD" stroke="#5798CD" d="M26.59,666.707l29.244-102.93l-81.119,50.807L26.59,666.707z"/>
	<path fill="#609ACE" stroke="#609ACE" d="M26.59,666.707l-51.875-52.123l-21.169,70.95L26.59,666.707z"/>
	<path fill="#5595CB" stroke="#5595CB" d="M-46.454,685.534l21.169-70.95l-12.763-100.03L-46.454,685.534z"/>
	<path fill="#3587C5" stroke="#3587C5" d="M-46.454,685.534l8.406-170.98l-19.245-318.047L-46.454,685.534z"/>
	<path fill="#BAD8F3" stroke="#BAD8F3" d="M2010.753,600.417l24.267-111.942l-91.06,24.784L2010.753,600.417z"/>
	<path fill="#C1DAF4" stroke="#C1DAF4" d="M2010.753,600.417l-66.793-87.158l-35.235,98.916L2010.753,600.417z"/>
	<path fill="#B9D7F2" stroke="#B9D7F2" d="M1908.725,612.175l35.235-98.916l-68.022,9.838L1908.725,612.175z"/>
	<path fill="#BED8F3" stroke="#BED8F3" d="M1908.725,612.175l-32.787-89.078l-6.177,73.986L1908.725,612.175z"/>
	<path fill="#B3D4F1" stroke="#B3D4F1" d="M1869.761,597.083l6.177-73.986l-95.961-17.227L1869.761,597.083z"/>
	<path fill="#B8D5F1" stroke="#B8D5F1" d="M1869.761,597.083l-89.784-91.213l-49.26,109.882L1869.761,597.083z"/>
	<path fill="#B1D2EF" stroke="#B1D2EF" d="M1730.717,615.752l49.26-109.882l-123.13,54.707L1730.717,615.752z"/>
	<path fill="#A6CDED" stroke="#A6CDED" d="M1656.847,560.577l123.13-54.707l-102.95-20.245L1656.847,560.577z"/>
	<path fill="#A1CAEB" stroke="#A1CAEB" d="M1656.847,560.577l20.18-74.952l-72.964-16.173L1656.847,560.577z"/>
	<path fill="#A6CCEC" stroke="#A6CCEC" d="M1656.847,560.577l-52.784-91.125l-4.266,111.989L1656.847,560.577z"/>
	<path fill="#9EC8EA" stroke="#9EC8EA" d="M1599.797,581.441l4.266-111.989l-142.071,30.663L1599.797,581.441z"/>
	<path fill="#A7CBEC" stroke="#A7CBEC" d="M1599.797,581.441l-137.807-81.326l23.74,109.056L1599.797,581.441z"/>
	<path fill="#A4C9EA" stroke="#A4C9EA" d="M1485.73,609.171l-23.74-109.056l-83.235,98.802L1485.73,609.171z"/>
	<path fill="#9AC5E8" stroke="#9AC5E8" d="M1378.755,598.917l83.235-98.802l-64.012,4.848L1378.755,598.917z"/>
	<path fill="#9EC6E9" stroke="#9EC6E9" d="M1378.755,598.917l19.224-93.954l-56.151,63.867L1378.755,598.917z"/>
	<path fill="#96C3E7" stroke="#96C3E7" d="M1341.826,568.83l56.152-63.867l-70.026,10.833L1341.826,568.83z"/>
	<path fill="#93C1E6" stroke="#93C1E6" d="M1341.826,568.83l-13.874-53.034l-80.005,1.812L1341.826,568.83z"/>
	<path fill="#8EBFE5" stroke="#8EBFE5" d="M1194.758,597.48l53.189-79.875l-100.092,38.764L1194.758,597.48z"/>
	<path fill="#83BBE3" stroke="#83BBE3" d="M1147.855,556.369l100.092-38.763l-141.92-33.338L1147.855,556.369z"/>
	<path fill="#7DB9E1" stroke="#7DB9E1" d="M1147.855,556.369l-41.828-72.101l-38.102,41.909L1147.855,556.369z"/>
	<path fill="#83BBE3" stroke="#83BBE3" d="M1147.855,556.369l-79.93-30.19l-4.123,51.991L1147.855,556.369z"/>
	<path fill="#81BAE2" stroke="#81BAE2" d="M1063.804,578.17l4.123-51.991l-90.15,63.786L1063.804,578.17z"/>
	<path fill="#79B7E0" stroke="#79B7E0" d="M977.775,589.965l90.15-63.786l-120.002,0.716L977.775,589.965z"/>
	<path fill="#78B6E0" stroke="#78B6E0" d="M977.775,589.965l-29.852-63.07l-93.178,74.778L977.775,589.965z"/>
	<path fill="#6CB2DD" stroke="#6CB2DD" d="M854.747,601.673l93.178-74.778l-56.884-49.135L854.747,601.673z"/>
	<path fill="#6CB2DD" stroke="#6CB2DD" d="M854.747,601.673l36.294-123.913L787.775,589.515L854.747,601.673z"/>
	<path fill="#60ADDB" stroke="#60ADDB" d="M787.775,589.515L891.041,477.76l-125.004,1.703L787.775,589.515z"/>
	<path fill="#64AEDB" stroke="#64AEDB" d="M787.775,589.515l-21.738-110.052l-83.312,130.802L787.775,589.515z"/>
	<path fill="#57AAD8" stroke="#57AAD8" d="M682.726,610.265l83.312-130.802l-118.023,9.72L682.726,610.265z"/>
	<path fill="#5DACD9" stroke="#5DACD9" d="M682.726,610.265l-34.712-121.082L617.715,615.11L682.726,610.265z"/>
	<path fill="#51A7D7" stroke="#51A7D7" d="M617.715,615.11l30.299-125.929l-37.972-12.09L617.715,615.11z"/>
	<path fill="#4DA5D6" stroke="#4DA5D6" d="M617.715,615.11l-7.673-138.019l-84.033,13.801L617.715,615.11z"/>
	<path fill="#54A8D7" stroke="#54A8D7" d="M617.715,615.11l-91.706-124.218L511.73,608.859L617.715,615.11z"/>
	<path fill="#47A3D4" stroke="#47A3D4" d="M511.729,608.859l14.279-117.967l-95.09,37.773L511.729,608.859z"/>
	<path fill="#4EA4D5" stroke="#4EA4D5" d="M511.729,608.859l-80.811-80.192l-51.154,64.879L511.729,608.859z"/>
	<path fill="#449ED1" stroke="#449ED1" d="M379.765,593.546l51.154-64.879l-122.88-50.291L379.765,593.546z"/>
	<path fill="#4A9FD2" stroke="#4A9FD2" d="M379.765,593.546l-71.726-115.17l37.688,131.089L379.765,593.546z"/>
	<path fill="#479CD0" stroke="#479CD0" d="M345.727,609.465l-37.688-131.089l-96.171,71.771L345.727,609.465z"/>
	<path fill="#3E97CD" stroke="#3E97CD" d="M211.868,550.146l96.171-71.771l-88.038,15.791L211.868,550.146z"/>
	<path fill="#4196CD" stroke="#4196CD" d="M211.868,550.146l8.133-55.979l-73.038,15.826L211.868,550.146z"/>
	<path fill="#4596CD" stroke="#4596CD" d="M211.868,550.146l-64.905-40.153l-18.1,41.957L211.868,550.146z"/>
	<path fill="#4293CB" stroke="#4293CB" d="M128.863,551.95l18.1-41.957L31.96,510.72L128.863,551.95z"/>
	<path fill="#4693CB" stroke="#4693CB" d="M128.863,551.95L31.96,510.72l23.874,53.059L128.863,551.95z"/>
	<path fill="#4490C9" stroke="#4490C9" d="M55.834,563.777L31.96,510.72l-70.008,3.834L55.834,563.777z"/>
	<path fill="#4B92CA" stroke="#4B92CA" d="M55.834,563.777l-93.882-49.225l12.763,100.03L55.834,563.777z"/>
	<path fill="#A6D0EF" stroke="#A6D0EF" d="M2035.02,488.475l24.199-83.941l-123.072,30.708L2035.02,488.475z"/>
	<path fill="#ACD2F0" stroke="#ACD2F0" d="M2035.02,488.475l-98.873-53.233l7.813,78.019L2035.02,488.475z"/>
	<path fill="#ACD2F0" stroke="#ACD2F0" d="M1943.96,513.259l-7.813-78.019l-60.209,87.855L1943.96,513.259z"/>
	<path fill="#A3CEEE" stroke="#A3CEEE" d="M1875.938,523.097l60.209-87.855l-120.998-1.287L1875.938,523.097z"/>
	<path fill="#A6CEEE" stroke="#A6CEEE" d="M1875.938,523.097l-60.789-89.144l-35.172,71.917L1875.938,523.097z"/>
	<path fill="#9BC9EB" stroke="#9BC9EB" d="M1779.977,505.87l35.172-71.917l-59.919-34.144L1779.977,505.87z"/>
	<path fill="#9CC9EB" stroke="#9CC9EB" d="M1779.977,505.87l-24.748-106.061l-78.202,85.814L1779.977,505.87z"/>
	<path fill="#95C6E9" stroke="#95C6E9" d="M1677.025,485.625l78.203-85.814l-117.103,42.723L1677.025,485.625z"/>
	<path fill="#97C6EA" stroke="#97C6EA" d="M1677.025,485.625l-38.898-43.093l-34.063,26.92L1677.025,485.625z"/>
	<path fill="#91C4E8" stroke="#91C4E8" d="M1604.062,469.452l34.063-26.92l-26.957-18.063L1604.062,469.452z"/>
	<path fill="#89C0E6" stroke="#89C0E6" d="M1604.062,469.452l7.106-44.983l-121.889-47.29L1604.062,469.452z"/>
	<path fill="#8DC1E7" stroke="#8DC1E7" d="M1604.062,469.452l-114.781-92.273l-27.291,122.937L1604.062,469.452z"/>
	<path fill="#82BCE4" stroke="#82BCE4" d="M1461.99,500.115l27.291-122.938l-83.999-0.199L1461.99,500.115z"/>
	<path fill="#8ABFE6" stroke="#8ABFE6" d="M1461.99,500.115l-56.708-123.136l-7.304,127.983L1461.99,500.115z"/>
	<path fill="#89BEE5" stroke="#89BEE5" d="M1397.979,504.963l7.305-127.983l-77.33,138.816L1397.979,504.963z"/>
	<path fill="#7DB9E2" stroke="#7DB9E2" d="M1327.952,515.796l77.33-138.816l-108.991-4.259L1327.952,515.796z"/>
	<path fill="#83BBE3" stroke="#83BBE3" d="M1327.952,515.796l-31.661-143.075l-48.344,144.886L1327.952,515.796z"/>
	<path fill="#76B6E0" stroke="#76B6E0" d="M1247.947,517.606l48.344-144.886l-58.025,10.862L1247.947,517.606z"/>
	<path fill="#78B7E1" stroke="#78B7E1" d="M1247.947,517.606l-9.683-134.023L1106.027,484.27L1247.947,517.606z"/>
	<path fill="#69B1DE" stroke="#69B1DE" d="M1106.027,484.27l132.237-100.687l-121.991-3.289L1106.027,484.27z"/>
	<path fill="#64AEDC" stroke="#64AEDC" d="M1106.027,484.27l10.246-103.976l-68.023,9.838L1106.027,484.27z"/>
	<path fill="#6EB2DE" stroke="#6EB2DE" d="M1106.027,484.27l-57.777-94.138l19.677,136.047L1106.027,484.27z"/>
	<path fill="#6CB2DD" stroke="#6CB2DD" d="M1067.927,526.179l-19.677-136.047L947.925,526.895L1067.927,526.179z"/>
	<path fill="#5FADDB" stroke="#5FADDB" d="M947.925,526.895l100.325-136.763l-125.052,21.703L947.925,526.895z"/>
	<path fill="#60ADDB" stroke="#60ADDB" d="M947.925,526.895l-24.727-115.06l-32.157,65.925L947.925,526.895z"/>
	<path fill="#55A9D9" stroke="#55A9D9" d="M891.041,477.76l32.157-65.925l-68.026,10.839L891.041,477.76z"/>
	<path fill="#55A9D9" stroke="#55A9D9" d="M891.041,477.76l-35.869-55.086l-89.135,56.789L891.041,477.76z"/>
	<path fill="#4DA5D7" stroke="#4DA5D7" d="M766.037,479.463l89.135-56.789l-117.022,9.724L766.037,479.463z"/>
	<path fill="#4BA5D6" stroke="#4BA5D6" d="M766.037,479.463l-27.889-47.065l-90.136,56.785L766.037,479.463z"/>
	<path fill="#43A1D4" stroke="#43A1D4" d="M648.014,489.183l90.136-56.785l-73.947-22.177L648.014,489.183z"/>
	<path fill="#42A1D4" stroke="#42A1D4" d="M648.014,489.183l16.188-78.962l-54.159,66.872L648.014,489.183z"/>
	<path fill="#3A9ED2" stroke="#3A9ED2" d="M610.042,477.093l54.159-66.872l-54.957-18.131L610.042,477.093z"/>
	<path fill="#349BD1" stroke="#349BD1" d="M610.042,477.093l-0.798-85.003l-100.018,6.763L610.042,477.093z"/>
	<path fill="#399DD2" stroke="#399DD2" d="M610.042,477.093l-100.814-78.24l16.781,92.041L610.042,477.093z"/>
	<path fill="#2E99D0" stroke="#2E99D0" d="M526.009,490.894l-16.781-92.04l-114.045,18.729L526.009,490.894z"/>
	<path fill="#389CD0" stroke="#389CD0" d="M526.009,490.894l-130.826-73.312l35.736,111.085L526.009,490.894z"/>
	<path fill="#3799CF" stroke="#3799CF" d="M430.919,528.667l-35.736-111.085l-87.144,60.794L430.919,528.667z"/>
	<path fill="#2F94CD" stroke="#2F94CD" d="M308.039,478.376l87.144-60.794l-71.034,14.832L308.039,478.376z"/>
	<path fill="#3093CC" stroke="#3093CC" d="M308.039,478.376l16.108-45.962l-64.977-10.154L308.039,478.376z"/>
	<path fill="#3593CC" stroke="#3593CC" d="M308.039,478.376l-48.867-56.116l-39.171,71.907L308.039,478.376z"/>
	<path fill="#3090CA" stroke="#3090CA" d="M220.001,494.167l39.171-71.907l-111.005,1.736L220.001,494.167z"/>
	<path fill="#3791CA" stroke="#3791CA" d="M220.001,494.167l-71.834-70.171l-1.204,85.997L220.001,494.167z"/>
	<path fill="#388FC9" stroke="#388FC9" d="M146.963,509.993l1.204-85.997L31.96,510.72L146.963,509.993z"/>
	<path fill="#2F8AC6" stroke="#2F8AC6" d="M31.96,510.72l116.207-86.724L18.262,383.688L31.96,510.72z"/>
	<path fill="#2C86C5" stroke="#2C86C5" d="M31.96,510.72L18.262,383.688l-28-0.066L31.96,510.72z"/>
	<path fill="#368AC6" stroke="#368AC6" d="M31.96,510.72L-9.738,383.621l-28.31,130.933L31.96,510.72z"/>
	<path fill="#2783C3" stroke="#2783C3" d="M-38.048,514.554l28.31-130.933l-32.84-67.079L-38.048,514.554z"/>
	<path fill="#197CC0" stroke="#197CC0" d="M-38.048,514.554l-4.53-198.012l-14.715-120.035L-38.048,514.554z"/>
	<path fill="#8FC7EB" stroke="#8FC7EB" d="M2059.219,404.532l-1.713-121.005l-140.125,52.668L2059.219,404.532z"/>
	<path fill="#98CAEC" stroke="#98CAEC" d="M2059.219,404.532l-141.838-68.337l18.766,99.045L2059.219,404.532z"/>
	<path fill="#96C9EB" stroke="#96C9EB" d="M1936.146,435.24l-18.766-99.045l-102.232,97.758L1936.146,435.24z"/>
	<path fill="#8BC4E9" stroke="#8BC4E9" d="M1815.146,433.953l102.233-97.758l-80.942-24.192L1815.146,433.953z"/>
	<path fill="#8DC4E9" stroke="#8DC4E9" d="M1815.146,433.953l21.291-121.95l-81.209,87.808L1815.146,433.953z"/>
	<path fill="#82C0E7" stroke="#82C0E7" d="M1755.229,399.811l81.209-87.808l-78.994-2.188L1755.229,399.811z"/>
	<path fill="#81BEE6" stroke="#81BEE6" d="M1755.229,399.811l2.215-89.995l-121.078,32.713L1755.229,399.811z"/>
	<path fill="#89C1E7" stroke="#89C1E7" d="M1755.229,399.811l-118.863-57.282l1.763,100.004L1755.229,399.811z"/>
	<path fill="#88C0E7" stroke="#88C0E7" d="M1638.127,442.532l-1.763-100.004l-25.194,81.94L1638.127,442.532z"/>
	<path fill="#81BCE5" stroke="#81BCE5" d="M1611.17,424.469l25.194-81.94l-147.083,34.65L1611.17,424.469z"/>
	<path fill="#77B9E3" stroke="#77B9E3" d="M1489.281,377.179l147.083-34.65l-25.884-49.062L1489.281,377.179z"/>
	<path fill="#6EB5E1" stroke="#6EB5E1" d="M1489.281,377.179l121.199-83.713l-87.916-35.209L1489.281,377.179z"/>
	<path fill="#6DB4E0" stroke="#6DB4E0" d="M1489.281,377.179l33.283-118.922l-62.129,53.854L1489.281,377.179z"/>
	<path fill="#74B6E1" stroke="#74B6E1" d="M1489.281,377.179l-28.846-65.068l-55.153,64.869L1489.281,377.179z"/>
	<path fill="#6CB3DF" stroke="#6CB3DF" d="M1405.282,376.979l55.153-64.869l-89.99-4.214L1405.282,376.979z"/>
	<path fill="#6EB3DF" stroke="#6EB3DF" d="M1405.282,376.979l-34.837-69.083l-74.154,64.824L1405.282,376.979z"/>
	<path fill="#69B1DE" stroke="#69B1DE" d="M1296.291,372.721l74.154-64.824l-79.101,41.812L1296.291,372.721z"/>
	<path fill="#6AB1DF" stroke="#6AB1DF" d="M1296.291,372.721l-4.945-23.012l-53.08,33.874L1296.291,372.721z"/>
	<path fill="#64AFDD" stroke="#64AFDD" d="M1238.266,383.583l53.08-33.874l-88.961-16.211L1238.266,383.583z"/>
	<path fill="#61AEDC" stroke="#61AEDC" d="M1238.266,383.583l-35.881-50.085l-86.11,46.796L1238.266,383.583z"/>
	<path fill="#55A9DA" stroke="#55A9DA" d="M1116.273,380.294l86.11-46.796l-86.887-48.207L1116.273,380.294z"/>
	<path fill="#4FA6D8" stroke="#4FA6D8" d="M1116.273,380.294l-0.775-95.003l-94.076,32.777L1116.273,380.294z"/>
	<path fill="#55A8D9" stroke="#55A8D9" d="M1116.273,380.294l-94.853-62.226l26.828,72.063L1116.273,380.294z"/>
	<path fill="#4EA6D8" stroke="#4EA6D8" d="M1048.25,390.132l-26.828-72.063l-40.066,27.904L1048.25,390.132z"/>
	<path fill="#52A7D9" stroke="#52A7D9" d="M1048.25,390.132l-66.896-44.159l-58.155,65.862L1048.25,390.132z"/>
	<path fill="#42A2D5" stroke="#42A2D5" d="M923.198,411.835l58.155-65.862l-153.858-59.365L923.198,411.835z"/>
	<path fill="#44A2D5" stroke="#44A2D5" d="M923.198,411.835l-95.703-125.228l27.677,136.066L923.198,411.835z"/>
	<path fill="#369CD3" stroke="#369CD3" d="M855.172,422.674l-27.677-136.066l-63.01,3.851L855.172,422.674z"/>
	<path fill="#3FA0D4" stroke="#3FA0D4" d="M855.172,422.674l-90.687-132.216l-26.337,141.938L855.172,422.674z"/>
	<path fill="#2F9AD1" stroke="#2F9AD1" d="M738.148,432.396l26.337-141.938l-69.995-2.166L738.148,432.396z"/>
	<path fill="#359CD2" stroke="#359CD2" d="M738.148,432.396L694.49,288.292l-30.289,121.929L738.148,432.396z"/>
	<path fill="#2897CF" stroke="#2897CF" d="M664.201,410.221l30.289-121.929L592.41,322.05L664.201,410.221z"/>
	<path fill="#2D99D0" stroke="#2D99D0" d="M664.201,410.221L592.41,322.05l16.834,70.04L664.201,410.221z"/>
	<path fill="#2797CF" stroke="#2797CF" d="M609.244,392.09l-16.834-70.04l-83.184,76.803L609.244,392.09z"/>
	<path fill="#1E93CD" stroke="#1E93CD" d="M509.228,398.853l83.184-76.803l-119.028,11.718L509.228,398.853z"/>
	<path fill="#2293CD" stroke="#2293CD" d="M509.228,398.853l-35.846-65.084l-78.199,83.814L509.228,398.853z"/>
	<path fill="#1C8FCB" stroke="#1C8FCB" d="M395.183,417.582l78.199-83.814l-70.96-17.169L395.183,417.582z"/>
	<path fill="#2391CB" stroke="#2391CB" d="M395.183,417.582l7.239-100.983l-78.273,115.815L395.183,417.582z"/>
	<path fill="#1A8CC8" stroke="#1A8CC8" d="M324.147,432.414l78.273-115.815l-113.944-23.271L324.147,432.414z"/>
	<path fill="#1A8AC7" stroke="#1A8AC7" d="M324.147,432.414l-35.67-139.086l-41.08,33.902L324.147,432.414z"/>
	<path fill="#248DC9" stroke="#248DC9" d="M324.147,432.414l-76.75-105.184l11.774,95.029L324.147,432.414z"/>
	<path fill="#248BC8" stroke="#248BC8" d="M259.172,422.26l-11.774-95.029l-99.23,96.766L259.172,422.26z"/>
	<path fill="#1A85C5" stroke="#1A85C5" d="M148.167,423.996l99.23-96.766l-135.922-33.322L148.167,423.996z"/>
	<path fill="#1A82C3" stroke="#1A82C3" d="M148.167,423.996l-36.691-130.088L32.383,332.72L148.167,423.996z"/>
	<path fill="#2184C4" stroke="#2184C4" d="M148.167,423.996L32.383,332.721l-14.121,50.967L148.167,423.996z"/>
	<path fill="#1E81C2" stroke="#1E81C2" d="M18.262,383.688l14.121-50.967l-42.121,50.9L18.262,383.688z"/>
	<path fill="#197EC1" stroke="#197EC1" d="M-9.738,383.621l42.121-50.9l-74.961-16.179L-9.738,383.621z"/>
	<path fill="#79B6E3" stroke="#79B6E3" d="M2057.506,283.527l-20.31-291.049l-26.375,157.938L2057.506,283.527z"/>
	<path fill="#78BCE5" stroke="#78BCE5" d="M2057.506,283.527l-46.685-133.11l-2.104,42.994L2057.506,283.527z"/>
	<path fill="#77BDE6" stroke="#77BDE6" d="M2057.506,283.527l-48.787-90.116l-101.114,48.76L2057.506,283.527z"/>
	<path fill="#7FC0E7" stroke="#7FC0E7" d="M2057.506,283.527l-149.901-41.356l9.776,94.024L2057.506,283.527z"/>
	<path fill="#7EBFE6" stroke="#7EBFE6" d="M1917.381,336.195l-9.777-94.024l-71.166,69.832L1917.381,336.195z"/>
	<path fill="#75BCE5" stroke="#75BCE5" d="M1836.438,312.003l71.166-69.832l-35.979-9.085L1836.438,312.003z"/>
	<path fill="#74BBE4" stroke="#74BBE4" d="M1836.438,312.003l35.188-78.917l-99.059,24.765L1836.438,312.003z"/>
	<path fill="#77BBE5" stroke="#77BBE5" d="M1836.438,312.003l-63.87-54.152l-15.124,51.965L1836.438,312.003z"/>
	<path fill="#6EB7E2" stroke="#6EB7E2" d="M1757.442,309.815l15.124-51.965l-115.922-33.275L1757.442,309.815z"/>
	<path fill="#72B8E3" stroke="#72B8E3" d="M1757.442,309.815l-100.798-85.24l-20.28,117.953L1757.442,309.815z"/>
	<path fill="#6EB6E1" stroke="#6EB6E1" d="M1636.364,342.528l20.28-117.953l-46.164,68.891L1636.364,342.528z"/>
	<path fill="#64B1DF" stroke="#64B1DF" d="M1610.48,293.466l46.164-68.891l-99.002,0.766L1610.48,293.466z"/>
	<path fill="#64B1DF" stroke="#64B1DF" d="M1610.48,293.466l-52.839-68.125l-35.077,32.916L1610.48,293.466z"/>
	<path fill="#62B0DE" stroke="#62B0DE" d="M1460.438,312.11l62.128-53.854l-115.002,0.728L1460.438,312.11z"/>
	<path fill="#63AFDE" stroke="#63AFDE" d="M1460.438,312.11l-52.875-53.126l-37.116,48.912L1460.438,312.11z"/>
	<path fill="#59ABDB" stroke="#59ABDB" d="M1370.445,307.896l37.116-48.912l-121.901-41.29L1370.445,307.896z"/>
	<path fill="#5CACDC" stroke="#5CACDC" d="M1370.445,307.896l-84.785-90.202l5.686,132.015L1370.445,307.896z"/>
	<path fill="#59AADB" stroke="#59AADB" d="M1291.346,349.709l-5.686-132.015l-83.275,115.804L1291.346,349.709z"/>
	<path fill="#4BA5D8" stroke="#4BA5D8" d="M1202.385,333.498l83.275-115.804l-84.953-20.201L1202.385,333.498z"/>
	<path fill="#4AA5D8" stroke="#4AA5D8" d="M1202.385,333.498l-1.678-136.005l-85.209,87.798L1202.385,333.498z"/>
	<path fill="#41A1D6" stroke="#41A1D6" d="M1115.498,285.291l85.209-87.798l-95.117,49.774L1115.498,285.291z"/>
	<path fill="#3EA0D5" stroke="#3EA0D5" d="M1115.498,285.291l-9.908-38.023l-76.979-9.183L1115.498,285.291z"/>
	<path fill="#41A1D6" stroke="#41A1D6" d="M1115.498,285.291l-86.888-47.206l-7.188,79.983L1115.498,285.291z"/>
	<path fill="#369CD3" stroke="#369CD3" d="M1021.422,318.068l7.188-79.983l-104.952-20.25L1021.422,318.068z"/>
	<path fill="#3C9FD4" stroke="#3C9FD4" d="M1021.422,318.068l-97.764-100.233l57.695,128.138L1021.422,318.068z"/>
	<path fill="#349CD2" stroke="#349CD2" d="M981.354,345.973l-57.695-128.138l-96.163,68.772L981.354,345.973z"/>
	<path fill="#2696CF" stroke="#2696CF" d="M827.495,286.607l96.163-68.772l-64.98-8.154L827.495,286.607z"/>
	<path fill="#2395CF" stroke="#2395CF" d="M827.495,286.607l31.183-76.927L796.6,242.534L827.495,286.607z"/>
	<path fill="#2696CF" stroke="#2696CF" d="M827.495,286.607L796.6,242.534l-32.113,47.924L827.495,286.607z"/>
	<path fill="#2295CE" stroke="#2295CE" d="M764.485,290.458l32.113-47.924L694.49,288.292L764.485,290.458z"/>
	<path fill="#1A91CD" stroke="#1A91CD" d="M694.49,288.292L796.6,242.534l-135.944-23.323L694.49,288.292z"/>
	<path fill="#138ECB" stroke="#138ECB" d="M694.49,288.292l-33.836-69.081l-47.01,3.889L694.49,288.292z"/>
	<path fill="#1890CC" stroke="#1890CC" d="M694.49,288.292L613.646,223.1l-21.235,98.95L694.49,288.292z"/>
	<path fill="#0F8DCA" stroke="#0F8DCA" d="M592.41,322.05l21.234-98.95l-111.048,19.736L592.41,322.05z"/>
	<path fill="#138ECB" stroke="#138ECB" d="M592.41,322.05l-89.812-79.214l-29.216,90.932L592.41,322.05z"/>
	<path fill="#0E8CC9" stroke="#0E8CC9" d="M473.382,333.768l29.216-90.932l-100.176,73.763L473.382,333.768z"/>
	<path fill="#0888C7" stroke="#0888C7" d="M402.422,316.599l100.176-73.763l-116.022,9.725L402.422,316.599z"/>
	<path fill="#0C87C6" stroke="#0C87C6" d="M402.422,316.599l-15.848-64.038l-98.097,40.768L402.422,316.599z"/>
	<path fill="#0483C4" stroke="#0483C4" d="M288.478,293.328l98.097-40.768l-69.896-44.166L288.478,293.328z"/>
	<path fill="#007FC2" stroke="#007FC2" d="M288.478,293.328l28.202-84.934l-113.99-4.271L288.478,293.328z"/>
	<path fill="#0982C3" stroke="#0982C3" d="M288.478,293.328l-85.788-89.204l44.708,123.106L288.478,293.328z"/>
	<path fill="#097FC2" stroke="#097FC2" d="M247.397,327.23l-44.708-123.106l-91.214,89.784L247.397,327.23z"/>
	<path fill="#007ABF" stroke="#007ABF" d="M111.476,293.908l91.214-89.784l-74.991-4.178L111.476,293.908z"/>
	<path fill="#037ABF" stroke="#037ABF" d="M111.476,293.908l16.223-93.962l-62.113,47.853L111.476,293.908z"/>
	<path fill="#0D7CC0" stroke="#0D7CC0" d="M111.476,293.908l-45.891-46.109l-33.202,84.922L111.476,293.908z"/>
	<path fill="#0F7BBF" stroke="#0F7BBF" d="M32.383,332.721l33.202-84.922l-108.163,68.743L32.383,332.721z"/>
	<path fill="#0476BD" stroke="#0476BD" d="M-42.578,316.542l108.163-68.743l-122.878-51.292L-42.578,316.542z"/>
	<path fill="#76B5E2" stroke="#76B5E2" d="M2008.719,193.411l2.104-42.994L1919.9,117.2L2008.719,193.411z"/>
	<path fill="#74B7E3" stroke="#74B7E3" d="M2008.719,193.411L1919.9,117.2l-12.297,124.971L2008.719,193.411z"/>
	<path fill="#71B4E1" stroke="#71B4E1" d="M1907.604,242.171L1919.9,117.2l-70.074,30.834L1907.604,242.171z"/>
	<path fill="#70B7E2" stroke="#70B7E2" d="M1907.604,242.171l-57.776-94.137l21.799,85.052L1907.604,242.171z"/>
	<path fill="#6EB6E2" stroke="#6EB6E2" d="M1871.625,233.086l-21.799-85.052l-77.26,109.816L1871.625,233.086z"/>
	<path fill="#6CB1E0" stroke="#6CB1E0" d="M1772.566,257.851l77.26-109.816l-87.961-16.209L1772.566,257.851z"/>
	<path fill="#68B1E0" stroke="#68B1E0" d="M1772.566,257.851l-10.701-126.025l-105.221,92.75L1772.566,257.851z"/>
	<path fill="#66ADDD" stroke="#66ADDD" d="M1656.645,224.575l105.222-92.75l-87.99-4.209L1656.645,224.575z"/>
	<path fill="#63ABDD" stroke="#63ABDD" d="M1656.645,224.575l17.23-96.959l-89.035,14.789L1656.645,224.575z"/>
	<path fill="#61ADDD" stroke="#61ADDD" d="M1656.645,224.575l-71.805-82.17l-27.197,82.936L1656.645,224.575z"/>
	<path fill="#5EA9DB" stroke="#5EA9DB" d="M1557.643,225.341l27.197-82.936l-92.041,16.782L1557.643,225.341z"/>
	<path fill="#5DACDC" stroke="#5DACDC" d="M1557.643,225.341l-64.844-66.153l29.766,99.069L1557.643,225.341z"/>
	<path fill="#5AABDC" stroke="#5AABDC" d="M1522.564,258.257l-29.767-99.069l-85.235,99.797L1522.564,258.257z"/>
	<path fill="#59A6DA" stroke="#59A6DA" d="M1407.562,258.984l85.235-99.797l-62.914-36.15L1407.562,258.984z"/>
	<path fill="#56A3D8" stroke="#56A3D8" d="M1407.562,258.984l22.321-135.947l-94.959-17.226L1407.562,258.984z"/>
	<path fill="#53A4D8" stroke="#53A4D8" d="M1407.562,258.984l-72.638-153.173l-49.266,111.883L1407.562,258.984z"/>
	<path fill="#4D9ED5" stroke="#4D9ED5" d="M1285.66,217.694l49.266-111.883l-103.088,36.756L1285.66,217.694z"/>
	<path fill="#499FD6" stroke="#499FD6" d="M1285.66,217.694l-53.822-75.127l-31.131,54.926L1285.66,217.694z"/>
	<path fill="#439BD3" stroke="#439BD3" d="M1200.707,197.493l31.131-54.926l-131.066,27.688L1200.707,197.493z"/>
	<path fill="#3F9DD4" stroke="#3F9DD4" d="M1200.707,197.493l-99.936-27.237l4.817,77.012L1200.707,197.493z"/>
	<path fill="#3A9CD4" stroke="#3A9CD4" d="M1105.59,247.268l-4.818-77.012l-72.16,67.829L1105.59,247.268z"/>
	<path fill="#3799D2" stroke="#3799D2" d="M1028.61,238.085l72.161-67.829l-68.98-8.164L1028.61,238.085z"/>
	<path fill="#3298D1" stroke="#3298D1" d="M1028.61,238.085l3.181-75.993l-108.133,55.743L1028.61,238.085z"/>
	<path fill="#2F93CF" stroke="#2F93CF" d="M923.658,217.835l108.133-55.743l-68.874-53.163L923.658,217.835z"/>
	<path fill="#2A91CE" stroke="#2A91CE" d="M923.658,217.835l39.259-108.906l-93.128,53.778L923.658,217.835z"/>
	<path fill="#2793CE" stroke="#2793CE" d="M923.658,217.835l-53.869-55.128l-11.111,46.974L923.658,217.835z"/>
	<path fill="#218FCC" stroke="#218FCC" d="M858.678,209.681l11.111-46.974l-117.985-6.279L858.678,209.681z"/>
	<path fill="#1F90CC" stroke="#1F90CC" d="M858.678,209.681l-106.874-53.253l44.796,86.106L858.678,209.681z"/>
	<path fill="#198ECB" stroke="#198ECB" d="M796.6,242.534l-44.796-86.106l-91.148,62.783L796.6,242.534z"/>
	<path fill="#1589C9" stroke="#1589C9" d="M660.654,219.211l91.148-62.783l-55.887-48.133L660.654,219.211z"/>
	<path fill="#0F86C7" stroke="#0F86C7" d="M660.654,219.211l35.263-110.916l-136.122,51.677L660.654,219.211z"/>
	<path fill="#0D89C8" stroke="#0D89C8" d="M660.654,219.211l-100.859-59.239l53.852,63.128L660.654,219.211z"/>
	<path fill="#0888C7" stroke="#0888C7" d="M613.646,223.1l-53.852-63.128l-57.197,82.864L613.646,223.1z"/>
	<path fill="#0183C5" stroke="#0183C5" d="M502.598,242.836l57.197-82.864l-158.998-1.377L502.598,242.836z"/>
	<path fill="#0083C5" stroke="#0083C5" d="M502.598,242.836l-101.801-84.241l-14.223,93.966L502.598,242.836z"/>
	<path fill="#0080C3" stroke="#0080C3" d="M386.574,252.561l14.223-93.966l-84.117,49.8L386.574,252.561z"/>
	<path fill="#007CC1" stroke="#007CC1" d="M316.68,208.395l84.117-49.8l-55.979-8.133L316.68,208.395z"/>
	<path fill="#007BC0" stroke="#007BC0" d="M316.68,208.395l28.138-57.933l-101.035,14.76L316.68,208.395z"/>
	<path fill="#007AC0" stroke="#007AC0" d="M316.68,208.395l-72.897-43.173l-41.092,38.902L316.68,208.395z"/>
	<path fill="#0077BE" stroke="#0077BE" d="M202.689,204.124l41.092-38.902l-73.997-1.176L202.689,204.124z"/>
	<path fill="#0077BE" stroke="#0077BE" d="M202.689,204.124l-32.905-40.078l-42.086,35.9L202.689,204.124z"/>
	<path fill="#0072BB" stroke="#0072BB" d="M127.698,199.946l42.086-35.9L54.896,116.773L127.698,199.946z"/>
	<path fill="#0073BC" stroke="#0073BC" d="M127.698,199.946l-72.803-83.173l10.689,131.025L127.698,199.946z"/>
	<path fill="#0071BA" stroke="#0071BA" d="M65.585,247.799L54.896,116.773l-112.188,79.733L65.585,247.799z"/>
	<path fill="#006CB7" stroke="#006CB7" d="M-57.293,196.507l112.188-79.733l-98.997-1.234L-57.293,196.507z"/>
	<path fill="#0068B6" stroke="#0068B6" d="M-57.293,196.507l13.191-80.968L-63.9,30.491L-57.293,196.507z"/>
	<path fill="#0062B2" stroke="#0062B2" d="M-57.293,196.507l-6.606-166.016l-8.779-93.021L-57.293,196.507z"/>
	<path fill="#78AEDF" stroke="#78AEDF" d="M2010.821,150.417l26.375-157.938l-30.118,49.929L2010.821,150.417z"/>
	<path fill="#77B0DF" stroke="#77B0DF" d="M2010.821,150.417l-3.743-108.01l-36.045,18.914L2010.821,150.417z"/>
	<path fill="#75B1E0" stroke="#75B1E0" d="M2010.821,150.417l-39.788-89.096L1919.9,117.2L2010.821,150.417z"/>
	<path fill="#73ABDD" stroke="#73ABDD" d="M1919.9,117.2l51.133-55.879l-58.822-75.14L1919.9,117.2z"/>
	<path fill="#71A9DC" stroke="#71A9DC" d="M1919.9,117.2l-7.689-131.019l-82.18,75.806L1919.9,117.2z"/>
	<path fill="#70ADDE" stroke="#70ADDE" d="M1919.9,117.2l-89.869-55.213l19.795,86.047L1919.9,117.2z"/>
	<path fill="#6DACDD" stroke="#6DACDD" d="M1849.826,148.034l-19.795-86.047l-68.166,69.838L1849.826,148.034z"/>
	<path fill="#6CA8DB" stroke="#6CA8DB" d="M1761.865,131.825l68.166-69.838l-40.924-32.098L1761.865,131.825z"/>
	<path fill="#69A8DB" stroke="#69A8DB" d="M1761.865,131.825l27.242-101.936l-115.232,97.727L1761.865,131.825z"/>
	<path fill="#67A3D9" stroke="#67A3D9" d="M1673.875,127.616l115.232-97.727l-139.965-15.332L1673.875,127.616z"/>
	<path fill="#63A5D9" stroke="#63A5D9" d="M1673.875,127.616l-24.732-113.059l-64.303,127.848L1673.875,127.616z"/>
	<path fill="#61A0D7" stroke="#61A0D7" d="M1584.84,142.405l64.303-127.848l-78.016,6.814L1584.84,142.405z"/>
	<path fill="#5EA0D7" stroke="#5EA0D7" d="M1584.84,142.405l-13.713-121.033l-108.109,45.744L1584.84,142.405z"/>
	<path fill="#5CA3D8" stroke="#5CA3D8" d="M1584.84,142.405l-121.822-75.289l29.781,92.071L1584.84,142.405z"/>
	<path fill="#5AA1D7" stroke="#5AA1D7" d="M1492.799,159.188l-29.781-92.071l-33.133,55.921L1492.799,159.188z"/>
	<path fill="#589DD5" stroke="#589DD5" d="M1429.885,123.037l33.133-55.921l-61.967-14.147L1429.885,123.037z"/>
	<path fill="#569DD5" stroke="#569DD5" d="M1429.885,123.037l-28.834-70.068l-66.125,52.843L1429.885,123.037z"/>
	<path fill="#5499D3" stroke="#5499D3" d="M1334.926,105.812l66.125-52.843l-73.939-25.176L1334.926,105.812z"/>
	<path fill="#4F97D2" stroke="#4F97D2" d="M1334.926,105.812l-7.814-78.019l-99.123,51.765L1334.926,105.812z"/>
	<path fill="#4B99D3" stroke="#4B99D3" d="M1334.926,105.812l-106.938-26.254l3.851,63.01L1334.926,105.812z"/>
	<path fill="#4498D2" stroke="#4498D2" d="M1231.838,142.567l-3.851-63.01l-127.216,90.698L1231.838,142.567z"/>
	<path fill="#4093D0" stroke="#4093D0" d="M1100.771,170.256l127.216-90.698l-127.911-37.304L1100.771,170.256z"/>
	<path fill="#3A91CE" stroke="#3A91CE" d="M1100.771,170.256l-0.695-128.002l-43.043,17.898L1100.771,170.256z"/>
	<path fill="#3893CF" stroke="#3893CF" d="M1100.771,170.256l-43.738-110.104l-25.242,101.939L1100.771,170.256z"/>
	<path fill="#3490CD" stroke="#3490CD" d="M1031.791,162.092l25.242-101.939l-94.116,48.776L1031.791,162.092z"/>
	<path fill="#318CCB" stroke="#318CCB" d="M962.917,108.929l94.116-48.776L955.041,56.91L962.917,108.929z"/>
	<path fill="#2C8ACA" stroke="#2C8ACA" d="M962.917,108.929l-7.876-52.019l-63.979-9.152L962.917,108.929z"/>
	<path fill="#298BCB" stroke="#298BCB" d="M962.917,108.929l-71.854-61.171L869.79,162.707L962.917,108.929z"/>
	<path fill="#2487C8" stroke="#2487C8" d="M869.789,162.707l21.273-114.949l-88.938-27.211L869.789,162.707z"/>
	<path fill="#2088C9" stroke="#2088C9" d="M869.789,162.707l-67.663-142.16l-50.322,135.881L869.789,162.707z"/>
	<path fill="#1A84C7" stroke="#1A84C7" d="M751.804,156.428l50.322-135.881l-106.209,87.748L751.804,156.428z"/>
	<path fill="#1880C4" stroke="#1880C4" d="M695.917,108.295l106.209-87.748l-101.007,2.76L695.917,108.295z"/>
	<path fill="#127EC3" stroke="#127EC3" d="M695.917,108.295l5.202-84.988L601.075,42.069L695.917,108.295z"/>
	<path fill="#0D80C4" stroke="#0D80C4" d="M695.917,108.295l-94.842-66.226l-41.28,117.902L695.917,108.295z"/>
	<path fill="#087EC3" stroke="#087EC3" d="M559.795,159.972l41.28-117.902l-73.142,58.827L559.795,159.972z"/>
	<path fill="#027FC3" stroke="#027FC3" d="M559.795,159.972l-31.86-59.075l-127.138,57.698L559.795,159.972z"/>
	<path fill="#067AC1" stroke="#067AC1" d="M527.935,100.896l73.142-58.827l-116.07,28.725L527.935,100.896z"/>
	<path fill="#007BC1" stroke="#007BC1" d="M527.935,100.896l-42.929-30.103l-84.209,87.801L527.935,100.896z"/>
	<path fill="#0079C0" stroke="#0079C0" d="M400.797,158.595l84.209-87.801l-56-0.133L400.797,158.595z"/>
	<path fill="#0078BF" stroke="#0078BF" d="M400.797,158.595l28.209-87.934l-77.019,7.817L400.797,158.595z"/>
	<path fill="#0079C0" stroke="#0079C0" d="M400.797,158.595l-48.81-80.116l-7.171,71.983L400.797,158.595z"/>
	<path fill="#0077BE" stroke="#0077BE" d="M344.816,150.462l7.171-71.983l-108.206,86.743L344.816,150.462z"/>
	<path fill="#0073BC" stroke="#0073BC" d="M243.781,165.222l108.206-86.743l-98.904-40.234L243.781,165.222z"/>
	<path fill="#0073BC" stroke="#0073BC" d="M243.781,165.222l9.302-126.978l-83.299,125.802L243.781,165.222z"/>
	<path fill="#006EBA" stroke="#006EBA" d="M169.784,164.046l83.299-125.802l-103.021,8.755L169.784,164.046z"/>
	<path fill="#006EB9" stroke="#006EB9" d="M169.784,164.046L150.062,46.999l-95.166,69.774L169.784,164.046z"/>
	<path fill="#0069B6" stroke="#0069B6" d="M54.896,116.773l95.166-69.774L16.04,55.681L54.896,116.773z"/>
	<path fill="#0069B6" stroke="#0069B6" d="M54.896,116.773L16.04,55.681l-60.142,59.858L54.896,116.773z"/>
	<path fill="#0064B4" stroke="#0064B4" d="M-44.102,115.539L16.04,55.681l-79.939-25.189L-44.102,115.539z"/>
	<path fill="#76A8DC" stroke="#76A8DC" d="M2007.078,42.407l30.118-49.929l-124.985-6.297L2007.078,42.407z"/>
	<path fill="#75AADC" stroke="#75AADC" d="M2007.078,42.407l-94.867-56.226l58.822,75.14L2007.078,42.407z"/>
	<path fill="#6FA4D9" stroke="#6FA4D9" d="M1830.031,61.987l82.18-75.806l-90.969-13.216L1830.031,61.987z"/>
	<path fill="#6DA4D9" stroke="#6DA4D9" d="M1830.031,61.987l-8.789-89.021l-32.135,56.924L1830.031,61.987z"/>
	<path fill="#6C9FD7" stroke="#6C9FD7" d="M1789.107,29.89l32.135-56.924l-48.919-34.116L1789.107,29.89z"/>
	<path fill="#699FD7" stroke="#699FD7" d="M1789.107,29.89l-16.784-91.04l-123.182,75.708L1789.107,29.89z"/>
	<path fill="#669AD5" stroke="#669AD5" d="M1649.143,14.558l123.182-75.708l-99.979-9.237L1649.143,14.558z"/>
	<path fill="#6399D4" stroke="#6399D4" d="M1649.143,14.558l23.201-84.945l-88.096,40.791L1649.143,14.558z"/>
	<path fill="#619BD5" stroke="#619BD5" d="M1649.143,14.558l-64.895-44.154l-13.121,50.969L1649.143,14.558z"/>
	<path fill="#5E98D3" stroke="#5E98D3" d="M1571.127,21.372l13.121-50.969l-89.031,12.788L1571.127,21.372z"/>
	<path fill="#5C9AD4" stroke="#5C9AD4" d="M1571.127,21.372l-75.91-38.181l-32.199,83.925L1571.127,21.372z"/>
	<path fill="#5999D3" stroke="#5999D3" d="M1463.018,67.116l32.199-83.925l-94.166,69.777L1463.018,67.116z"/>
	<path fill="#5795D1" stroke="#5795D1" d="M1401.051,52.969l94.166-69.777l-127.919-34.304L1401.051,52.969z"/>
	<path fill="#5494D1" stroke="#5494D1" d="M1401.051,52.969l-33.753-104.081l-40.188,78.905L1401.051,52.969z"/>
	<path fill="#5391CF" stroke="#5391CF" d="M1327.11,27.793l40.188-78.905l-22.017,6.948L1327.11,27.793z"/>
	<path fill="#4F90CE" stroke="#4F90CE" d="M1327.11,27.793l18.171-71.957l-115.025,10.727L1327.11,27.793z"/>
	<path fill="#4B92CF" stroke="#4B92CF" d="M1327.11,27.793l-96.854-61.23l-2.269,112.995L1327.11,27.793z"/>
	<path fill="#448FCE" stroke="#448FCE" d="M1227.987,79.558l2.269-112.995l-130.18,75.691L1227.987,79.558z"/>
	<path fill="#408ACB" stroke="#408ACB" d="M1100.076,42.254l130.18-75.691l-115.942-24.275L1100.076,42.254z"/>
	<path fill="#3A86C9" stroke="#3A86C9" d="M1100.076,42.254l14.236-99.967l-65.994-2.156L1100.076,42.254z"/>
	<path fill="#3989CA" stroke="#3989CA" d="M1100.076,42.254l-51.758-102.123l8.715,120.021L1100.076,42.254z"/>
	<path fill="#3585C8" stroke="#3585C8" d="M1057.033,60.152l-8.715-120.021l-65.016,5.846L1057.033,60.152z"/>
	<path fill="#3287C9" stroke="#3287C9" d="M1057.033,60.152L983.304-54.023L955.041,56.91L1057.033,60.152z"/>
	<path fill="#2D85C8" stroke="#2D85C8" d="M955.041,56.91l28.263-110.934L891.062,47.758L955.041,56.91z"/>
	<path fill="#2981C5" stroke="#2981C5" d="M891.062,47.758l92.24-101.781L839.242-28.365L891.062,47.758z"/>
	<path fill="#2381C5" stroke="#2381C5" d="M891.062,47.758l-51.82-76.123l-37.116,48.912L891.062,47.758z"/>
	<path fill="#207DC3" stroke="#207DC3" d="M802.126,20.547l37.116-48.912l-36.99-4.088L802.126,20.547z"/>
	<path fill="#1C7DC3" stroke="#1C7DC3" d="M802.126,20.547l0.126-53l-101.133,55.76L802.126,20.547z"/>
	<path fill="#1778C1" stroke="#1778C1" d="M701.119,23.307l101.133-55.76L655.364-79.802L701.119,23.307z"/>
	<path fill="#1075BF" stroke="#1075BF" d="M701.119,23.307L655.364-79.802l-57.038,15.864L701.119,23.307z"/>
	<path fill="#0F77C0" stroke="#0F77C0" d="M701.119,23.307L598.326-63.938l2.749,106.007L701.119,23.307z"/>
	<path fill="#0973BD" stroke="#0973BD" d="M601.075,42.069l-2.749-106.007l-89.018,6.789L601.075,42.069z"/>
	<path fill="#0575BE" stroke="#0575BE" d="M601.075,42.069L509.31-57.148L485.006,70.794L601.075,42.069z"/>
	<path fill="#0070BC" stroke="#0070BC" d="M485.006,70.794L509.31-57.148l-101.017,6.76L485.006,70.794z"/>
	<path fill="#0073BD" stroke="#0073BD" d="M485.006,70.794L408.293-50.389l20.713,121.05L485.006,70.794z"/>
	<path fill="#0071BC" stroke="#0071BC" d="M429.006,70.661l-20.713-121.05L351.987,78.479L429.006,70.661z"/>
	<path fill="#006CB9" stroke="#006CB9" d="M351.987,78.479l56.306-128.867l-117.975-10.28L351.987,78.479z"/>
	<path fill="#006CB9" stroke="#006CB9" d="M351.987,78.479L290.318-60.669l-37.235,98.913L351.987,78.479z"/>
	<path fill="#0066B6" stroke="#0066B6" d="M253.083,38.244l37.235-98.913l-74.013,4.825L253.083,38.244z"/>
	<path fill="#0068B6" stroke="#0068B6" d="M253.083,38.244l-36.777-94.088L150.062,46.999L253.083,38.244z"/>
	<path fill="#0064B4" stroke="#0064B4" d="M150.062,46.999l66.244-102.843L110.277-44.096L150.062,46.999z"/>
	<path fill="#0063B4" stroke="#0063B4" d="M150.062,46.999l-39.784-91.095L73.235-26.184L150.062,46.999z"/>
	<path fill="#0065B5" stroke="#0065B5" d="M150.062,46.999L73.235-26.184L16.04,55.681L150.062,46.999z"/>
	<path fill="#0062B2" stroke="#0062B2" d="M16.04,55.681l57.195-81.864L-63.899,30.491L16.04,55.681z"/>
	<path fill="#005DB0" stroke="#005DB0" d="M-63.899,30.491L73.235-26.184L-72.679-62.53L-63.899,30.491z"/>
	<path fill="#72A2D9" stroke="#72A2D9" d="M2037.196-7.521L1772.323-61.15l139.888,47.332L2037.196-7.521z"/>
	<path fill="#6E9FD7" stroke="#6E9FD7" d="M1912.211-13.818L1772.323-61.15l48.919,34.116L1912.211-13.818z"/>
	<path fill="#3E84C8" stroke="#3E84C8" d="M1672.344-70.388L655.364-79.802l392.954,19.933L1672.344-70.388z"/>
	<path fill="#4D8ACC" stroke="#4D8ACC" d="M1672.344-70.388l-624.024,10.519l65.993,2.156L1672.344-70.388z"/>
	<path fill="#558FCE" stroke="#558FCE" d="M1672.344-70.388l-558.031,12.675l252.985,6.601L1672.344-70.388z"/>
	<path fill="#5E94D1" stroke="#5E94D1" d="M1672.344-70.388l-305.046,19.275l216.95,21.516L1672.344-70.388z"/>
	<path fill="#5B94D1" stroke="#5B94D1" d="M1584.248-29.597l-216.95-21.516l127.919,34.304L1584.248-29.597z"/>
	<path fill="#498ACB" stroke="#498ACB" d="M1367.298-51.112l-252.985-6.601l115.943,24.275L1367.298-51.112z"/>
	<path fill="#508ECE" stroke="#508ECE" d="M1367.298-51.112l-137.042,17.675l115.025-10.727L1367.298-51.112z"/>
	<path fill="#287BC3" stroke="#287BC3" d="M1048.318-59.869L655.364-79.802l327.938,25.778L1048.318-59.869z"/>
	<path fill="#2079C2" stroke="#2079C2" d="M983.304-54.023L655.364-79.802l146.888,47.349L983.304-54.023z"/>
	<path fill="#267DC4" stroke="#267DC4" d="M983.304-54.023l-181.052,21.57l36.99,4.088L983.304-54.023z"/>
	<path fill="#0064B5" stroke="#0064B5" d="M655.364-79.802L-72.679-62.53l362.997,1.861L655.364-79.802z"/>
	<path fill="#006CBA" stroke="#006CBA" d="M655.364-79.802L290.318-60.669l218.991,3.521L655.364-79.802z"/>
	<path fill="#0A70BC" stroke="#0A70BC" d="M655.364-79.802L509.31-57.148l89.018-6.789L655.364-79.802z"/>
	<path fill="#006AB8" stroke="#006AB8" d="M509.31-57.148l-218.991-3.521l117.975,10.28L509.31-57.148z"/>
	<path fill="#005FB2" stroke="#005FB2" d="M290.318-60.669L-72.679-62.53l288.984,6.688L290.318-60.669z"/>
	<path fill="#005DB1" stroke="#005DB1" d="M216.306-55.844L-72.679-62.53l182.956,18.436L216.306-55.844z"/>
	<path fill="#005DB1" stroke="#005DB1" d="M110.277-44.096L-72.679-62.53L73.235-26.184L110.277-44.096z"/>
</g>
</svg>
