<?xml version="1.0" encoding="utf-8"?>
<!-- Generator: Adobe Illustrator 16.0.0, SVG Export Plug-In . SVG Version: 6.00 Build 0)  -->
<!DOCTYPE svg PUBLIC "-//W3C//DTD SVG 1.1//EN" "http://www.w3.org/Graphics/SVG/1.1/DTD/svg11.dtd">
<svg version="1.1" id="Layer_1" xmlns="http://www.w3.org/2000/svg" xmlns:xlink="http://www.w3.org/1999/xlink" x="0px" y="0px"
	 width="1440px" height="274.5px" viewBox="47 -12.5 1440 274.5" enable-background="new 47 -12.5 1440 274.5" xml:space="preserve"
	>
<g>
	<path fill="#E3FFD4" stroke="#E3FFD4" d="M4-44l28,55l28-62L4-44z"/>
	<path fill="#DBFED2" stroke="#DBFED2" d="M60-51L32,11l45,10L60-51z"/>
	<path fill="#DAFDD1" stroke="#DAFDD1" d="M60-51l17,72l48-46L60-51z"/>
	<path fill="#CDF8D1" stroke="#CDF8D1" d="M125-25L77,21l50,9L125-25z"/>
	<path fill="#CEF8CE" stroke="#CEF8CE" d="M125-25l2,55l36-55H125z"/>
	<path fill="#C6F6CE" stroke="#C6F6CE" d="M163-25l-36,55l55-20L163-25z"/>
	<path fill="#C6F5CC" stroke="#C6F5CC" d="M163-25l19,35l36-14L163-25z"/>
	<path fill="#C8F5CC" stroke="#C8F5CC" d="M163-25l55,21l7-36L163-25z"/>
	<path fill="#C1F3CA" stroke="#C1F3CA" d="M225-40l-7,36l39,9L225-40z"/>
	<path fill="#BEF2C9" stroke="#BEF2C9" d="M225-40l32,45l35-26L225-40z"/>
	<path fill="#B2EEC9" stroke="#B2EEC9" d="M292-21L257,5l45,26L292-21z"/>
	<path fill="#AFECC7" stroke="#AFECC7" d="M292-21l10,52l63-50L292-21z"/>
	<path fill="#A7E9C7" stroke="#A7E9C7" d="M365-19l-63,50l73-28L365-19z"/>
	<path fill="#A4E8C8" stroke="#A4E8C8" d="M365-19l10,22l34,5L365-19z"/>
	<path fill="#A6E9C8" stroke="#A6E9C8" d="M365-19l44,27l18-48L365-19z"/>
	<path fill="#9DE6C9" stroke="#9DE6C9" d="M427-40L409,8l45,9L427-40z"/>
	<path fill="#9EE5CA" stroke="#9EE5CA" d="M427-40l27,57l28-48L427-40z"/>
	<path fill="#93E2CA" stroke="#93E2CA" d="M482-31l-28,48l63-11L482-31z"/>
	<path fill="#97E2CB" stroke="#97E2CB" d="M482-31l35,37l-5-54L482-31z"/>
	<path fill="#92E0CC" stroke="#92E0CC" d="M512-48l5,54l59-45L512-48z"/>
	<path fill="#8ADFCC" stroke="#8ADFCC" d="M576-39L517,6l50-1L576-39z"/>
	<path fill="#85DCCD" stroke="#85DCCD" d="M576-39l-9,44l37,6L576-39z"/>
	<path fill="#87DCCE" stroke="#87DCCE" d="M576-39l28,50l5-56L576-39z"/>
	<path fill="#7CD9CF" stroke="#7CD9CF" d="M609-45l-5,56l51,18L609-45z"/>
	<path fill="#82D8CE" stroke="#82D8CE" d="M609-45l46,74l27-83L609-45z"/>
	<path fill="#7FD4CD" stroke="#7FD4CD" d="M682-54l-27,83l75-59L682-54z"/>
	<path fill="#75D0CE" stroke="#75D0CE" d="M730-30l-75,59l76-2L730-30z"/>
	<path fill="#74CCCD" stroke="#74CCCD" d="M730-30l1,57l36-1L730-30z"/>
	<path fill="#7ACDCB" stroke="#7ACDCB" d="M730-30l37,56l20-50L730-30z"/>
	<path fill="#73C8CB" stroke="#73C8CB" d="M787-24l-20,50l70-17L787-24z"/>
	<path fill="#7CC9CB" stroke="#7CC9CB" d="M787-24l50,33l-26-62L787-24z"/>
	<path fill="#7AC6CA" stroke="#7AC6CA" d="M811-53l26,62l38-27L811-53z"/>
	<path fill="#70C2CA" stroke="#70C2CA" d="M875-18L837,9l16,17L875-18z"/>
	<path fill="#6CBECA" stroke="#6CBECA" d="M875-18l-22,44l68,7L875-18z"/>
	<path fill="#72BEC9" stroke="#72BEC9" d="M875-18l46,51l15-55L875-18z"/>
	<path fill="#6BB8C8" stroke="#6BB8C8" d="M936-22l-15,55l49-3L936-22z"/>
	<path fill="#72B8C5" stroke="#72B8C5" d="M936-22l34,52l-3-50L936-22z"/>
	<path fill="#6FB4C4" stroke="#6FB4C4" d="M967-20l3,50l47-34L967-20z"/>
	<path fill="#76B4C3" stroke="#76B4C3" d="M967-20l50,16l-4-24L967-20z"/>
	<path fill="#73B0C1" stroke="#73B0C1" d="M1013-28l4,24l36,10L1013-28z"/>
	<path fill="#76ADC0" stroke="#76ADC0" d="M1013-28l40,34l32-44L1013-28z"/>
	<path fill="#70A7BE" stroke="#70A7BE" d="M1085-38l-32,44l58,17L1085-38z"/>
	<path fill="#73A5BB" stroke="#73A5BB" d="M1085-38l26,61l25-42L1085-38z"/>
	<path fill="#6DA0BB" stroke="#6DA0BB" d="M1136-19l-25,42l48-16L1136-19z"/>
	<path fill="#729FB9" stroke="#729FB9" d="M1136-19l23,26l2-26H1136z"/>
	<path fill="#739CB7" stroke="#739CB7" d="M1161-19l-2,26l60-41L1161-19z"/>
	<path fill="#6E98B6" stroke="#6E98B6" d="M1219-34l-60,41l77,17L1219-34z"/>
	<path fill="#7394B3" stroke="#7394B3" d="M1219-34l17,58l29-62L1219-34z"/>
	<path fill="#6D90B3" stroke="#6D90B3" d="M1265-38l-29,62l43-12L1265-38z"/>
	<path fill="#728FB1" stroke="#728FB1" d="M1265-38l14,50l25-34L1265-38z"/>
	<path fill="#6A8AB0" stroke="#6A8AB0" d="M1304-22l-25,34l49,13L1304-22z"/>
	<path fill="#6F87AE" stroke="#6F87AE" d="M1304-22l24,47l52-51L1304-22z"/>
	<path fill="#6881AD" stroke="#6881AD" d="M1380-26l-52,51l62,3L1380-26z"/>
	<path fill="#687DAB" stroke="#687DAB" d="M1380-26l10,54l30-7L1380-26z"/>
	<path fill="#6F7FA9" stroke="#6F7FA9" d="M1380-26l40,47l-1-52L1380-26z"/>
	<path fill="#687DA8" stroke="#687DA8" d="M1419-31l1,52l65,8L1419-31z"/>
	<path fill="#6D7FA5" stroke="#6D7FA5" d="M1419-31l66,60l25-56L1419-31z"/>
	<path fill="#697EA4" stroke="#697EA4" d="M1510-27l-25,56l40-25L1510-27z"/>
	<path fill="#CCF9D5" stroke="#CCF9D5" d="M32,11L14,49l51-1L32,11z"/>
	<path fill="#CEF9D4" stroke="#CEF9D4" d="M32,11l33,37l12-27L32,11z"/>
	<path fill="#C2F5D4" stroke="#C2F5D4" d="M77,21L65,48l60,16L77,21z"/>
	<path fill="#C1F4D3" stroke="#C1F4D3" d="M77,21l48,43l2-34L77,21z"/>
	<path fill="#B7F1D2" stroke="#B7F1D2" d="M127,30l-2,34l40-4L127,30z"/>
	<path fill="#BBF2D0" stroke="#BBF2D0" d="M127,30l38,30l17-50L127,30z"/>
	<path fill="#B0EED0" stroke="#B0EED0" d="M182,10l-17,50l38,23L182,10z"/>
	<path fill="#B6F0CE" stroke="#B6F0CE" d="M182,10l21,73l15-87L182,10z"/>
	<path fill="#A9EBCE" stroke="#A9EBCE" d="M218-4l-15,87l56-9L218-4z"/>
	<path fill="#B0EECC" stroke="#B0EECC" d="M218-4l41,78l-2-69L218-4z"/>
	<path fill="#A7EACC" stroke="#A7EACC" d="M257,5l2,69l43-43L257,5z"/>
	<path fill="#9CE7CC" stroke="#9CE7CC" d="M302,31l-43,43l54-11L302,31z"/>
	<path fill="#A0E7C9" stroke="#A0E7C9" d="M302,31l11,32l62-60L302,31z"/>
	<path fill="#99E5CA" stroke="#99E5CA" d="M375,3l-62,60l77-17L375,3z"/>
	<path fill="#9AE5C9" stroke="#9AE5C9" d="M375,3l15,43l19-38L375,3z"/>
	<path fill="#8EE1CB" stroke="#8EE1CB" d="M409,8l-19,38l48,21L409,8z"/>
	<path fill="#8FE1CB" stroke="#8FE1CB" d="M409,8l29,59l16-50L409,8z"/>
	<path fill="#82DDCE" stroke="#82DDCE" d="M454,17l-16,50l47,5L454,17z"/>
	<path fill="#86DDCD" stroke="#86DDCD" d="M454,17l31,55l32-66L454,17z"/>
	<path fill="#78D9CF" stroke="#78D9CF" d="M517,6l-32,66l55,11L517,6z"/>
	<path fill="#75D7CF" stroke="#75D7CF" d="M517,6l23,77l27-18L517,6z"/>
	<path fill="#7DDACE" stroke="#7DDACE" d="M517,6l50,59V5L517,6z"/>
	<path fill="#78D8CF" stroke="#78D8CF" d="M567,5v60l37-54L567,5z"/>
	<path fill="#6BD4D1" stroke="#6BD4D1" d="M604,11l-37,54l69,6L604,11z"/>
	<path fill="#6CD3D1" stroke="#6CD3D1" d="M604,11l32,60l19-42L604,11z"/>
	<path fill="#65CFD2" stroke="#65CFD2" d="M655,29l-19,42l20-6L655,29z"/>
	<path fill="#64CDD1" stroke="#64CDD1" d="M655,29l1,36l50,6L655,29z"/>
	<path fill="#68CCD0" stroke="#68CCD0" d="M655,29l51,42l25-44L655,29z"/>
	<path fill="#60C7D0" stroke="#60C7D0" d="M731,27l-25,44l63,9L731,27z"/>
	<path fill="#65C7CF" stroke="#65C7CF" d="M731,27l38,53l-2-54L731,27z"/>
	<path fill="#61C2CF" stroke="#61C2CF" d="M767,26l2,54l70-31L767,26z"/>
	<path fill="#69C3CC" stroke="#69C3CC" d="M767,26l72,23l-2-40L767,26z"/>
	<path fill="#68C0CC" stroke="#68C0CC" d="M837,9l2,40l14-23L837,9z"/>
	<path fill="#61BECD" stroke="#61BECD" d="M853,26l-14,23l19,9L853,26z"/>
	<path fill="#60BBCD" stroke="#60BBCD" d="M853,26l5,32l49-3L853,26z"/>
	<path fill="#62BACC" stroke="#62BACC" d="M853,26l54,29l14-22L853,26z"/>
	<path fill="#5CB4CB" stroke="#5CB4CB" d="M921,33l-14,22l60,15L921,33z"/>
	<path fill="#5FB2C9" stroke="#5FB2C9" d="M921,33l46,37l3-40L921,33z"/>
	<path fill="#5BADC8" stroke="#5BADC8" d="M970,30l-3,40l49-11L970,30z"/>
	<path fill="#65AEC5" stroke="#65AEC5" d="M970,30l46,29l1-63L970,30z"/>
	<path fill="#67ABC2" stroke="#67ABC2" d="M1017-4l-1,63l37-53L1017-4z"/>
	<path fill="#5FA6C2" stroke="#5FA6C2" d="M1053,6l-37,53l76-2L1053,6z"/>
	<path fill="#63A3C0" stroke="#63A3C0" d="M1053,6l39,51l19-34L1053,6z"/>
	<path fill="#5C9DBF" stroke="#5C9DBF" d="M1111,23l-19,34l48,3L1111,23z"/>
	<path fill="#629CBD" stroke="#629CBD" d="M1111,23l29,37l19-53L1111,23z"/>
	<path fill="#5D98BC" stroke="#5D98BC" d="M1159,7l-19,53h24L1159,7z"/>
	<path fill="#6195BA" stroke="#6195BA" d="M1159,7l5,53l72-36L1159,7z"/>
	<path fill="#588FB9" stroke="#588FB9" d="M1236,24l-72,36l71,22L1236,24z"/>
	<path fill="#5589B7" stroke="#5589B7" d="M1236,24l-1,58l51-3L1236,24z"/>
	<path fill="#5D8AB5" stroke="#5D8AB5" d="M1236,24l50,55l-7-67L1236,24z"/>
	<path fill="#5D86B3" stroke="#5D86B3" d="M1279,12l7,67l42-54L1279,12z"/>
	<path fill="#5381B4" stroke="#5381B4" d="M1328,25l-42,54l41,4L1328,25z"/>
	<path fill="#567EB1" stroke="#567EB1" d="M1328,25l-1,58l53-26L1328,25z"/>
	<path fill="#5D7EAF" stroke="#5D7EAF" d="M1328,25l52,32l10-29L1328,25z"/>
	<path fill="#5A79AD" stroke="#5A79AD" d="M1390,28l-10,29l33-12L1390,28z"/>
	<path fill="#5E7AAC" stroke="#5E7AAC" d="M1390,28l23,17l7-24L1390,28z"/>
	<path fill="#5B79AA" stroke="#5B79AA" d="M1420,21l-7,24l69,8L1420,21z"/>
	<path fill="#5D79A8" stroke="#5D79A8" d="M1420,21l62,32l3-24L1420,21z"/>
	<path fill="#5778A7" stroke="#5778A7" d="M1485,29l-3,24l46,7L1485,29z"/>
	<path fill="#5D7AA5" stroke="#5D7AA5" d="M1485,29l43,31l-3-56L1485,29z"/>
	<path fill="#B6F2DA" stroke="#B6F2DA" d="M14,49l-8,59l57,10L14,49z"/>
	<path fill="#BEF4D7" stroke="#BEF4D7" d="M14,49l49,69l2-70L14,49z"/>
	<path fill="#B1F0D7" stroke="#B1F0D7" d="M65,48l-2,70l65-22L65,48z"/>
	<path fill="#B6F0D5" stroke="#B6F0D5" d="M65,48l63,48l-3-32L65,48z"/>
	<path fill="#AEEED3" stroke="#AEEED3" d="M125,64l3,32l37-36L125,64z"/>
	<path fill="#A8EBD4" stroke="#A8EBD4" d="M165,60l-37,36l46,1L165,60z"/>
	<path fill="#A5EBD2" stroke="#A5EBD2" d="M165,60l9,37l29-14L165,60z"/>
	<path fill="#9AE7D3" stroke="#9AE7D3" d="M203,83l-29,14l30,27L203,83z"/>
	<path fill="#99E6D1" stroke="#99E6D1" d="M203,83l1,41l55-50L203,83z"/>
	<path fill="#92E3D1" stroke="#92E3D1" d="M259,74l-55,50l70-17L259,74z"/>
	<path fill="#94E4CE" stroke="#94E4CE" d="M259,74l15,33l39-44L259,74z"/>
	<path fill="#8CE1CE" stroke="#8CE1CE" d="M313,63l-39,44l43,3L313,63z"/>
	<path fill="#85DECD" stroke="#85DECD" d="M313,63l4,47l72,4L313,63z"/>
	<path fill="#89DFCC" stroke="#89DFCC" d="M313,63l76,51l1-68L313,63z"/>
	<path fill="#82DDCE" stroke="#82DDCE" d="M390,46l-1,68l49-47L390,46z"/>
	<path fill="#77D9D0" stroke="#77D9D0" d="M438,67l-49,47h40L438,67z"/>
	<path fill="#71D7D0" stroke="#71D7D0" d="M438,67l-9,47l52,2L438,67z"/>
	<path fill="#74D7D0" stroke="#74D7D0" d="M438,67l43,49l4-44L438,67z"/>
	<path fill="#6CD5D1" stroke="#6CD5D1" d="M485,72l-4,44l59-33L485,72z"/>
	<path fill="#61D1D3" stroke="#61D1D3" d="M540,83l-59,33l54,16L540,83z"/>
	<path fill="#5BCFD4" stroke="#5BCFD4" d="M540,83l-5,49l50-12L540,83z"/>
	<path fill="#62D1D3" stroke="#62D1D3" d="M540,83l45,37l-18-55L540,83z"/>
	<path fill="#5ECFD4" stroke="#5ECFD4" d="M567,65l18,55l51-49L567,65z"/>
	<path fill="#52CBD5" stroke="#52CBD5" d="M636,71l-51,49l53,5L636,71z"/>
	<path fill="#54CAD4" stroke="#54CAD4" d="M636,71l2,54l33-31L636,71z"/>
	<path fill="#5CCCD3" stroke="#5CCCD3" d="M636,71l35,23l-15-29L636,71z"/>
	<path fill="#5BCAD3" stroke="#5BCAD3" d="M656,65l15,29l35-23L656,65z"/>
	<path fill="#55C6D3" stroke="#55C6D3" d="M706,71l-35,23l50,11L706,71z"/>
	<path fill="#56C3D2" stroke="#56C3D2" d="M706,71l15,34l48-25L706,71z"/>
	<path fill="#4DBED3" stroke="#4DBED3" d="M769,80l-48,25l62,27L769,80z"/>
	<path fill="#4BBBD2" stroke="#4BBBD2" d="M769,80l14,52l30-21L769,80z"/>
	<path fill="#55BDD0" stroke="#55BDD0" d="M769,80l44,31l26-62L769,80z"/>
	<path fill="#57BBCF" stroke="#57BBCF" d="M839,49l-26,62l45-53L839,49z"/>
	<path fill="#50B7CF" stroke="#50B7CF" d="M858,58l-45,53l74-14L858,58z"/>
	<path fill="#56B7CE" stroke="#56B7CE" d="M858,58l29,39l20-42L858,58z"/>
	<path fill="#50B3CE" stroke="#50B3CE" d="M907,55l-20,42l39,1L907,55z"/>
	<path fill="#53B1CC" stroke="#53B1CC" d="M907,55l19,43l41-28L907,55z"/>
	<path fill="#4CACCC" stroke="#4CACCC" d="M967,70l-41,28l32,11L967,70z"/>
	<path fill="#4AA8CA" stroke="#4AA8CA" d="M967,70l-9,39l59,4L967,70z"/>
	<path fill="#50A7C8" stroke="#50A7C8" d="M967,70l50,43l-1-54L967,70z"/>
	<path fill="#51A3C6" stroke="#51A3C6" d="M1016,59l1,54l75-56L1016,59z"/>
	<path fill="#479CC6" stroke="#479CC6" d="M1092,57l-75,56l70,21L1092,57z"/>
	<path fill="#4697C3" stroke="#4697C3" d="M1092,57l-5,77l38-15L1092,57z"/>
	<path fill="#4F98C1" stroke="#4F98C1" d="M1092,57l33,62l15-59L1092,57z"/>
	<path fill="#4893C0" stroke="#4893C0" d="M1140,60l-15,59l39-10L1140,60z"/>
	<path fill="#5094BE" stroke="#5094BE" d="M1140,60l24,49V60H1140z"/>
	<path fill="#4C8FBD" stroke="#4C8FBD" d="M1164,60v49l71-27L1164,60z"/>
	<path fill="#4689BD" stroke="#4689BD" d="M1235,82l-71,27l64,1L1235,82z"/>
	<path fill="#4986BA" stroke="#4986BA" d="M1235,82l-7,28l58-31L1235,82z"/>
	<path fill="#4281BA" stroke="#4281BA" d="M1286,79l-58,31l57,23L1286,79z"/>
	<path fill="#427EB8" stroke="#427EB8" d="M1286,79l-1,54l21-24L1286,79z"/>
	<path fill="#487EB6" stroke="#487EB6" d="M1286,79l20,30l21-26L1286,79z"/>
	<path fill="#3E78B6" stroke="#3E78B6" d="M1327,83l-21,26l52,48L1327,83z"/>
	<path fill="#4075B4" stroke="#4075B4" d="M1327,83l31,74l31-63L1327,83z"/>
	<path fill="#4D78B1" stroke="#4D78B1" d="M1327,83l62,11l-9-37L1327,83z"/>
	<path fill="#5176AF" stroke="#5176AF" d="M1380,57l9,37l24-49L1380,57z"/>
	<path fill="#4B73AF" stroke="#4B73AF" d="M1413,45l-24,49l21,12L1413,45z"/>
	<path fill="#4873AE" stroke="#4873AE" d="M1413,45l-3,61l53,4L1413,45z"/>
	<path fill="#4F75AB" stroke="#4F75AB" d="M1413,45l50,65l19-57L1413,45z"/>
	<path fill="#4D74A9" stroke="#4D74A9" d="M1482,53l-19,57l65-50L1482,53z"/>
	<path fill="#4471AA" stroke="#4471AA" d="M1528,60l-65,50l66,12L1528,60z"/>
	<path fill="#A9EDDB" stroke="#A9EDDB" d="M6,108l24,45l33-35L6,108z"/>
	<path fill="#A3E8DA" stroke="#A3E8DA" d="M63,118l-33,35l45,22L63,118z"/>
	<path fill="#9FE5D9" stroke="#9FE5D9" d="M63,118l12,57h28L63,118z"/>
	<path fill="#9FE9D9" stroke="#9FE9D9" d="M63,118l40,57l25-79L63,118z"/>
	<path fill="#96E3D7" stroke="#96E3D7" d="M128,96l-25,79l85-6L128,96z"/>
	<path fill="#98E6D5" stroke="#98E6D5" d="M128,96l60,73l-14-72L128,96z"/>
	<path fill="#90E4D5" stroke="#90E4D5" d="M174,97l14,72l16-45L174,97z"/>
	<path fill="#8ADDD4" stroke="#8ADDD4" d="M204,124l-16,45l44,3L204,124z"/>
	<path fill="#87E0D3" stroke="#87E0D3" d="M204,124l28,48l42-65L204,124z"/>
	<path fill="#83DAD2" stroke="#83DAD2" d="M274,107l-42,65l22,4L274,107z"/>
	<path fill="#7FDAD1" stroke="#7FDAD1" d="M274,107l-20,69l56-17L274,107z"/>
	<path fill="#80DDD0" stroke="#80DDD0" d="M274,107l36,52l7-49L274,107z"/>
	<path fill="#79DACF" stroke="#79DACF" d="M317,110l-7,49l79-45L317,110z"/>
	<path fill="#71D4CF" stroke="#71D4CF" d="M389,114l-79,45l81,18L389,114z"/>
	<path fill="#6BD2D0" stroke="#6BD2D0" d="M389,114l2,63l32-16L389,114z"/>
	<path fill="#6BD5D1" stroke="#6BD5D1" d="M389,114l34,47l6-47H389z"/>
	<path fill="#65D0D2" stroke="#65D0D2" d="M429,114l-6,47l44,1L429,114z"/>
	<path fill="#64D3D3" stroke="#64D3D3" d="M429,114l38,48l14-46L429,114z"/>
	<path fill="#5ECED3" stroke="#5ECED3" d="M481,116l-14,46l35-11L481,116z"/>
	<path fill="#5BCFD4" stroke="#5BCFD4" d="M481,116l21,35l33-19L481,116z"/>
	<path fill="#55CAD4" stroke="#55CAD4" d="M535,132l-33,19l65,2L535,132z"/>
	<path fill="#51CBD6" stroke="#51CBD6" d="M535,132l32,21l18-33L535,132z"/>
	<path fill="#4BC7D6" stroke="#4BC7D6" d="M585,120l-18,33l68,8L585,120z"/>
	<path fill="#48C7D7" stroke="#48C7D7" d="M585,120l50,41l3-36L585,120z"/>
	<path fill="#45C2D6" stroke="#45C2D6" d="M638,125l-3,36l38-10L638,125z"/>
	<path fill="#49C5D6" stroke="#49C5D6" d="M638,125l35,26l-2-57L638,125z"/>
	<path fill="#46C2D6" stroke="#46C2D6" d="M671,94l2,57l31-2L671,94z"/>
	<path fill="#4BC3D5" stroke="#4BC3D5" d="M671,94l33,55l17-44L671,94z"/>
	<path fill="#43BCD5" stroke="#43BCD5" d="M721,105l-17,44l63,12L721,105z"/>
	<path fill="#42BBD4" stroke="#42BBD4" d="M721,105l46,56l16-29L721,105z"/>
	<path fill="#3FB3D3" stroke="#3FB3D3" d="M783,132l-16,29l38,16L783,132z"/>
	<path fill="#40B5D3" stroke="#40B5D3" d="M783,132l22,45l8-66L783,132z"/>
	<path fill="#3EAED2" stroke="#3EAED2" d="M813,111l-8,66l79,5L813,111z"/>
	<path fill="#40B1D2" stroke="#40B1D2" d="M813,111l71,71l3-85L813,111z"/>
	<path fill="#3CABD1" stroke="#3CABD1" d="M887,97l-3,85l51-27L887,97z"/>
	<path fill="#43AED0" stroke="#43AED0" d="M887,97l48,58l-9-57L887,97z"/>
	<path fill="#41AACE" stroke="#41AACE" d="M926,98l9,57l23-46L926,98z"/>
	<path fill="#3BA4CE" stroke="#3BA4CE" d="M958,109l-23,46l34,22L958,109z"/>
	<path fill="#3CA3CD" stroke="#3CA3CD" d="M958,109l11,68l48-64L958,109z"/>
	<path fill="#3A9CCA" stroke="#3A9CCA" d="M1017,113l-48,64l60-16L1017,113z"/>
	<path fill="#3B9AC9" stroke="#3B9AC9" d="M1017,113l12,48l58-27L1017,113z"/>
	<path fill="#3993C6" stroke="#3993C6" d="M1087,134l-58,27l37,21L1087,134z"/>
	<path fill="#388EC4" stroke="#388EC4" d="M1087,134l-21,48l72-11L1087,134z"/>
	<path fill="#3A8FC4" stroke="#3A8FC4" d="M1087,134l51,37l-13-52L1087,134z"/>
	<path fill="#3A8EC3" stroke="#3A8EC3" d="M1125,119l13,52l26-62L1125,119z"/>
	<path fill="#3888C1" stroke="#3888C1" d="M1164,109l-26,62l23,4L1164,109z"/>
	<path fill="#3884BF" stroke="#3884BF" d="M1164,109l-3,66l67-1L1164,109z"/>
	<path fill="#3A86BF" stroke="#3A86BF" d="M1164,109l64,65v-64L1164,109z"/>
	<path fill="#377EBC" stroke="#377EBC" d="M1228,110v64l24-12L1228,110z"/>
	<path fill="#397FBC" stroke="#397FBC" d="M1228,110l24,52l33-29L1228,110z"/>
	<path fill="#3676B9" stroke="#3676B9" d="M1285,133l-33,29l71,12L1285,133z"/>
	<path fill="#3777B8" stroke="#3777B8" d="M1285,133l38,41l-17-65L1285,133z"/>
	<path fill="#3773B7" stroke="#3773B7" d="M1306,109l17,65l35-17L1306,109z"/>
	<path fill="#3C70B3" stroke="#3C70B3" d="M1389,94l-31,63l52-51L1389,94z"/>
	<path fill="#366CB3" stroke="#366CB3" d="M1410,106l-52,51l51,6L1410,106z"/>
	<path fill="#366BB0" stroke="#366BB0" d="M1410,106l-1,57l59-16L1410,106z"/>
	<path fill="#3B6EAF" stroke="#3B6EAF" d="M1410,106l58,41l-5-37L1410,106z"/>
	<path fill="#386EAD" stroke="#386EAD" d="M1463,110l5,37l61-25L1463,110z"/>
	<path fill="#346AAB" stroke="#346AAB" d="M1529,122l-61,25l61,13V122z"/>
	<path fill="#A3E3D9" stroke="#A3E3D9" d="M30,153l9,43l36-21L30,153z"/>
	<path fill="#9EDDD7" stroke="#9EDDD7" d="M75,175l-36,21l49,8L75,175z"/>
	<path fill="#9BDED7" stroke="#9BDED7" d="M75,175l13,29l15-29H75z"/>
	<path fill="#98DBD6" stroke="#98DBD6" d="M103,175l-15,29l21,1L103,175z"/>
	<path fill="#94DAD5" stroke="#94DAD5" d="M103,175l6,30l55-5L103,175z"/>
	<path fill="#91DBD4" stroke="#91DBD4" d="M103,175l61,25l24-31L103,175z"/>
	<path fill="#89D4D2" stroke="#89D4D2" d="M188,169l-24,31l57,26L188,169z"/>
	<path fill="#86D5D1" stroke="#86D5D1" d="M188,169l33,57l11-54L188,169z"/>
	<path fill="#82D3D0" stroke="#82D3D0" d="M232,172l-11,54l33-50L232,172z"/>
	<path fill="#80D0CF" stroke="#80D0CF" d="M254,176l-33,50l47-30L254,176z"/>
	<path fill="#7DD3CF" stroke="#7DD3CF" d="M254,176l14,20l42-37L254,176z"/>
	<path fill="#78D0CE" stroke="#78D0CE" d="M310,159l-42,37l55,10L310,159z"/>
	<path fill="#72CECD" stroke="#72CECD" d="M310,159l13,47l68-29L310,159z"/>
	<path fill="#6CC8CD" stroke="#6CC8CD" d="M391,177l-68,29l54,16L391,177z"/>
	<path fill="#68C6CD" stroke="#68C6CD" d="M391,177l-14,45l30-4L391,177z"/>
	<path fill="#67C9CF" stroke="#67C9CF" d="M391,177l16,41l16-57L391,177z"/>
	<path fill="#62C6CF" stroke="#62C6CF" d="M423,161l-16,57l54-11L423,161z"/>
	<path fill="#60C9D0" stroke="#60C9D0" d="M423,161l38,46l6-45L423,161z"/>
	<path fill="#5BC3D0" stroke="#5BC3D0" d="M467,162l-6,45l42,6L467,162z"/>
	<path fill="#5AC7D2" stroke="#5AC7D2" d="M467,162l36,51l-1-62L467,162z"/>
	<path fill="#54C5D3" stroke="#54C5D3" d="M502,151l1,62l64-60L502,151z"/>
	<path fill="#4EBFD2" stroke="#4EBFD2" d="M567,153l-64,60l85-10L567,153z"/>
	<path fill="#48C0D5" stroke="#48C0D5" d="M567,153l21,50l47-42L567,153z"/>
	<path fill="#43BBD4" stroke="#43BBD4" d="M635,161l-47,42l37,13L635,161z"/>
	<path fill="#41B8D4" stroke="#41B8D4" d="M635,161l-10,55l45-9L635,161z"/>
	<path fill="#42BBD4" stroke="#42BBD4" d="M635,161l35,46l3-56L635,161z"/>
	<path fill="#42BAD4" stroke="#42BAD4" d="M673,151l-3,56l34-58L673,151z"/>
	<path fill="#3FB3D3" stroke="#3FB3D3" d="M704,149l-34,58l42,23L704,149z"/>
	<path fill="#3EB0D2" stroke="#3EB0D2" d="M704,149l8,81l61-32L704,149z"/>
	<path fill="#40B3D3" stroke="#40B3D3" d="M704,149l69,49l-6-37L704,149z"/>
	<path fill="#3DAED1" stroke="#3DAED1" d="M767,161l6,37l32-21L767,161z"/>
	<path fill="#3CAAD1" stroke="#3CAAD1" d="M805,177l-32,21l56-1L805,177z"/>
	<path fill="#3BA7D0" stroke="#3BA7D0" d="M805,177l24,20l55-15L805,177z"/>
	<path fill="#39A3CF" stroke="#39A3CF" d="M884,182l-55,15l56,10L884,182z"/>
	<path fill="#38A0CF" stroke="#38A0CF" d="M884,182l1,25l22-12L884,182z"/>
	<path fill="#39A2CF" stroke="#39A2CF" d="M884,182l23,13l28-40L884,182z"/>
	<path fill="#399FCE" stroke="#399FCE" d="M935,155l-28,40l62-18L935,155z"/>
	<path fill="#379ACC" stroke="#379ACC" d="M969,177l-62,18l72,3L969,177z"/>
	<path fill="#3897CA" stroke="#3897CA" d="M969,177l10,21l50-37L969,177z"/>
	<path fill="#3792C8" stroke="#3792C8" d="M1029,161l-50,37l51,21L1029,161z"/>
	<path fill="#378FC6" stroke="#378FC6" d="M1029,161l1,58l36-37L1029,161z"/>
	<path fill="#3488C4" stroke="#3488C4" d="M1066,182l-36,37l43,3L1066,182z"/>
	<path fill="#3586C3" stroke="#3586C3" d="M1066,182l7,40l54-26L1066,182z"/>
	<path fill="#3687C2" stroke="#3687C2" d="M1066,182l61,14l11-25L1066,182z"/>
	<path fill="#3683C0" stroke="#3683C0" d="M1138,171l-11,25l34-21L1138,171z"/>
	<path fill="#347FBF" stroke="#347FBF" d="M1161,175l-34,21l48,19L1161,175z"/>
	<path fill="#347ABD" stroke="#347ABD" d="M1161,175l14,40l47-14L1161,175z"/>
	<path fill="#357BBC" stroke="#357BBC" d="M1161,175l61,26l6-27L1161,175z"/>
	<path fill="#3578BB" stroke="#3578BB" d="M1228,174l-6,27l30-39L1228,174z"/>
	<path fill="#3472B9" stroke="#3472B9" d="M1252,162l-30,39l60,16L1252,162z"/>
	<path fill="#3470B7" stroke="#3470B7" d="M1252,162l30,55l41-43L1252,162z"/>
	<path fill="#3168B4" stroke="#3168B4" d="M1323,174l-41,43l36,15L1323,174z"/>
	<path fill="#3265B3" stroke="#3265B3" d="M1323,174l-5,58l48-32L1323,174z"/>
	<path fill="#3369B3" stroke="#3369B3" d="M1323,174l43,26l-8-43L1323,174z"/>
	<path fill="#3466B2" stroke="#3466B2" d="M1358,157l8,43l43-37L1358,157z"/>
	<path fill="#315FAF" stroke="#315FAF" d="M1409,163l-43,37l74,21L1409,163z"/>
	<path fill="#3263AE" stroke="#3263AE" d="M1409,163l31,58l28-74L1409,163z"/>
	<path fill="#315EAB" stroke="#315EAB" d="M1468,147l-28,74l40,2L1468,147z"/>
	<path fill="#3263AA" stroke="#3263AA" d="M1468,147l12,76l49-63L1468,147z"/>
	<path fill="#2F5DA8" stroke="#2F5DA8" d="M1529,160l-49,63l39,7L1529,160z"/>
	<path fill="#9DD8D6" stroke="#9DD8D6" d="M39,196l-2,63l51-55L39,196z"/>
	<path fill="#9AD2D5" stroke="#9AD2D5" d="M88,204l-51,55l23,15L88,204z"/>
	<path fill="#98D4D5" stroke="#98D4D5" d="M88,204l-28,70l49-69L88,204z"/>
	<path fill="#94CED3" stroke="#94CED3" d="M109,205l-49,69l72,4L109,205z"/>
	<path fill="#90D1D3" stroke="#90D1D3" d="M109,205l23,73l32-78L109,205z"/>
	<path fill="#8BCBD1" stroke="#8BCBD1" d="M164,200l-32,78l29-3L164,200z"/>
	<path fill="#88CDD1" stroke="#88CDD1" d="M164,200l-3,75l60-49L164,200z"/>
	<path fill="#83C7CF" stroke="#83C7CF" d="M221,226l-60,49l46-3L221,226z"/>
	<path fill="#7DC5CD" stroke="#7DC5CD" d="M221,226l-14,46l79-21L221,226z"/>
	<path fill="#7CCACE" stroke="#7CCACE" d="M221,226l65,25l-18-55L221,226z"/>
	<path fill="#77C9CD" stroke="#77C9CD" d="M268,196l18,55l37-45L268,196z"/>
	<path fill="#73C4CB" stroke="#73C4CB" d="M323,206l-37,45l16,1L323,206z"/>
	<path fill="#6EC1CA" stroke="#6EC1CA" d="M323,206l-21,46l66,20L323,206z"/>
	<path fill="#6BC2CB" stroke="#6BC2CB" d="M323,206l45,66l9-50L323,206z"/>
	<path fill="#66BFCB" stroke="#66BFCB" d="M377,222l-9,50l39-54L377,222z"/>
	<path fill="#61BACB" stroke="#61BACB" d="M407,218l-39,54l70-1L407,218z"/>
	<path fill="#5DB9CC" stroke="#5DB9CC" d="M407,218l31,53l23-9L407,218z"/>
	<path fill="#5DBECD" stroke="#5DBECD" d="M407,218l54,44v-55L407,218z"/>
	<path fill="#58BCCE" stroke="#58BCCE" d="M461,207v55l42-49L461,207z"/>
	<path fill="#54B7CE" stroke="#54B7CE" d="M503,213l-42,49l42,3V213z"/>
	<path fill="#4DB3CF" stroke="#4DB3CF" d="M503,213v52l72,10L503,213z"/>
	<path fill="#4AB6D0" stroke="#4AB6D0" d="M503,213l72,62l13-72L503,213z"/>
	<path fill="#43B0D0" stroke="#43B0D0" d="M588,203l-13,72l29-15L588,203z"/>
	<path fill="#42B4D2" stroke="#42B4D2" d="M588,203l16,57l21-44L588,203z"/>
	<path fill="#3EAED1" stroke="#3EAED1" d="M625,216l-21,44l80-15L625,216z"/>
	<path fill="#3EB0D2" stroke="#3EB0D2" d="M625,216l59,29l-14-38L625,216z"/>
	<path fill="#3DACD1" stroke="#3DACD1" d="M670,207l14,38l28-15L670,207z"/>
	<path fill="#3AA5CF" stroke="#3AA5CF" d="M712,230l-28,15l43,38L712,230z"/>
	<path fill="#389FCE" stroke="#389FCE" d="M712,230l15,53l59-2L712,230z"/>
	<path fill="#39A3CF" stroke="#39A3CF" d="M712,230l74,51l-13-83L712,230z"/>
	<path fill="#39A2CF" stroke="#39A2CF" d="M773,198l13,83l43-84L773,198z"/>
	<path fill="#369ACD" stroke="#369ACD" d="M829,197l-43,84l47,1L829,197z"/>
	<path fill="#3598CD" stroke="#3598CD" d="M829,197l4,85l32-11L829,197z"/>
	<path fill="#379CCE" stroke="#379CCE" d="M829,197l36,74l20-64L829,197z"/>
	<path fill="#3494CC" stroke="#3494CC" d="M885,207l-20,64l73-8L885,207z"/>
	<path fill="#3598CD" stroke="#3598CD" d="M885,207l53,56l-31-68L885,207z"/>
	<path fill="#3595CB" stroke="#3595CB" d="M907,195l31,68l41-65L907,195z"/>
	<path fill="#338CC8" stroke="#338CC8" d="M979,198l-41,65l49,9L979,198z"/>
	<path fill="#338BC7" stroke="#338BC7" d="M979,198l8,74l43-53L979,198z"/>
	<path fill="#3184C5" stroke="#3184C5" d="M1030,219l-43,53l51-16L1030,219z"/>
	<path fill="#3283C4" stroke="#3283C4" d="M1030,219l8,37l19-7L1030,219z"/>
	<path fill="#3384C3" stroke="#3384C3" d="M1030,219l27,30l16-27L1030,219z"/>
	<path fill="#317EC1" stroke="#317EC1" d="M1073,222l-16,27l45,13L1073,222z"/>
	<path fill="#327FC0" stroke="#327FC0" d="M1073,222l29,40l25-66L1073,222z"/>
	<path fill="#327BBF" stroke="#327BBF" d="M1127,196l-25,66l73-47L1127,196z"/>
	<path fill="#2F73BD" stroke="#2F73BD" d="M1175,215l-73,47l59,20L1175,215z"/>
	<path fill="#2F6CB9" stroke="#2F6CB9" d="M1175,215l-14,67l79-5L1175,215z"/>
	<path fill="#316FB9" stroke="#316FB9" d="M1175,215l65,62l-18-76L1175,215z"/>
	<path fill="#306AB7" stroke="#306AB7" d="M1222,201l18,76l42-60L1222,201z"/>
	<path fill="#2E62B5" stroke="#2E62B5" d="M1282,217l-42,60l14,7L1282,217z"/>
	<path fill="#2F63B4" stroke="#2F63B4" d="M1282,217l-28,67l64-52L1282,217z"/>
	<path fill="#2C5CB3" stroke="#2C5CB3" d="M1318,232l-64,52l29,18L1318,232z"/>
	<path fill="#2C5AB1" stroke="#2C5AB1" d="M1318,232l-35,70l49-28L1318,232z"/>
	<path fill="#2D59B0" stroke="#2D59B0" d="M1318,232l14,42l28-11L1318,232z"/>
	<path fill="#2F5DB1" stroke="#2F5DB1" d="M1318,232l42,31l6-63L1318,232z"/>
	<path fill="#2F59AE" stroke="#2F59AE" d="M1366,200l-6,63l80-42L1366,200z"/>
	<path fill="#2D52AC" stroke="#2D52AC" d="M1440,221l-80,42l62,11L1440,221z"/>
	<path fill="#2D55AA" stroke="#2D55AA" d="M1440,221l-18,53l58-51L1440,221z"/>
	<path fill="#2B50A8" stroke="#2B50A8" d="M1480,223l-58,51l67,10L1480,223z"/>
	<path fill="#2C52A7" stroke="#2C52A7" d="M1480,223l9,61l28-39L1480,223z"/>
	<path fill="#2D56A7" stroke="#2D56A7" d="M1480,223l37,22l2-15L1480,223z"/>
	<path fill="#9AC9D3" stroke="#9AC9D3" d="M37,259l3,67l20-52L37,259z"/>
	<path fill="#77BFCB" stroke="#77BFCB" d="M207,272l81,28l-2-49L207,272z"/>
	<path fill="#73BECA" stroke="#73BECA" d="M286,251l2,49l14-48L286,251z"/>
	<path fill="#70BAC8" stroke="#70BAC8" d="M302,252l-14,48l39-2L302,252z"/>
	<path fill="#6CBAC8" stroke="#6CBAC8" d="M302,252l25,46l41-26L302,252z"/>
	<path fill="#57AFC9" stroke="#57AFC9" d="M438,271l15,61l8-70L438,271z"/>
	<path fill="#53A8C8" stroke="#53A8C8" d="M461,262l-8,70l61-13L461,262z"/>
	<path fill="#50AECC" stroke="#50AECC" d="M461,262l53,57l-11-54L461,262z"/>
	<path fill="#41A6CD" stroke="#41A6CD" d="M575,275l11,54l18-69L575,275z"/>
	<path fill="#3DA0CC" stroke="#3DA0CC" d="M604,260l-18,69l52-5L604,260z"/>
	<path fill="#3AA1CD" stroke="#3AA1CD" d="M604,260l34,64l26-22L604,260z"/>
	<path fill="#3BA7D0" stroke="#3BA7D0" d="M604,260l60,42l20-57L604,260z"/>
	<path fill="#38A1CE" stroke="#38A1CE" d="M684,245l-20,57l63-19L684,245z"/>
	<path fill="#2F7EC3" stroke="#2F7EC3" d="M987,272l51,25v-41L987,272z"/>
	<path fill="#307CC2" stroke="#307CC2" d="M1038,256v41l19-48L1038,256z"/>
	<path fill="#2F77C0" stroke="#2F77C0" d="M1057,249l-19,48l21,12L1057,249z"/>
	<path fill="#2F78C0" stroke="#2F78C0" d="M1057,249l2,60l43-47L1057,249z"/>
	<path fill="#2E6EBC" stroke="#2E6EBC" d="M1102,262l-43,47l67,8L1102,262z"/>
	<path fill="#2E6CBB" stroke="#2E6CBB" d="M1102,262l24,55l35-35L1102,262z"/>
</g>
</svg>
