<svg width="1920" height="962" xmlns="http://www.w3.org/2000/svg"><g><path d="M-62,-31L-74,589L-60,192Z" fill="#e3eafa" stroke="#e3eafa"/><path d="M-62,-31L-60,192L-37,138Z" fill="#f0f0fa" stroke="#f0f0fa"/><path d="M-62,-31L-37,138L-23,43Z" fill="#f3f2f9" stroke="#f3f2f9"/><path d="M-62,-31L-23,43L14,28Z" fill="#f6f4f9" stroke="#f6f4f9"/><path d="M-62,-31L14,28L77,-78Z" fill="#f5f3f9" stroke="#f5f3f9"/><path d="M77,-78L14,28L138,43Z" fill="#f2f1f7" stroke="#f2f1f7"/><path d="M77,-78L138,43L143,-78Z" fill="#efeff7" stroke="#efeff7"/><path d="M77,-78L143,-78L845,-79Z" fill="#e2e8f2" stroke="#e2e8f2"/><path d="M143,-78L138,43L221,16Z" fill="#edeef6" stroke="#edeef6"/><path d="M143,-78L221,16L243,-39Z" fill="#ebedf5" stroke="#ebedf5"/><path d="M143,-78L243,-39L416,-39Z" fill="#e7eaf4" stroke="#e7eaf4"/><path d="M143,-78L416,-39L845,-79Z" fill="#dce4f0" stroke="#dce4f0"/><path d="M243,-39L221,16L307,30Z" fill="#e8ebf4" stroke="#e8ebf4"/><path d="M243,-39L307,30L310,-21Z" fill="#e6eaf4" stroke="#e6eaf4"/><path d="M243,-39L310,-21L416,-39Z" fill="#e4e9f3" stroke="#e4e9f3"/><path d="M310,-21L307,30L416,-39Z" fill="#e3e8f3" stroke="#e3e8f3"/><path d="M416,-39L307,30L382,74Z" fill="#e0e6f2" stroke="#e0e6f2"/><path d="M416,-39L382,74L471,-22Z" fill="#dee5f1" stroke="#dee5f1"/><path d="M416,-39L471,-22L572,-15Z" fill="#dbe3f0" stroke="#dbe3f0"/><path d="M416,-39L572,-15L845,-79Z" fill="#d4dfee" stroke="#d4dfee"/><path d="M471,-22L382,74L495,16Z" fill="#dbe4f1" stroke="#dbe4f1"/><path d="M471,-22L495,16L572,-15Z" fill="#dae2f0" stroke="#dae2f0"/><path d="M572,-15L495,16L551,59Z" fill="#d6e1ef" stroke="#d6e1ef"/><path d="M572,-15L551,59L701,70Z" fill="#d1ddee" stroke="#d1ddee"/><path d="M572,-15L701,70L703,-19Z" fill="#d0dded" stroke="#d0dded"/><path d="M572,-15L703,-19L845,-79Z" fill="#ccdcec" stroke="#ccdcec"/><path d="M703,-19L701,70L734,-15Z" fill="#cbdbec" stroke="#cbdbec"/><path d="M703,-19L734,-15L845,-79Z" fill="#c7daeb" stroke="#c7daeb"/><path d="M734,-15L701,70L783,53Z" fill="#c6d9eb" stroke="#c6d9eb"/><path d="M734,-15L783,53L834,19Z" fill="#c3d8ea" stroke="#c3d8ea"/><path d="M734,-15L834,19L845,-79Z" fill="#c3d8ea" stroke="#c3d8ea"/><path d="M845,-79L834,19L913,-52Z" fill="#bdd6e8" stroke="#bdd6e8"/><path d="M845,-79L913,-52L1018,-47Z" fill="#b7d3e7" stroke="#b7d3e7"/><path d="M845,-79L1018,-47L1182,-55Z" fill="#afd0e5" stroke="#afd0e5"/><path d="M845,-79L1182,-55L1422,-66Z" fill="#a2cbe2" stroke="#a2cbe2"/><path d="M845,-79L1422,-66L1473,-71Z" fill="#98c7e0" stroke="#98c7e0"/><path d="M845,-79L1473,-71L2048,-79Z" fill="#84bfdb" stroke="#84bfdb"/><path d="M913,-52L834,19L951,40Z" fill="#bad4e7" stroke="#bad4e7"/><path d="M913,-52L951,40L1018,-47Z" fill="#b4d2e6" stroke="#b4d2e6"/><path d="M1018,-47L951,40L1004,71Z" fill="#afd0e5" stroke="#afd0e5"/><path d="M1018,-47L1004,71L1138,64Z" fill="#a9cde4" stroke="#a9cde4"/><path d="M1018,-47L1138,64L1151,-29Z" fill="#a6cde3" stroke="#a6cde3"/><path d="M1018,-47L1151,-29L1182,-55Z" fill="#a5cce2" stroke="#a5cce2"/><path d="M1151,-29L1138,64L1183,12Z" fill="#a0cae2" stroke="#a0cae2"/><path d="M1151,-29L1183,12L1182,-55Z" fill="#a0cae1" stroke="#a0cae1"/><path d="M1182,-55L1183,12L1315,-24Z" fill="#9ac8e0" stroke="#9ac8e0"/><path d="M1182,-55L1315,-24L1422,-66Z" fill="#93c5de" stroke="#93c5de"/><path d="M1315,-24L1183,12L1297,60Z" fill="#95c6df" stroke="#95c6df"/><path d="M1315,-24L1297,60L1372,52Z" fill="#8ec2de" stroke="#8ec2de"/><path d="M1315,-24L1372,52L1422,-66Z" fill="#8dc2dd" stroke="#8dc2dd"/><path d="M1422,-66L1372,52L1495,55Z" fill="#86c0db" stroke="#86c0db"/><path d="M1422,-66L1495,55L1473,-71Z" fill="#84bfdb" stroke="#84bfdb"/><path d="M1473,-71L1495,55L1572,27Z" fill="#7fbdd9" stroke="#7fbdd9"/><path d="M1473,-71L1572,27L1585,-47Z" fill="#80bcd9" stroke="#80bcd9"/><path d="M1473,-71L1585,-47L1753,-60Z" fill="#80b9d7" stroke="#80b9d7"/><path d="M1473,-71L1753,-60L2048,-79Z" fill="#80b3d4" stroke="#80b3d4"/><path d="M1585,-47L1572,27L1636,-30Z" fill="#80bad8" stroke="#80bad8"/><path d="M1585,-47L1636,-30L1753,-60Z" fill="#80b7d6" stroke="#80b7d6"/><path d="M1636,-30L1572,27L1692,35Z" fill="#7fb8d7" stroke="#7fb8d7"/><path d="M1636,-30L1692,35L1753,-60Z" fill="#80b6d5" stroke="#80b6d5"/><path d="M1753,-60L1692,35L1749,65Z" fill="#7fb4d5" stroke="#7fb4d5"/><path d="M1753,-60L1749,65L1837,-28Z" fill="#80b3d3" stroke="#80b3d3"/><path d="M1753,-60L1837,-28L1903,-40Z" fill="#80b1d2" stroke="#80b1d2"/><path d="M1753,-60L1903,-40L2048,-79Z" fill="#80aed1" stroke="#80aed1"/><path d="M1837,-28L1749,65L1838,39Z" fill="#7db1d3" stroke="#7db1d3"/><path d="M1837,-28L1838,39L1903,36Z" fill="#7eafd2" stroke="#7eafd2"/><path d="M1837,-28L1903,36L1903,-40Z" fill="#80afd1" stroke="#80afd1"/><path d="M1903,-40L1903,36L2021,16Z" fill="#7facd0" stroke="#7facd0"/><path d="M1903,-40L2021,16L2048,-79Z" fill="#80abcf" stroke="#80abcf"/><path d="M2048,-79L2021,16L2032,224Z" fill="#7ba6ce" stroke="#7ba6ce"/><path d="M2048,-79L2032,224L2031,303Z" fill="#72a2ce" stroke="#72a2ce"/><path d="M2048,-79L2031,303L2043,792Z" fill="#5f98cd" stroke="#5f98cd"/><path d="M2048,-79L2043,792L2059,1051Z" fill="#2681c2" stroke="#2681c2"/><path d="M-23,43L-37,138L22,145Z" fill="#edeff9" stroke="#edeff9"/><path d="M-23,43L22,145L14,28Z" fill="#eff0f9" stroke="#eff0f9"/><path d="M14,28L22,145L138,43Z" fill="#eceef8" stroke="#eceef8"/><path d="M138,43L22,145L153,107Z" fill="#e8ebf7" stroke="#e8ebf7"/><path d="M138,43L153,107L221,16Z" fill="#e7ebf6" stroke="#e7ebf6"/><path d="M221,16L153,107L245,130Z" fill="#e3e8f5" stroke="#e3e8f5"/><path d="M221,16L245,130L302,104Z" fill="#e0e7f4" stroke="#e0e7f4"/><path d="M221,16L302,104L307,30Z" fill="#e2e8f4" stroke="#e2e8f4"/><path d="M307,30L302,104L382,74Z" fill="#dee5f3" stroke="#dee5f3"/><path d="M382,74L302,104L419,107Z" fill="#d9e3f2" stroke="#d9e3f2"/><path d="M382,74L419,107L495,16Z" fill="#d8e2f1" stroke="#d8e2f1"/><path d="M495,16L419,107L520,112Z" fill="#d5e0f0" stroke="#d5e0f0"/><path d="M495,16L520,112L551,59Z" fill="#d4dfef" stroke="#d4dfef"/><path d="M551,59L520,112L611,137Z" fill="#cedcef" stroke="#cedcef"/><path d="M551,59L611,137L701,70Z" fill="#ccdbee" stroke="#ccdbee"/><path d="M701,70L611,137L696,136Z" fill="#c6d8ed" stroke="#c6d8ed"/><path d="M701,70L696,136L745,164Z" fill="#c1d5ec" stroke="#c1d5ec"/><path d="M701,70L745,164L783,53Z" fill="#c0d6eb" stroke="#c0d6eb"/><path d="M783,53L745,164L843,133Z" fill="#bad3ea" stroke="#bad3ea"/><path d="M783,53L843,133L834,19Z" fill="#bbd4e9" stroke="#bbd4e9"/><path d="M834,19L843,133L951,40Z" fill="#b7d2e8" stroke="#b7d2e8"/><path d="M951,40L843,133L950,130Z" fill="#afcfe7" stroke="#afcfe7"/><path d="M951,40L950,130L1004,71Z" fill="#accee6" stroke="#accee6"/><path d="M1004,71L950,130L1045,154Z" fill="#a6cbe5" stroke="#a6cbe5"/><path d="M1004,71L1045,154L1118,118Z" fill="#a1c9e4" stroke="#a1c9e4"/><path d="M1004,71L1118,118L1138,64Z" fill="#a0c9e3" stroke="#a0c9e3"/><path d="M1138,64L1118,118L1184,112Z" fill="#9ac6e2" stroke="#9ac6e2"/><path d="M1138,64L1184,112L1183,12Z" fill="#9ac7e1" stroke="#9ac7e1"/><path d="M1183,12L1184,112L1297,60Z" fill="#95c5e0" stroke="#95c5e0"/><path d="M1297,60L1184,112L1333,101Z" fill="#8ec2df" stroke="#8ec2df"/><path d="M1297,60L1333,101L1372,52Z" fill="#8ac0de" stroke="#8ac0de"/><path d="M1372,52L1333,101L1373,128Z" fill="#85bedd" stroke="#85bedd"/><path d="M1372,52L1373,128L1482,123Z" fill="#80bcdc" stroke="#80bcdc"/><path d="M1372,52L1482,123L1495,55Z" fill="#7ebcdb" stroke="#7ebcdb"/><path d="M1495,55L1482,123L1558,159Z" fill="#76b7da" stroke="#76b7da"/><path d="M1495,55L1558,159L1572,27Z" fill="#79b8d9" stroke="#79b8d9"/><path d="M1572,27L1558,159L1683,155Z" fill="#76b4d7" stroke="#76b4d7"/><path d="M1572,27L1683,155L1692,35Z" fill="#79b4d6" stroke="#79b4d6"/><path d="M1692,35L1683,155L1744,103Z" fill="#77b1d5" stroke="#77b1d5"/><path d="M1692,35L1744,103L1749,65Z" fill="#7ab2d5" stroke="#7ab2d5"/><path d="M1749,65L1744,103L1831,120Z" fill="#77aed4" stroke="#77aed4"/><path d="M1749,65L1831,120L1838,39Z" fill="#79aed3" stroke="#79aed3"/><path d="M1838,39L1831,120L1903,36Z" fill="#7aadd2" stroke="#7aadd2"/><path d="M1903,36L1831,120L1930,149Z" fill="#77a9d1" stroke="#77a9d1"/><path d="M1903,36L1930,149L2021,16Z" fill="#7aa9d0" stroke="#7aa9d0"/><path d="M2021,16L1930,149L2008,166Z" fill="#76a6cf" stroke="#76a6cf"/><path d="M2021,16L2008,166L2032,224Z" fill="#74a3ce" stroke="#74a3ce"/><path d="M-37,138L-60,192L22,145Z" fill="#e9edf9" stroke="#e9edf9"/><path d="M22,145L-60,192L30,216Z" fill="#e5ebf9" stroke="#e5ebf9"/><path d="M22,145L30,216L158,220Z" fill="#e1e8f7" stroke="#e1e8f7"/><path d="M22,145L158,220L153,107Z" fill="#e2e8f7" stroke="#e2e8f7"/><path d="M153,107L158,220L227,201Z" fill="#dce5f6" stroke="#dce5f6"/><path d="M153,107L227,201L245,130Z" fill="#dde5f5" stroke="#dde5f5"/><path d="M245,130L227,201L286,228Z" fill="#d7e2f4" stroke="#d7e2f4"/><path d="M245,130L286,228L302,104Z" fill="#d9e3f4" stroke="#d9e3f4"/><path d="M302,104L286,228L396,213Z" fill="#d4e0f3" stroke="#d4e0f3"/><path d="M302,104L396,213L419,107Z" fill="#d5e1f2" stroke="#d5e1f2"/><path d="M419,107L396,213L520,112Z" fill="#d0def1" stroke="#d0def1"/><path d="M520,112L396,213L518,236Z" fill="#cbdbf0" stroke="#cbdbf0"/><path d="M520,112L518,236L611,137Z" fill="#c9daef" stroke="#c9daef"/><path d="M611,137L518,236L616,215Z" fill="#c4d7ee" stroke="#c4d7ee"/><path d="M611,137L616,215L671,205Z" fill="#c3d6ed" stroke="#c3d6ed"/><path d="M611,137L671,205L696,136Z" fill="#c3d6ed" stroke="#c3d6ed"/><path d="M696,136L671,205L745,164Z" fill="#bed4ec" stroke="#bed4ec"/><path d="M745,164L671,205L798,199Z" fill="#b8d1eb" stroke="#b8d1eb"/><path d="M745,164L798,199L843,133Z" fill="#b5d1ea" stroke="#b5d1ea"/><path d="M843,133L798,199L869,219Z" fill="#afcee9" stroke="#afcee9"/><path d="M843,133L869,219L950,130Z" fill="#accde8" stroke="#accde8"/><path d="M950,130L869,219L966,205Z" fill="#a7cbe7" stroke="#a7cbe7"/><path d="M950,130L966,205L1045,154Z" fill="#a3c9e5" stroke="#a3c9e5"/><path d="M1045,154L966,205L1034,221Z" fill="#9ec7e5" stroke="#9ec7e5"/><path d="M1045,154L1034,221L1120,206Z" fill="#99c5e4" stroke="#99c5e4"/><path d="M1045,154L1120,206L1118,118Z" fill="#99c5e3" stroke="#99c5e3"/><path d="M1118,118L1120,206L1184,112Z" fill="#96c4e2" stroke="#96c4e2"/><path d="M1184,112L1120,206L1216,201Z" fill="#90c2e1" stroke="#90c2e1"/><path d="M1184,112L1216,201L1333,101Z" fill="#8cc1e0" stroke="#8cc1e0"/><path d="M1333,101L1216,201L1323,192Z" fill="#86bedf" stroke="#86bedf"/><path d="M1333,101L1323,192L1373,128Z" fill="#83bddd" stroke="#83bddd"/><path d="M1373,128L1323,192L1367,255Z" fill="#7dbadd" stroke="#7dbadd"/><path d="M1373,128L1367,255L1504,229Z" fill="#76b7dc" stroke="#76b7dc"/><path d="M1373,128L1504,229L1482,123Z" fill="#77b8db" stroke="#77b8db"/><path d="M1482,123L1504,229L1558,159Z" fill="#71b5d9" stroke="#71b5d9"/><path d="M1558,159L1504,229L1579,222Z" fill="#6eb2d9" stroke="#6eb2d9"/><path d="M1558,159L1579,222L1656,222Z" fill="#6eb0d8" stroke="#6eb0d8"/><path d="M1558,159L1656,222L1683,155Z" fill="#70b0d7" stroke="#70b0d7"/><path d="M1683,155L1656,222L1729,195Z" fill="#6fadd5" stroke="#6fadd5"/><path d="M1683,155L1729,195L1744,103Z" fill="#72aed5" stroke="#72aed5"/><path d="M1744,103L1729,195L1831,120Z" fill="#73add4" stroke="#73add4"/><path d="M1831,120L1729,195L1840,236Z" fill="#6fa9d3" stroke="#6fa9d3"/><path d="M1831,120L1840,236L1930,149Z" fill="#71a7d1" stroke="#71a7d1"/><path d="M1930,149L1840,236L1926,255Z" fill="#6da4d1" stroke="#6da4d1"/><path d="M1930,149L1926,255L2008,166Z" fill="#6fa3cf" stroke="#6fa3cf"/><path d="M2008,166L1926,255L2032,224Z" fill="#6da1cf" stroke="#6da1cf"/><path d="M-60,192L-74,589L-50,505Z" fill="#c4dcf5" stroke="#c4dcf5"/><path d="M-60,192L-50,505L-32,321Z" fill="#d7e4f9" stroke="#d7e4f9"/><path d="M-60,192L-32,321L30,216Z" fill="#e1e8f9" stroke="#e1e8f9"/><path d="M30,216L-32,321L66,302Z" fill="#dce6f8" stroke="#dce6f8"/><path d="M30,216L66,302L158,220Z" fill="#dbe5f7" stroke="#dbe5f7"/><path d="M158,220L66,302L143,329Z" fill="#d6e2f7" stroke="#d6e2f7"/><path d="M158,220L143,329L193,330Z" fill="#d3e0f6" stroke="#d3e0f6"/><path d="M158,220L193,330L227,201Z" fill="#d5e1f5" stroke="#d5e1f5"/><path d="M227,201L193,330L286,228Z" fill="#d2e0f5" stroke="#d2e0f5"/><path d="M286,228L193,330L295,302Z" fill="#ceddf4" stroke="#ceddf4"/><path d="M286,228L295,302L396,213Z" fill="#ceddf3" stroke="#ceddf3"/><path d="M396,213L295,302L426,293Z" fill="#c9dbf2" stroke="#c9dbf2"/><path d="M396,213L426,293L518,236Z" fill="#c7d9f1" stroke="#c7d9f1"/><path d="M518,236L426,293L480,343Z" fill="#c2d6f0" stroke="#c2d6f0"/><path d="M518,236L480,343L616,302Z" fill="#bed4ef" stroke="#bed4ef"/><path d="M518,236L616,302L616,215Z" fill="#bfd5ee" stroke="#bfd5ee"/><path d="M616,215L616,302L669,309Z" fill="#bbd1ed" stroke="#bbd1ed"/><path d="M616,215L669,309L671,205Z" fill="#bcd2ed" stroke="#bcd2ed"/><path d="M671,205L669,309L742,340Z" fill="#b4cfec" stroke="#b4cfec"/><path d="M671,205L742,340L798,199Z" fill="#b3cfeb" stroke="#b3cfeb"/><path d="M798,199L742,340L825,347Z" fill="#aacbea" stroke="#aacbea"/><path d="M798,199L825,347L869,219Z" fill="#aacbe9" stroke="#aacbe9"/><path d="M869,219L825,347L951,329Z" fill="#a1c7e8" stroke="#a1c7e8"/><path d="M869,219L951,329L966,205Z" fill="#a1c8e7" stroke="#a1c8e7"/><path d="M966,205L951,329L1025,295Z" fill="#9ac4e6" stroke="#9ac4e6"/><path d="M966,205L1025,295L1034,221Z" fill="#9ac5e5" stroke="#9ac5e5"/><path d="M1034,221L1025,295L1121,315Z" fill="#92c1e4" stroke="#92c1e4"/><path d="M1034,221L1121,315L1120,206Z" fill="#91c1e3" stroke="#91c1e3"/><path d="M1120,206L1121,315L1215,311Z" fill="#89bee2" stroke="#89bee2"/><path d="M1120,206L1215,311L1216,201Z" fill="#89bee1" stroke="#89bee1"/><path d="M1216,201L1215,311L1305,298Z" fill="#81bbe0" stroke="#81bbe0"/><path d="M1216,201L1305,298L1323,192Z" fill="#81bbdf" stroke="#81bbdf"/><path d="M1323,192L1305,298L1367,255Z" fill="#7ab8de" stroke="#7ab8de"/><path d="M1367,255L1305,298L1387,344Z" fill="#74b5dd" stroke="#74b5dd"/><path d="M1367,255L1387,344L1458,281Z" fill="#6fb4dc" stroke="#6fb4dc"/><path d="M1367,255L1458,281L1504,229Z" fill="#6fb4db" stroke="#6fb4db"/><path d="M1504,229L1458,281L1543,286Z" fill="#68b1da" stroke="#68b1da"/><path d="M1504,229L1543,286L1579,222Z" fill="#6ab0d9" stroke="#6ab0d9"/><path d="M1579,222L1543,286L1663,336Z" fill="#67add8" stroke="#67add8"/><path d="M1579,222L1663,336L1656,222Z" fill="#69acd7" stroke="#69acd7"/><path d="M1656,222L1663,336L1736,295Z" fill="#66a9d6" stroke="#66a9d6"/><path d="M1656,222L1736,295L1729,195Z" fill="#6baad5" stroke="#6baad5"/><path d="M1729,195L1736,295L1840,236Z" fill="#6aa8d4" stroke="#6aa8d4"/><path d="M1840,236L1736,295L1837,320Z" fill="#67a4d3" stroke="#67a4d3"/><path d="M1840,236L1837,320L1926,255Z" fill="#68a3d1" stroke="#68a3d1"/><path d="M1926,255L1837,320L1958,322Z" fill="#65a0d1" stroke="#65a0d1"/><path d="M1926,255L1958,322L2031,303Z" fill="#669ecf" stroke="#669ecf"/><path d="M1926,255L2031,303L2032,224Z" fill="#699ecf" stroke="#699ecf"/><path d="M-32,321L-50,505L-26,393Z" fill="#c8def6" stroke="#c8def6"/><path d="M-32,321L-26,393L76,381Z" fill="#cfe0f7" stroke="#cfe0f7"/><path d="M-32,321L76,381L66,302Z" fill="#d4e2f8" stroke="#d4e2f8"/><path d="M66,302L76,381L143,329Z" fill="#d0e0f7" stroke="#d0e0f7"/><path d="M143,329L76,381L115,396Z" fill="#c8dcf5" stroke="#c8dcf5"/><path d="M143,329L115,396L193,330Z" fill="#cadcf5" stroke="#cadcf5"/><path d="M193,330L115,396L254,377Z" fill="#c4daf3" stroke="#c4daf3"/><path d="M193,330L254,377L295,302Z" fill="#c8dbf4" stroke="#c8dbf4"/><path d="M295,302L254,377L328,432Z" fill="#bed6f1" stroke="#bed6f1"/><path d="M295,302L328,432L385,411Z" fill="#b9d4f0" stroke="#b9d4f0"/><path d="M295,302L385,411L426,293Z" fill="#c2d7f2" stroke="#c2d7f2"/><path d="M426,293L385,411L480,343Z" fill="#bbd4f0" stroke="#bbd4f0"/><path d="M480,343L385,411L499,383Z" fill="#b3d0ee" stroke="#b3d0ee"/><path d="M480,343L499,383L616,302Z" fill="#b7d1ee" stroke="#b7d1ee"/><path d="M616,302L499,383L606,393Z" fill="#b1ceed" stroke="#b1ceed"/><path d="M616,302L606,393L669,309Z" fill="#b4ceed" stroke="#b4ceed"/><path d="M669,309L606,393L643,423Z" fill="#aacaeb" stroke="#aacaeb"/><path d="M669,309L643,423L742,340Z" fill="#a9caeb" stroke="#a9caeb"/><path d="M742,340L643,423L737,474Z" fill="#9bc4e8" stroke="#9bc4e8"/><path d="M742,340L737,474L790,394Z" fill="#98c3e7" stroke="#98c3e7"/><path d="M742,340L790,394L825,347Z" fill="#9fc6e8" stroke="#9fc6e8"/><path d="M825,347L790,394L837,435Z" fill="#95c2e6" stroke="#95c2e6"/><path d="M825,347L837,435L921,413Z" fill="#8fc0e5" stroke="#8fc0e5"/><path d="M825,347L921,413L951,329Z" fill="#94c1e5" stroke="#94c1e5"/><path d="M951,329L921,413L1007,401Z" fill="#8abee4" stroke="#8abee4"/><path d="M951,329L1007,401L1025,295Z" fill="#8fc0e4" stroke="#8fc0e4"/><path d="M1025,295L1007,401L1121,315Z" fill="#8bbee3" stroke="#8bbee3"/><path d="M1121,315L1007,401L1130,389Z" fill="#80bae1" stroke="#80bae1"/><path d="M1121,315L1130,389L1215,311Z" fill="#81bae1" stroke="#81bae1"/><path d="M1215,311L1130,389L1197,401Z" fill="#78b7df" stroke="#78b7df"/><path d="M1215,311L1197,401L1302,380Z" fill="#73b4de" stroke="#73b4de"/><path d="M1215,311L1302,380L1305,298Z" fill="#77b6de" stroke="#77b6de"/><path d="M1305,298L1302,380L1367,375Z" fill="#6db3dc" stroke="#6db3dc"/><path d="M1305,298L1367,375L1387,344Z" fill="#6eb2dc" stroke="#6eb2dc"/><path d="M1387,344L1367,375L1473,381Z" fill="#62aeda" stroke="#62aeda"/><path d="M1387,344L1473,381L1458,281Z" fill="#66afdb" stroke="#66afdb"/><path d="M1458,281L1473,381L1543,286Z" fill="#65afda" stroke="#65afda"/><path d="M1543,286L1473,381L1605,396Z" fill="#5caad7" stroke="#5caad7"/><path d="M1543,286L1605,396L1639,380Z" fill="#5ca8d6" stroke="#5ca8d6"/><path d="M1543,286L1639,380L1663,336Z" fill="#60a9d7" stroke="#60a9d7"/><path d="M1663,336L1639,380L1773,439Z" fill="#55a1d2" stroke="#55a1d2"/><path d="M1663,336L1773,439L1736,295Z" fill="#5ba2d3" stroke="#5ba2d3"/><path d="M1736,295L1773,439L1837,320Z" fill="#5ca1d2" stroke="#5ca1d2"/><path d="M1837,320L1773,439L1856,437Z" fill="#519bcf" stroke="#519bcf"/><path d="M1837,320L1856,437L1929,425Z" fill="#529ace" stroke="#529ace"/><path d="M1837,320L1929,425L1958,322Z" fill="#5b9ccf" stroke="#5b9ccf"/><path d="M1958,322L1929,425L2010,374Z" fill="#5798cd" stroke="#5798cd"/><path d="M1958,322L2010,374L2031,303Z" fill="#609ace" stroke="#609ace"/><path d="M2031,303L2010,374L2023,474Z" fill="#5595cb" stroke="#5595cb"/><path d="M2031,303L2023,474L2043,792Z" fill="#3587c5" stroke="#3587c5"/><path d="M-26,393L-50,505L41,480Z" fill="#bad8f3" stroke="#bad8f3"/><path d="M-26,393L41,480L76,381Z" fill="#c1daf4" stroke="#c1daf4"/><path d="M76,381L41,480L109,470Z" fill="#b9d7f2" stroke="#b9d7f2"/><path d="M76,381L109,470L115,396Z" fill="#bed8f3" stroke="#bed8f3"/><path d="M115,396L109,470L205,487Z" fill="#b3d4f1" stroke="#b3d4f1"/><path d="M115,396L205,487L254,377Z" fill="#b8d5f1" stroke="#b8d5f1"/><path d="M254,377L205,487L328,432Z" fill="#b1d2ef" stroke="#b1d2ef"/><path d="M328,432L205,487L308,507Z" fill="#a6cded" stroke="#a6cded"/><path d="M328,432L308,507L381,523Z" fill="#a1caeb" stroke="#a1caeb"/><path d="M328,432L381,523L385,411Z" fill="#a6ccec" stroke="#a6ccec"/><path d="M385,411L381,523L523,492Z" fill="#9ec8ea" stroke="#9ec8ea"/><path d="M385,411L523,492L499,383Z" fill="#a7cbec" stroke="#a7cbec"/><path d="M499,383L523,492L606,393Z" fill="#a4c9ea" stroke="#a4c9ea"/><path d="M606,393L523,492L587,487Z" fill="#9ac5e8" stroke="#9ac5e8"/><path d="M606,393L587,487L643,423Z" fill="#9ec6e9" stroke="#9ec6e9"/><path d="M643,423L587,487L657,476Z" fill="#96c3e7" stroke="#96c3e7"/><path d="M643,423L657,476L737,474Z" fill="#93c1e6" stroke="#93c1e6"/><path d="M790,394L737,474L837,435Z" fill="#8ebfe5" stroke="#8ebfe5"/><path d="M837,435L737,474L879,507Z" fill="#83bbe3" stroke="#83bbe3"/><path d="M837,435L879,507L917,465Z" fill="#7db9e1" stroke="#7db9e1"/><path d="M837,435L917,465L921,413Z" fill="#83bbe3" stroke="#83bbe3"/><path d="M921,413L917,465L1007,401Z" fill="#81bae2" stroke="#81bae2"/><path d="M1007,401L917,465L1037,464Z" fill="#79b7e0" stroke="#79b7e0"/><path d="M1007,401L1037,464L1130,389Z" fill="#78b6e0" stroke="#78b6e0"/><path d="M1130,389L1037,464L1094,513Z" fill="#6cb2dd" stroke="#6cb2dd"/><path d="M1130,389L1094,513L1197,401Z" fill="#6cb2dd" stroke="#6cb2dd"/><path d="M1197,401L1094,513L1219,511Z" fill="#60addb" stroke="#60addb"/><path d="M1197,401L1219,511L1302,380Z" fill="#64aedb" stroke="#64aedb"/><path d="M1302,380L1219,511L1337,501Z" fill="#57aad8" stroke="#57aad8"/><path d="M1302,380L1337,501L1367,375Z" fill="#5dacd9" stroke="#5dacd9"/><path d="M1367,375L1337,501L1375,513Z" fill="#51a7d7" stroke="#51a7d7"/><path d="M1367,375L1375,513L1459,499Z" fill="#4da5d6" stroke="#4da5d6"/><path d="M1367,375L1459,499L1473,381Z" fill="#54a8d7" stroke="#54a8d7"/><path d="M1473,381L1459,499L1554,461Z" fill="#47a3d4" stroke="#47a3d4"/><path d="M1473,381L1554,461L1605,396Z" fill="#4ea4d5" stroke="#4ea4d5"/><path d="M1605,396L1554,461L1677,511Z" fill="#449ed1" stroke="#449ed1"/><path d="M1605,396L1677,511L1639,380Z" fill="#4a9fd2" stroke="#4a9fd2"/><path d="M1639,380L1677,511L1773,439Z" fill="#479cd0" stroke="#479cd0"/><path d="M1773,439L1677,511L1765,495Z" fill="#3e97cd" stroke="#3e97cd"/><path d="M1773,439L1765,495L1838,479Z" fill="#4196cd" stroke="#4196cd"/><path d="M1773,439L1838,479L1856,437Z" fill="#4596cd" stroke="#4596cd"/><path d="M1856,437L1838,479L1953,478Z" fill="#4293cb" stroke="#4293cb"/><path d="M1856,437L1953,478L1929,425Z" fill="#4693cb" stroke="#4693cb"/><path d="M1929,425L1953,478L2023,474Z" fill="#4490c9" stroke="#4490c9"/><path d="M1929,425L2023,474L2010,374Z" fill="#4b92ca" stroke="#4b92ca"/><path d="M-50,505L-74,589L49,558Z" fill="#a6d0ef" stroke="#a6d0ef"/><path d="M-50,505L49,558L41,480Z" fill="#acd2f0" stroke="#acd2f0"/><path d="M41,480L49,558L109,470Z" fill="#acd2f0" stroke="#acd2f0"/><path d="M109,470L49,558L170,559Z" fill="#a3ceee" stroke="#a3ceee"/><path d="M109,470L170,559L205,487Z" fill="#a6ceee" stroke="#a6ceee"/><path d="M205,487L170,559L230,593Z" fill="#9bc9eb" stroke="#9bc9eb"/><path d="M205,487L230,593L308,507Z" fill="#9cc9eb" stroke="#9cc9eb"/><path d="M308,507L230,593L347,550Z" fill="#95c6e9" stroke="#95c6e9"/><path d="M308,507L347,550L381,523Z" fill="#97c6ea" stroke="#97c6ea"/><path d="M381,523L347,550L374,568Z" fill="#91c4e8" stroke="#91c4e8"/><path d="M381,523L374,568L496,615Z" fill="#89c0e6" stroke="#89c0e6"/><path d="M381,523L496,615L523,492Z" fill="#8dc1e7" stroke="#8dc1e7"/><path d="M523,492L496,615L580,615Z" fill="#82bce4" stroke="#82bce4"/><path d="M523,492L580,615L587,487Z" fill="#8abfe6" stroke="#8abfe6"/><path d="M587,487L580,615L657,476Z" fill="#89bee5" stroke="#89bee5"/><path d="M657,476L580,615L689,619Z" fill="#7db9e2" stroke="#7db9e2"/><path d="M657,476L689,619L737,474Z" fill="#83bbe3" stroke="#83bbe3"/><path d="M737,474L689,619L747,608Z" fill="#76b6e0" stroke="#76b6e0"/><path d="M737,474L747,608L879,507Z" fill="#78b7e1" stroke="#78b7e1"/><path d="M879,507L747,608L869,611Z" fill="#69b1de" stroke="#69b1de"/><path d="M879,507L869,611L937,601Z" fill="#64aedc" stroke="#64aedc"/><path d="M879,507L937,601L917,465Z" fill="#6eb2de" stroke="#6eb2de"/><path d="M917,465L937,601L1037,464Z" fill="#6cb2dd" stroke="#6cb2dd"/><path d="M1037,464L937,601L1062,579Z" fill="#5faddb" stroke="#5faddb"/><path d="M1037,464L1062,579L1094,513Z" fill="#60addb" stroke="#60addb"/><path d="M1094,513L1062,579L1130,568Z" fill="#55a9d9" stroke="#55a9d9"/><path d="M1094,513L1130,568L1219,511Z" fill="#55a9d9" stroke="#55a9d9"/><path d="M1219,511L1130,568L1247,558Z" fill="#4da5d7" stroke="#4da5d7"/><path d="M1219,511L1247,558L1337,501Z" fill="#4ba5d6" stroke="#4ba5d6"/><path d="M1337,501L1247,558L1321,580Z" fill="#43a1d4" stroke="#43a1d4"/><path d="M1337,501L1321,580L1375,513Z" fill="#42a1d4" stroke="#42a1d4"/><path d="M1375,513L1321,580L1376,598Z" fill="#3a9ed2" stroke="#3a9ed2"/><path d="M1375,513L1376,598L1476,591Z" fill="#349bd1" stroke="#349bd1"/><path d="M1375,513L1476,591L1459,499Z" fill="#399dd2" stroke="#399dd2"/><path d="M1459,499L1476,591L1590,572Z" fill="#2e99d0" stroke="#2e99d0"/><path d="M1459,499L1590,572L1554,461Z" fill="#389cd0" stroke="#389cd0"/><path d="M1554,461L1590,572L1677,511Z" fill="#3799cf" stroke="#3799cf"/><path d="M1677,511L1590,572L1661,557Z" fill="#2f94cd" stroke="#2f94cd"/><path d="M1677,511L1661,557L1726,567Z" fill="#3093cc" stroke="#3093cc"/><path d="M1677,511L1726,567L1765,495Z" fill="#3593cc" stroke="#3593cc"/><path d="M1765,495L1726,567L1837,565Z" fill="#3090ca" stroke="#3090ca"/><path d="M1765,495L1837,565L1838,479Z" fill="#3791ca" stroke="#3791ca"/><path d="M1838,479L1837,565L1953,478Z" fill="#388fc9" stroke="#388fc9"/><path d="M1953,478L1837,565L1967,605Z" fill="#2f8ac6" stroke="#2f8ac6"/><path d="M1953,478L1967,605L1995,605Z" fill="#2c86c5" stroke="#2c86c5"/><path d="M1953,478L1995,605L2023,474Z" fill="#368ac6" stroke="#368ac6"/><path d="M2023,474L1995,605L2028,672Z" fill="#2783c3" stroke="#2783c3"/><path d="M2023,474L2028,672L2043,792Z" fill="#197cc0" stroke="#197cc0"/><path d="M-74,589L-72,710L68,657Z" fill="#8fc7eb" stroke="#8fc7eb"/><path d="M-74,589L68,657L49,558Z" fill="#98caec" stroke="#98caec"/><path d="M49,558L68,657L170,559Z" fill="#96c9eb" stroke="#96c9eb"/><path d="M170,559L68,657L149,681Z" fill="#8bc4e9" stroke="#8bc4e9"/><path d="M170,559L149,681L230,593Z" fill="#8dc4e9" stroke="#8dc4e9"/><path d="M230,593L149,681L228,683Z" fill="#82c0e7" stroke="#82c0e7"/><path d="M230,593L228,683L349,650Z" fill="#81bee6" stroke="#81bee6"/><path d="M230,593L349,650L347,550Z" fill="#89c1e7" stroke="#89c1e7"/><path d="M347,550L349,650L374,568Z" fill="#88c0e7" stroke="#88c0e7"/><path d="M374,568L349,650L496,615Z" fill="#81bce5" stroke="#81bce5"/><path d="M496,615L349,650L375,699Z" fill="#77b9e3" stroke="#77b9e3"/><path d="M496,615L375,699L463,734Z" fill="#6eb5e1" stroke="#6eb5e1"/><path d="M496,615L463,734L525,680Z" fill="#6db4e0" stroke="#6db4e0"/><path d="M496,615L525,680L580,615Z" fill="#74b6e1" stroke="#74b6e1"/><path d="M580,615L525,680L615,684Z" fill="#6cb3df" stroke="#6cb3df"/><path d="M580,615L615,684L689,619Z" fill="#6eb3df" stroke="#6eb3df"/><path d="M689,619L615,684L694,642Z" fill="#69b1de" stroke="#69b1de"/><path d="M689,619L694,642L747,608Z" fill="#6ab1df" stroke="#6ab1df"/><path d="M747,608L694,642L783,658Z" fill="#64afdd" stroke="#64afdd"/><path d="M747,608L783,658L869,611Z" fill="#61aedc" stroke="#61aedc"/><path d="M869,611L783,658L870,706Z" fill="#55a9da" stroke="#55a9da"/><path d="M869,611L870,706L964,673Z" fill="#4fa6d8" stroke="#4fa6d8"/><path d="M869,611L964,673L937,601Z" fill="#55a8d9" stroke="#55a8d9"/><path d="M937,601L964,673L1004,645Z" fill="#4ea6d8" stroke="#4ea6d8"/><path d="M937,601L1004,645L1062,579Z" fill="#52a7d9" stroke="#52a7d9"/><path d="M1062,579L1004,645L1158,704Z" fill="#42a2d5" stroke="#42a2d5"/><path d="M1062,579L1158,704L1130,568Z" fill="#44a2d5" stroke="#44a2d5"/><path d="M1130,568L1158,704L1221,700Z" fill="#369cd3" stroke="#369cd3"/><path d="M1130,568L1221,700L1247,558Z" fill="#3fa0d4" stroke="#3fa0d4"/><path d="M1247,558L1221,700L1291,702Z" fill="#2f9ad1" stroke="#2f9ad1"/><path d="M1247,558L1291,702L1321,580Z" fill="#359cd2" stroke="#359cd2"/><path d="M1321,580L1291,702L1393,668Z" fill="#2897cf" stroke="#2897cf"/><path d="M1321,580L1393,668L1376,598Z" fill="#2d99d0" stroke="#2d99d0"/><path d="M1376,598L1393,668L1476,591Z" fill="#2797cf" stroke="#2797cf"/><path d="M1476,591L1393,668L1512,656Z" fill="#1e93cd" stroke="#1e93cd"/><path d="M1476,591L1512,656L1590,572Z" fill="#2293cd" stroke="#2293cd"/><path d="M1590,572L1512,656L1583,673Z" fill="#1c8fcb" stroke="#1c8fcb"/><path d="M1590,572L1583,673L1661,557Z" fill="#2391cb" stroke="#2391cb"/><path d="M1661,557L1583,673L1697,696Z" fill="#1a8cc8" stroke="#1a8cc8"/><path d="M1661,557L1697,696L1738,662Z" fill="#1a8ac7" stroke="#1a8ac7"/><path d="M1661,557L1738,662L1726,567Z" fill="#248dc9" stroke="#248dc9"/><path d="M1726,567L1738,662L1837,565Z" fill="#248bc8" stroke="#248bc8"/><path d="M1837,565L1738,662L1874,695Z" fill="#1a85c5" stroke="#1a85c5"/><path d="M1837,565L1874,695L1953,656Z" fill="#1a82c3" stroke="#1a82c3"/><path d="M1837,565L1953,656L1967,605Z" fill="#2184c4" stroke="#2184c4"/><path d="M1967,605L1953,656L1995,605Z" fill="#1e81c2" stroke="#1e81c2"/><path d="M1995,605L1953,656L2028,672Z" fill="#197ec1" stroke="#197ec1"/><path d="M-72,710L-51,1001L-25,843Z" fill="#79b6e3" stroke="#79b6e3"/><path d="M-72,710L-25,843L-23,800Z" fill="#78bce5" stroke="#78bce5"/><path d="M-72,710L-23,800L78,751Z" fill="#77bde6" stroke="#77bde6"/><path d="M-72,710L78,751L68,657Z" fill="#7fc0e7" stroke="#7fc0e7"/><path d="M68,657L78,751L149,681Z" fill="#7ebfe6" stroke="#7ebfe6"/><path d="M149,681L78,751L114,760Z" fill="#75bce5" stroke="#75bce5"/><path d="M149,681L114,760L213,735Z" fill="#74bbe4" stroke="#74bbe4"/><path d="M149,681L213,735L228,683Z" fill="#77bbe5" stroke="#77bbe5"/><path d="M228,683L213,735L329,768Z" fill="#6eb7e2" stroke="#6eb7e2"/><path d="M228,683L329,768L349,650Z" fill="#72b8e3" stroke="#72b8e3"/><path d="M349,650L329,768L375,699Z" fill="#6eb6e1" stroke="#6eb6e1"/><path d="M375,699L329,768L428,767Z" fill="#64b1df" stroke="#64b1df"/><path d="M375,699L428,767L463,734Z" fill="#64b1df" stroke="#64b1df"/><path d="M525,680L463,734L578,733Z" fill="#62b0de" stroke="#62b0de"/><path d="M525,680L578,733L615,684Z" fill="#63afde" stroke="#63afde"/><path d="M615,684L578,733L700,774Z" fill="#59abdb" stroke="#59abdb"/><path d="M615,684L700,774L694,642Z" fill="#5cacdc" stroke="#5cacdc"/><path d="M694,642L700,774L783,658Z" fill="#59aadb" stroke="#59aadb"/><path d="M783,658L700,774L785,794Z" fill="#4ba5d8" stroke="#4ba5d8"/><path d="M783,658L785,794L870,706Z" fill="#4aa5d8" stroke="#4aa5d8"/><path d="M870,706L785,794L880,744Z" fill="#41a1d6" stroke="#41a1d6"/><path d="M870,706L880,744L957,753Z" fill="#3ea0d5" stroke="#3ea0d5"/><path d="M870,706L957,753L964,673Z" fill="#41a1d6" stroke="#41a1d6"/><path d="M964,673L957,753L1062,773Z" fill="#369cd3" stroke="#369cd3"/><path d="M964,673L1062,773L1004,645Z" fill="#3c9fd4" stroke="#3c9fd4"/><path d="M1004,645L1062,773L1158,704Z" fill="#349cd2" stroke="#349cd2"/><path d="M1158,704L1062,773L1127,781Z" fill="#2696cf" stroke="#2696cf"/><path d="M1158,704L1127,781L1189,748Z" fill="#2395cf" stroke="#2395cf"/><path d="M1158,704L1189,748L1221,700Z" fill="#2696cf" stroke="#2696cf"/><path d="M1221,700L1189,748L1291,702Z" fill="#2295ce" stroke="#2295ce"/><path d="M1291,702L1189,748L1325,771Z" fill="#1a91cd" stroke="#1a91cd"/><path d="M1291,702L1325,771L1372,767Z" fill="#138ecb" stroke="#138ecb"/><path d="M1291,702L1372,767L1393,668Z" fill="#1890cc" stroke="#1890cc"/><path d="M1393,668L1372,767L1483,747Z" fill="#0f8dca" stroke="#0f8dca"/><path d="M1393,668L1483,747L1512,656Z" fill="#138ecb" stroke="#138ecb"/><path d="M1512,656L1483,747L1583,673Z" fill="#0e8cc9" stroke="#0e8cc9"/><path d="M1583,673L1483,747L1599,737Z" fill="#0888c7" stroke="#0888c7"/><path d="M1583,673L1599,737L1697,696Z" fill="#0c87c6" stroke="#0c87c6"/><path d="M1697,696L1599,737L1669,781Z" fill="#0483c4" stroke="#0483c4"/><path d="M1697,696L1669,781L1783,785Z" fill="#007fc2" stroke="#007fc2"/><path d="M1697,696L1783,785L1738,662Z" fill="#0982c3" stroke="#0982c3"/><path d="M1738,662L1783,785L1874,695Z" fill="#097fc2" stroke="#097fc2"/><path d="M1874,695L1783,785L1858,789Z" fill="#007abf" stroke="#007abf"/><path d="M1874,695L1858,789L1920,741Z" fill="#037abf" stroke="#037abf"/><path d="M1874,695L1920,741L1953,656Z" fill="#0d7cc0" stroke="#0d7cc0"/><path d="M1953,656L1920,741L2028,672Z" fill="#0f7bbf" stroke="#0f7bbf"/><path d="M2028,672L1920,741L2043,792Z" fill="#0476bd" stroke="#0476bd"/><path d="M-23,800L-25,843L66,876Z" fill="#76b5e2" stroke="#76b5e2"/><path d="M-23,800L66,876L78,751Z" fill="#74b7e3" stroke="#74b7e3"/><path d="M78,751L66,876L136,845Z" fill="#71b4e1" stroke="#71b4e1"/><path d="M78,751L136,845L114,760Z" fill="#70b7e2" stroke="#70b7e2"/><path d="M114,760L136,845L213,735Z" fill="#6eb6e2" stroke="#6eb6e2"/><path d="M213,735L136,845L224,861Z" fill="#6cb1e0" stroke="#6cb1e0"/><path d="M213,735L224,861L329,768Z" fill="#68b1e0" stroke="#68b1e0"/><path d="M329,768L224,861L312,865Z" fill="#66addd" stroke="#66addd"/><path d="M329,768L312,865L401,850Z" fill="#63abdd" stroke="#63abdd"/><path d="M329,768L401,850L428,767Z" fill="#61addd" stroke="#61addd"/><path d="M428,767L401,850L493,833Z" fill="#5ea9db" stroke="#5ea9db"/><path d="M428,767L493,833L463,734Z" fill="#5dacdc" stroke="#5dacdc"/><path d="M463,734L493,833L578,733Z" fill="#5aabdc" stroke="#5aabdc"/><path d="M578,733L493,833L556,869Z" fill="#59a6da" stroke="#59a6da"/><path d="M578,733L556,869L651,886Z" fill="#56a3d8" stroke="#56a3d8"/><path d="M578,733L651,886L700,774Z" fill="#53a4d8" stroke="#53a4d8"/><path d="M700,774L651,886L754,849Z" fill="#4d9ed5" stroke="#4d9ed5"/><path d="M700,774L754,849L785,794Z" fill="#499fd6" stroke="#499fd6"/><path d="M785,794L754,849L885,821Z" fill="#439bd3" stroke="#439bd3"/><path d="M785,794L885,821L880,744Z" fill="#3f9dd4" stroke="#3f9dd4"/><path d="M880,744L885,821L957,753Z" fill="#3a9cd4" stroke="#3a9cd4"/><path d="M957,753L885,821L954,829Z" fill="#3799d2" stroke="#3799d2"/><path d="M957,753L954,829L1062,773Z" fill="#3298d1" stroke="#3298d1"/><path d="M1062,773L954,829L1023,882Z" fill="#2f93cf" stroke="#2f93cf"/><path d="M1062,773L1023,882L1116,828Z" fill="#2a91ce" stroke="#2a91ce"/><path d="M1062,773L1116,828L1127,781Z" fill="#2793ce" stroke="#2793ce"/><path d="M1127,781L1116,828L1234,834Z" fill="#218fcc" stroke="#218fcc"/><path d="M1127,781L1234,834L1189,748Z" fill="#1f90cc" stroke="#1f90cc"/><path d="M1189,748L1234,834L1325,771Z" fill="#198ecb" stroke="#198ecb"/><path d="M1325,771L1234,834L1290,882Z" fill="#1589c9" stroke="#1589c9"/><path d="M1325,771L1290,882L1426,830Z" fill="#0f86c7" stroke="#0f86c7"/><path d="M1325,771L1426,830L1372,767Z" fill="#0d89c8" stroke="#0d89c8"/><path d="M1372,767L1426,830L1483,747Z" fill="#0888c7" stroke="#0888c7"/><path d="M1483,747L1426,830L1585,831Z" fill="#0183c5" stroke="#0183c5"/><path d="M1483,747L1585,831L1599,737Z" fill="#0083c5" stroke="#0083c5"/><path d="M1599,737L1585,831L1669,781Z" fill="#0080c3" stroke="#0080c3"/><path d="M1669,781L1585,831L1641,839Z" fill="#007cc1" stroke="#007cc1"/><path d="M1669,781L1641,839L1742,824Z" fill="#007bc0" stroke="#007bc0"/><path d="M1669,781L1742,824L1783,785Z" fill="#007ac0" stroke="#007ac0"/><path d="M1783,785L1742,824L1816,825Z" fill="#0077be" stroke="#0077be"/><path d="M1783,785L1816,825L1858,789Z" fill="#0077be" stroke="#0077be"/><path d="M1858,789L1816,825L1931,872Z" fill="#0072bb" stroke="#0072bb"/><path d="M1858,789L1931,872L1920,741Z" fill="#0073bc" stroke="#0073bc"/><path d="M1920,741L1931,872L2043,792Z" fill="#0071ba" stroke="#0071ba"/><path d="M2043,792L1931,872L2030,873Z" fill="#006cb7" stroke="#006cb7"/><path d="M2043,792L2030,873L2050,958Z" fill="#0068b6" stroke="#0068b6"/><path d="M2043,792L2050,958L2059,1051Z" fill="#0062b2" stroke="#0062b2"/><path d="M-25,843L-51,1001L-21,951Z" fill="#78aedf" stroke="#78aedf"/><path d="M-25,843L-21,951L15,932Z" fill="#77b0df" stroke="#77b0df"/><path d="M-25,843L15,932L66,876Z" fill="#75b1e0" stroke="#75b1e0"/><path d="M66,876L15,932L74,1007Z" fill="#73abdd" stroke="#73abdd"/><path d="M66,876L74,1007L156,931Z" fill="#71a9dc" stroke="#71a9dc"/><path d="M66,876L156,931L136,845Z" fill="#70adde" stroke="#70adde"/><path d="M136,845L156,931L224,861Z" fill="#6dacdd" stroke="#6dacdd"/><path d="M224,861L156,931L197,963Z" fill="#6ca8db" stroke="#6ca8db"/><path d="M224,861L197,963L312,865Z" fill="#69a8db" stroke="#69a8db"/><path d="M312,865L197,963L337,978Z" fill="#67a3d9" stroke="#67a3d9"/><path d="M312,865L337,978L401,850Z" fill="#63a5d9" stroke="#63a5d9"/><path d="M401,850L337,978L415,971Z" fill="#61a0d7" stroke="#61a0d7"/><path d="M401,850L415,971L523,925Z" fill="#5ea0d7" stroke="#5ea0d7"/><path d="M401,850L523,925L493,833Z" fill="#5ca3d8" stroke="#5ca3d8"/><path d="M493,833L523,925L556,869Z" fill="#5aa1d7" stroke="#5aa1d7"/><path d="M556,869L523,925L585,939Z" fill="#589dd5" stroke="#589dd5"/><path d="M556,869L585,939L651,886Z" fill="#569dd5" stroke="#569dd5"/><path d="M651,886L585,939L659,964Z" fill="#5499d3" stroke="#5499d3"/><path d="M651,886L659,964L758,912Z" fill="#4f97d2" stroke="#4f97d2"/><path d="M651,886L758,912L754,849Z" fill="#4b99d3" stroke="#4b99d3"/><path d="M754,849L758,912L885,821Z" fill="#4498d2" stroke="#4498d2"/><path d="M885,821L758,912L886,949Z" fill="#4093d0" stroke="#4093d0"/><path d="M885,821L886,949L929,931Z" fill="#3a91ce" stroke="#3a91ce"/><path d="M885,821L929,931L954,829Z" fill="#3893cf" stroke="#3893cf"/><path d="M954,829L929,931L1023,882Z" fill="#3490cd" stroke="#3490cd"/><path d="M1023,882L929,931L1031,934Z" fill="#318ccb" stroke="#318ccb"/><path d="M1023,882L1031,934L1095,943Z" fill="#2c8aca" stroke="#2c8aca"/><path d="M1023,882L1095,943L1116,828Z" fill="#298bcb" stroke="#298bcb"/><path d="M1116,828L1095,943L1184,970Z" fill="#2487c8" stroke="#2487c8"/><path d="M1116,828L1184,970L1234,834Z" fill="#2088c9" stroke="#2088c9"/><path d="M1234,834L1184,970L1290,882Z" fill="#1a84c7" stroke="#1a84c7"/><path d="M1290,882L1184,970L1285,967Z" fill="#1880c4" stroke="#1880c4"/><path d="M1290,882L1285,967L1385,948Z" fill="#127ec3" stroke="#127ec3"/><path d="M1290,882L1385,948L1426,830Z" fill="#0d80c4" stroke="#0d80c4"/><path d="M1426,830L1385,948L1458,889Z" fill="#087ec3" stroke="#087ec3"/><path d="M1426,830L1458,889L1585,831Z" fill="#027fc3" stroke="#027fc3"/><path d="M1458,889L1385,948L1501,919Z" fill="#067ac1" stroke="#067ac1"/><path d="M1458,889L1501,919L1585,831Z" fill="#007bc1" stroke="#007bc1"/><path d="M1585,831L1501,919L1557,919Z" fill="#0079c0" stroke="#0079c0"/><path d="M1585,831L1557,919L1634,911Z" fill="#0078bf" stroke="#0078bf"/><path d="M1585,831L1634,911L1641,839Z" fill="#0079c0" stroke="#0079c0"/><path d="M1641,839L1634,911L1742,824Z" fill="#0077be" stroke="#0077be"/><path d="M1742,824L1634,911L1733,951Z" fill="#0073bc" stroke="#0073bc"/><path d="M1742,824L1733,951L1816,825Z" fill="#0073bc" stroke="#0073bc"/><path d="M1816,825L1733,951L1836,942Z" fill="#006eba" stroke="#006eba"/><path d="M1816,825L1836,942L1931,872Z" fill="#006eb9" stroke="#006eb9"/><path d="M1931,872L1836,942L1970,933Z" fill="#0069b6" stroke="#0069b6"/><path d="M1931,872L1970,933L2030,873Z" fill="#0069b6" stroke="#0069b6"/><path d="M2030,873L1970,933L2050,958Z" fill="#0064b4" stroke="#0064b4"/><path d="M-21,951L-51,1001L74,1007Z" fill="#76a8dc" stroke="#76a8dc"/><path d="M-21,951L74,1007L15,932Z" fill="#75aadc" stroke="#75aadc"/><path d="M156,931L74,1007L165,1020Z" fill="#6fa4d9" stroke="#6fa4d9"/><path d="M156,931L165,1020L197,963Z" fill="#6da4d9" stroke="#6da4d9"/><path d="M197,963L165,1020L214,1054Z" fill="#6c9fd7" stroke="#6c9fd7"/><path d="M197,963L214,1054L337,978Z" fill="#699fd7" stroke="#699fd7"/><path d="M337,978L214,1054L314,1063Z" fill="#669ad5" stroke="#669ad5"/><path d="M337,978L314,1063L402,1022Z" fill="#6399d4" stroke="#6399d4"/><path d="M337,978L402,1022L415,971Z" fill="#619bd5" stroke="#619bd5"/><path d="M415,971L402,1022L491,1009Z" fill="#5e98d3" stroke="#5e98d3"/><path d="M415,971L491,1009L523,925Z" fill="#5c9ad4" stroke="#5c9ad4"/><path d="M523,925L491,1009L585,939Z" fill="#5999d3" stroke="#5999d3"/><path d="M585,939L491,1009L619,1043Z" fill="#5795d1" stroke="#5795d1"/><path d="M585,939L619,1043L659,964Z" fill="#5494d1" stroke="#5494d1"/><path d="M659,964L619,1043L641,1036Z" fill="#5391cf" stroke="#5391cf"/><path d="M659,964L641,1036L756,1025Z" fill="#4f90ce" stroke="#4f90ce"/><path d="M659,964L756,1025L758,912Z" fill="#4b92cf" stroke="#4b92cf"/><path d="M758,912L756,1025L886,949Z" fill="#448fce" stroke="#448fce"/><path d="M886,949L756,1025L872,1049Z" fill="#408acb" stroke="#408acb"/><path d="M886,949L872,1049L938,1051Z" fill="#3a86c9" stroke="#3a86c9"/><path d="M886,949L938,1051L929,931Z" fill="#3989ca" stroke="#3989ca"/><path d="M929,931L938,1051L1003,1045Z" fill="#3585c8" stroke="#3585c8"/><path d="M929,931L1003,1045L1031,934Z" fill="#3287c9" stroke="#3287c9"/><path d="M1031,934L1003,1045L1095,943Z" fill="#2d85c8" stroke="#2d85c8"/><path d="M1095,943L1003,1045L1147,1019Z" fill="#2981c5" stroke="#2981c5"/><path d="M1095,943L1147,1019L1184,970Z" fill="#2381c5" stroke="#2381c5"/><path d="M1184,970L1147,1019L1184,1023Z" fill="#207dc3" stroke="#207dc3"/><path d="M1184,970L1184,1023L1285,967Z" fill="#1c7dc3" stroke="#1c7dc3"/><path d="M1285,967L1184,1023L1331,1070Z" fill="#1778c1" stroke="#1778c1"/><path d="M1285,967L1331,1070L1388,1054Z" fill="#1075bf" stroke="#1075bf"/><path d="M1285,967L1388,1054L1385,948Z" fill="#0f77c0" stroke="#0f77c0"/><path d="M1385,948L1388,1054L1477,1047Z" fill="#0973bd" stroke="#0973bd"/><path d="M1385,948L1477,1047L1501,919Z" fill="#0575be" stroke="#0575be"/><path d="M1501,919L1477,1047L1578,1040Z" fill="#0070bc" stroke="#0070bc"/><path d="M1501,919L1578,1040L1557,919Z" fill="#0073bd" stroke="#0073bd"/><path d="M1557,919L1578,1040L1634,911Z" fill="#0071bc" stroke="#0071bc"/><path d="M1634,911L1578,1040L1696,1050Z" fill="#006cb9" stroke="#006cb9"/><path d="M1634,911L1696,1050L1733,951Z" fill="#006cb9" stroke="#006cb9"/><path d="M1733,951L1696,1050L1770,1045Z" fill="#0066b6" stroke="#0066b6"/><path d="M1733,951L1770,1045L1836,942Z" fill="#0068b6" stroke="#0068b6"/><path d="M1836,942L1770,1045L1876,1033Z" fill="#0064b4" stroke="#0064b4"/><path d="M1836,942L1876,1033L1913,1015Z" fill="#0063b4" stroke="#0063b4"/><path d="M1836,942L1913,1015L1970,933Z" fill="#0065b5" stroke="#0065b5"/><path d="M1970,933L1913,1015L2050,958Z" fill="#0062b2" stroke="#0062b2"/><path d="M2050,958L1913,1015L2059,1051Z" fill="#005db0" stroke="#005db0"/><path d="M-51,1001L214,1054L74,1007Z" fill="#72a2d9" stroke="#72a2d9"/><path d="M74,1007L214,1054L165,1020Z" fill="#6e9fd7" stroke="#6e9fd7"/><path d="M314,1063L1331,1070L938,1051Z" fill="#3e84c8" stroke="#3e84c8"/><path d="M314,1063L938,1051L872,1049Z" fill="#4d8acc" stroke="#4d8acc"/><path d="M314,1063L872,1049L619,1043Z" fill="#558fce" stroke="#558fce"/><path d="M314,1063L619,1043L402,1022Z" fill="#5e94d1" stroke="#5e94d1"/><path d="M402,1022L619,1043L491,1009Z" fill="#5b94d1" stroke="#5b94d1"/><path d="M619,1043L872,1049L756,1025Z" fill="#498acb" stroke="#498acb"/><path d="M619,1043L756,1025L641,1036Z" fill="#508ece" stroke="#508ece"/><path d="M938,1051L1331,1070L1003,1045Z" fill="#287bc3" stroke="#287bc3"/><path d="M1003,1045L1331,1070L1184,1023Z" fill="#2079c2" stroke="#2079c2"/><path d="M1003,1045L1184,1023L1147,1019Z" fill="#267dc4" stroke="#267dc4"/><path d="M1331,1070L2059,1051L1696,1050Z" fill="#0064b5" stroke="#0064b5"/><path d="M1331,1070L1696,1050L1477,1047Z" fill="#006cba" stroke="#006cba"/><path d="M1331,1070L1477,1047L1388,1054Z" fill="#0a70bc" stroke="#0a70bc"/><path d="M1477,1047L1696,1050L1578,1040Z" fill="#006ab8" stroke="#006ab8"/><path d="M1696,1050L2059,1051L1770,1045Z" fill="#005fb2" stroke="#005fb2"/><path d="M1770,1045L2059,1051L1876,1033Z" fill="#005db1" stroke="#005db1"/><path d="M1876,1033L2059,1051L1913,1015Z" fill="#005db1" stroke="#005db1"/></g></svg>